AnekTelugu-ExpandedExtraBold.ufo
<glyph name="R" format="2">
  <advance width="1583"/>
  <unicode hex="0052"/>
  <anchor x="802" y="0" name="bottom"/>
  <anchor x="792" y="1278" name="top"/>
  <outline>
    <contour>
      <point x="1100" y="0" type="line"/>
      <point x="1529" y="0" type="line"/>
      <point x="1484" y="240" type="line" smooth="yes"/>
      <point x="1438" y="484"/>
      <point x="1367" y="585"/>
      <point x="1108" y="606" type="curve"/>
      <point x="1156" y="551" type="line"/>
      <point x="1156" y="614" type="line"/>
      <point x="1373" y="624"/>
      <point x="1486" y="719"/>
      <point x="1486" y="905" type="curve" smooth="yes"/>
      <point x="1486" y="914" type="line" smooth="yes"/>
      <point x="1486" y="1154"/>
      <point x="1315" y="1278"/>
      <point x="929" y="1278" type="curve" smooth="yes"/>
      <point x="415" y="1278" type="line"/>
      <point x="415" y="970" type="line"/>
      <point x="886" y="970" type="line" smooth="yes"/>
      <point x="1024" y="970"/>
      <point x="1080" y="918"/>
      <point x="1080" y="825" type="curve" smooth="yes"/>
      <point x="1080" y="816" type="line" smooth="yes"/>
      <point x="1080" y="723"/>
      <point x="1024" y="670"/>
      <point x="886" y="669" type="curve" smooth="yes"/>
      <point x="415" y="667" type="line"/>
      <point x="415" y="377" type="line"/>
      <point x="835" y="375" type="line" smooth="yes"/>
      <point x="996" y="374"/>
      <point x="1048" y="328"/>
      <point x="1074" y="165" type="curve" smooth="yes"/>
    </contour>
    <contour>
      <point x="134" y="0" type="line"/>
      <point x="530" y="0" type="line"/>
      <point x="530" y="410" type="line"/>
      <point x="529" y="547" type="line"/>
      <point x="529" y="1278" type="line"/>
      <point x="134" y="1278" type="line"/>
    </contour>
  </outline>
</glyph>
<glyph name="h" format="2">
  <advance width="1439"/>
  <unicode hex="0068"/>
  <anchor x="720" y="0" name="bottom"/>
  <anchor x="720" y="646" name="center"/>
  <anchor x="315" y="1314" name="top"/>
  <outline>
    <contour>
      <point x="934" y="0" type="line"/>
      <point x="1331" y="0" type="line"/>
      <point x="1331" y="566" type="line" smooth="yes"/>
      <point x="1331" y="849"/>
      <point x="1190" y="997"/>
      <point x="919" y="997" type="curve" smooth="yes"/>
      <point x="676" y="997"/>
      <point x="554" y="876"/>
      <point x="519" y="712" type="curve"/>
      <point x="442" y="712" type="line"/>
      <point x="510" y="541" type="line"/>
      <point x="551" y="611"/>
      <point x="615" y="671"/>
      <point x="738" y="671" type="curve" smooth="yes"/>
      <point x="902" y="671"/>
      <point x="934" y="570"/>
      <point x="934" y="468" type="curve" smooth="yes"/>
    </contour>
    <contour>
      <point x="118" y="0" type="line"/>
      <point x="515" y="0" type="line"/>
      <point x="515" y="600" type="line"/>
      <point x="506" y="600" type="line"/>
      <point x="512" y="959" type="line"/>
      <point x="512" y="1314" type="line"/>
      <point x="118" y="1314" type="line"/>
    </contour>
  </outline>
</glyph>
<glyph name="plusminus" format="2">
  <advance width="1342"/>
  <unicode hex="00B1"/>
  <outline>
    <contour>
      <point x="125" y="2" type="line"/>
      <point x="1217" y="2" type="line"/>
      <point x="1217" y="304" type="line"/>
      <point x="125" y="304" type="line"/>
    </contour>
    <contour>
      <point x="835" y="387" type="line"/>
      <point x="835" y="1207" type="line"/>
      <point x="507" y="1207" type="line"/>
      <point x="507" y="387" type="line"/>
    </contour>
    <contour>
      <point x="125" y="646" type="line"/>
      <point x="1217" y="646" type="line"/>
      <point x="1217" y="948" type="line"/>
      <point x="125" y="948" type="line"/>
    </contour>
  </outline>
</glyph>
<glyph name="Candrabindu_above.te" format="2">
  <unicode hex="0C00"/>
  <outline>
    <contour>
      <point x="-719" y="1202" type="curve" smooth="yes"/>
      <point x="-315" y="1202"/>
      <point x="-130" y="1420"/>
      <point x="-130" y="1648" type="curve" smooth="yes"/>
      <point x="-130" y="1661" type="line"/>
      <point x="-452" y="1661" type="line"/>
      <point x="-456" y="1545"/>
      <point x="-536" y="1472"/>
      <point x="-719" y="1472" type="curve" smooth="yes"/>
      <point x="-902" y="1472"/>
      <point x="-983" y="1545"/>
      <point x="-986" y="1661" type="curve"/>
      <point x="-1308" y="1661" type="line"/>
      <point x="-1308" y="1648" type="line" smooth="yes"/>
      <point x="-1308" y="1420"/>
      <point x="-1123" y="1202"/>
    </contour>
    <contour>
      <point x="-719" y="1568" type="curve" smooth="yes"/>
      <point x="-619" y="1568"/>
      <point x="-559" y="1613"/>
      <point x="-559" y="1702" type="curve" smooth="yes"/>
      <point x="-559" y="1791"/>
      <point x="-619" y="1832"/>
      <point x="-719" y="1832" type="curve" smooth="yes"/>
      <point x="-819" y="1832"/>
      <point x="-879" y="1791"/>
      <point x="-879" y="1702" type="curve" smooth="yes"/>
      <point x="-879" y="1613"/>
      <point x="-819" y="1568"/>
    </contour>
  </outline>
</glyph>
<glyph name="Candrabindu.te" format="2">
  <advance width="932"/>
  <unicode hex="0C01"/>
  <outline>
    <contour>
      <point x="784" y="-53" type="curve"/>
      <point x="820" y="-53" type="line"/>
      <point x="882" y="281" type="line"/>
      <point x="820" y="281" type="line"/>
      <point x="608" y="281"/>
      <point x="480" y="388"/>
      <point x="480" y="566" type="curve" smooth="yes"/>
      <point x="480" y="586" type="line" smooth="yes"/>
      <point x="480" y="766"/>
      <point x="608" y="871"/>
      <point x="820" y="871" type="curve"/>
      <point x="882" y="871" type="line"/>
      <point x="820" y="1205" type="line"/>
      <point x="784" y="1205" type="line"/>
      <point x="386" y="1205"/>
      <point x="90" y="984"/>
      <point x="90" y="580" type="curve" smooth="yes"/>
      <point x="90" y="562" type="line" smooth="yes"/>
      <point x="90" y="169"/>
      <point x="386" y="-53"/>
    </contour>
  </outline>
</glyph>
<glyph name="Visarga.te" format="2">
  <advance width="1037"/>
  <unicode hex="0C03"/>
  <outline>
    <contour>
      <point x="519" y="580" type="curve" smooth="yes"/>
      <point x="821" y="580"/>
      <point x="967" y="685"/>
      <point x="967" y="874" type="curve"/>
      <point x="967" y="881" type="line"/>
      <point x="967" y="1070"/>
      <point x="821" y="1175"/>
      <point x="519" y="1175" type="curve" smooth="yes"/>
      <point x="216" y="1175"/>
      <point x="70" y="1070"/>
      <point x="70" y="881" type="curve"/>
      <point x="70" y="874" type="line"/>
      <point x="70" y="685"/>
      <point x="216" y="580"/>
    </contour>
    <contour>
      <point x="519" y="-52" type="curve" smooth="yes"/>
      <point x="821" y="-52"/>
      <point x="967" y="53"/>
      <point x="967" y="242" type="curve"/>
      <point x="967" y="249" type="line"/>
      <point x="967" y="438"/>
      <point x="821" y="543"/>
      <point x="519" y="543" type="curve" smooth="yes"/>
      <point x="216" y="543"/>
      <point x="70" y="438"/>
      <point x="70" y="249" type="curve"/>
      <point x="70" y="242" type="line"/>
      <point x="70" y="53"/>
      <point x="216" y="-52"/>
    </contour>
    <contour>
      <point x="519" y="190" type="curve" smooth="yes"/>
      <point x="449" y="190"/>
      <point x="417" y="208"/>
      <point x="417" y="244" type="curve"/>
      <point x="417" y="247" type="line"/>
      <point x="417" y="283"/>
      <point x="449" y="301"/>
      <point x="519" y="301" type="curve" smooth="yes"/>
      <point x="588" y="301"/>
      <point x="620" y="283"/>
      <point x="620" y="247" type="curve"/>
      <point x="620" y="244" type="line"/>
      <point x="620" y="208"/>
      <point x="588" y="190"/>
    </contour>
    <contour>
      <point x="519" y="822" type="curve" smooth="yes"/>
      <point x="449" y="822"/>
      <point x="417" y="840"/>
      <point x="417" y="876" type="curve"/>
      <point x="417" y="879" type="line"/>
      <point x="417" y="915"/>
      <point x="449" y="933"/>
      <point x="519" y="933" type="curve" smooth="yes"/>
      <point x="588" y="933"/>
      <point x="620" y="915"/>
      <point x="620" y="879" type="curve"/>
      <point x="620" y="876" type="line"/>
      <point x="620" y="840"/>
      <point x="588" y="822"/>
    </contour>
  </outline>
</glyph>
<glyph name="vowelA.te" format="2">
  <advance width="2094"/>
  <unicode hex="0C05"/>
  <outline>
    <contour>
      <point x="1432" y="1173" type="curve" smooth="yes"/>
      <point x="1131" y="1173"/>
      <point x="976" y="1070"/>
      <point x="976" y="892" type="curve" smooth="yes"/>
      <point x="976" y="886" type="line" smooth="yes"/>
      <point x="976" y="799"/>
      <point x="1019" y="735"/>
      <point x="1117" y="701" type="curve"/>
      <point x="1117" y="692" type="line"/>
      <point x="697" y="696" type="line"/>
      <point x="759" y="404" type="line"/>
      <point x="1453" y="422" type="line"/>
      <point x="1453" y="682" type="line"/>
      <point x="1359" y="694" type="line"/>
      <point x="1327" y="708"/>
      <point x="1313" y="730"/>
      <point x="1313" y="757" type="curve"/>
      <point x="1313" y="760" type="line"/>
      <point x="1313" y="810"/>
      <point x="1352" y="840"/>
      <point x="1436" y="840" type="curve" smooth="yes"/>
      <point x="1555" y="840"/>
      <point x="1614" y="776"/>
      <point x="1614" y="627" type="curve" smooth="yes"/>
      <point x="1614" y="623" type="line" smooth="yes"/>
      <point x="1614" y="408"/>
      <point x="1437" y="290"/>
      <point x="1048" y="290" type="curve" smooth="yes"/>
      <point x="663" y="290"/>
      <point x="480" y="392"/>
      <point x="480" y="584" type="curve" smooth="yes"/>
      <point x="480" y="589" type="line" smooth="yes"/>
      <point x="480" y="733"/>
      <point x="587" y="815"/>
      <point x="791" y="815" type="curve" smooth="yes"/>
      <point x="806" y="815" type="line"/>
      <point x="743" y="1150" type="line"/>
      <point x="717" y="1150" type="line" smooth="yes"/>
      <point x="325" y="1150"/>
      <point x="90" y="938"/>
      <point x="90" y="587" type="curve" smooth="yes"/>
      <point x="90" y="582" type="line" smooth="yes"/>
      <point x="90" y="174"/>
      <point x="409" y="-50"/>
      <point x="1048" y="-50" type="curve" smooth="yes"/>
      <point x="1685" y="-50"/>
      <point x="2004" y="188"/>
      <point x="2004" y="607" type="curve" smooth="yes"/>
      <point x="2004" y="612" type="line" smooth="yes"/>
      <point x="2004" y="981"/>
      <point x="1809" y="1173"/>
    </contour>
  </outline>
</glyph>
<glyph name="vowelAa.te" format="2">
  <advance width="2094"/>
  <unicode hex="0C06"/>
  <outline>
    <contour>
      <point x="1048" y="-50" type="curve" smooth="yes"/>
      <point x="1685" y="-50"/>
      <point x="2004" y="187"/>
      <point x="2004" y="612" type="curve" smooth="yes"/>
      <point x="2004" y="696" type="line"/>
      <point x="1777" y="692" type="line"/>
      <point x="1777" y="701" type="line"/>
      <point x="1879" y="735"/>
      <point x="1923" y="799"/>
      <point x="1923" y="886" type="curve" smooth="yes"/>
      <point x="1923" y="892" type="line" smooth="yes"/>
      <point x="1923" y="1070"/>
      <point x="1758" y="1173"/>
      <point x="1432" y="1173" type="curve" smooth="yes"/>
      <point x="1108" y="1173"/>
      <point x="943" y="1070"/>
      <point x="943" y="892" type="curve" smooth="yes"/>
      <point x="943" y="886" type="line" smooth="yes"/>
      <point x="943" y="799"/>
      <point x="987" y="735"/>
      <point x="1087" y="701" type="curve"/>
      <point x="1087" y="692" type="line"/>
      <point x="697" y="696" type="line"/>
      <point x="759" y="404" type="line"/>
      <point x="1553" y="431" type="line"/>
      <point x="1553" y="422" type="line"/>
      <point x="1468" y="335"/>
      <point x="1299" y="290"/>
      <point x="1048" y="290" type="curve" smooth="yes"/>
      <point x="663" y="290"/>
      <point x="480" y="393"/>
      <point x="480" y="584" type="curve" smooth="yes"/>
      <point x="480" y="589" type="line" smooth="yes"/>
      <point x="480" y="733"/>
      <point x="587" y="815"/>
      <point x="791" y="815" type="curve" smooth="yes"/>
      <point x="806" y="815" type="line"/>
      <point x="743" y="1150" type="line"/>
      <point x="717" y="1150" type="line" smooth="yes"/>
      <point x="325" y="1150"/>
      <point x="90" y="938"/>
      <point x="90" y="587" type="curve" smooth="yes"/>
      <point x="90" y="582" type="line" smooth="yes"/>
      <point x="90" y="171"/>
      <point x="409" y="-50"/>
    </contour>
    <contour>
      <point x="1334" y="691" type="line"/>
      <point x="1299" y="705"/>
      <point x="1284" y="728"/>
      <point x="1284" y="757" type="curve" smooth="yes"/>
      <point x="1284" y="760" type="line" smooth="yes"/>
      <point x="1284" y="810"/>
      <point x="1331" y="840"/>
      <point x="1430" y="840" type="curve" smooth="yes"/>
      <point x="1530" y="840"/>
      <point x="1576" y="810"/>
      <point x="1576" y="760" type="curve" smooth="yes"/>
      <point x="1576" y="757" type="line" smooth="yes"/>
      <point x="1576" y="728"/>
      <point x="1562" y="705"/>
      <point x="1526" y="691" type="curve"/>
    </contour>
  </outline>
</glyph>
<glyph name="vowelI.te" format="2">
  <advance width="1915"/>
  <unicode hex="0C07"/>
  <outline>
    <contour>
      <point x="882" y="-39" type="curve" smooth="yes"/>
      <point x="1435" y="-39"/>
      <point x="1824" y="201"/>
      <point x="1824" y="660" type="curve" smooth="yes"/>
      <point x="1824" y="671" type="line" smooth="yes"/>
      <point x="1824" y="1004"/>
      <point x="1646" y="1173"/>
      <point x="1322" y="1173" type="curve" smooth="yes"/>
      <point x="1082" y="1173"/>
      <point x="972" y="1080"/>
      <point x="938" y="935" type="curve"/>
      <point x="933" y="935" type="line"/>
      <point x="900" y="1080"/>
      <point x="776" y="1173"/>
      <point x="547" y="1173" type="curve" smooth="yes"/>
      <point x="234" y="1173"/>
      <point x="70" y="1020"/>
      <point x="70" y="755" type="curve" smooth="yes"/>
      <point x="70" y="751" type="line" smooth="yes"/>
      <point x="70" y="735"/>
      <point x="72" y="701"/>
      <point x="79" y="664" type="curve"/>
      <point x="456" y="664" type="line"/>
      <point x="453" y="682"/>
      <point x="451" y="692"/>
      <point x="451" y="708" type="curve" smooth="yes"/>
      <point x="451" y="710" type="line" smooth="yes"/>
      <point x="451" y="792"/>
      <point x="492" y="840"/>
      <point x="601" y="840" type="curve" smooth="yes"/>
      <point x="709" y="840"/>
      <point x="742" y="797"/>
      <point x="754" y="740" type="curve" smooth="yes"/>
      <point x="761" y="708" type="line"/>
      <point x="1110" y="708" type="line"/>
      <point x="1117" y="740" type="line" smooth="yes"/>
      <point x="1130" y="801"/>
      <point x="1165" y="840"/>
      <point x="1266" y="840" type="curve" smooth="yes"/>
      <point x="1382" y="840"/>
      <point x="1434" y="780"/>
      <point x="1434" y="639" type="curve" smooth="yes"/>
      <point x="1434" y="630" type="line" smooth="yes"/>
      <point x="1434" y="545"/>
      <point x="1416" y="477"/>
      <point x="1375" y="422" type="curve"/>
      <point x="1325" y="360" type="line"/>
      <point x="1231" y="299"/>
      <point x="1092" y="276"/>
      <point x="852" y="276" type="curve" smooth="yes"/>
      <point x="670" y="276"/>
      <point x="592" y="285"/>
      <point x="592" y="321" type="curve" smooth="yes"/>
      <point x="592" y="322" type="line" smooth="yes"/>
      <point x="592" y="363"/>
      <point x="670" y="368"/>
      <point x="853" y="368" type="curve" smooth="yes"/>
      <point x="1103" y="368"/>
      <point x="1272" y="319"/>
      <point x="1345" y="224" type="curve"/>
      <point x="1387" y="164" type="line"/>
      <point x="1428" y="82"/>
      <point x="1450" y="-16"/>
      <point x="1462" y="-123" type="curve"/>
      <point x="1845" y="-123" type="line"/>
      <point x="1802" y="66"/>
      <point x="1726" y="201"/>
      <point x="1626" y="326" type="curve"/>
      <point x="1562" y="392" type="line"/>
      <point x="1377" y="580"/>
      <point x="1163" y="662"/>
      <point x="839" y="662" type="curve" smooth="yes"/>
      <point x="421" y="662"/>
      <point x="214" y="557"/>
      <point x="214" y="319" type="curve" smooth="yes"/>
      <point x="214" y="308" type="line" smooth="yes"/>
      <point x="214" y="68"/>
      <point x="432" y="-39"/>
    </contour>
  </outline>
</glyph>
<glyph name="vowelIi.te" format="2">
  <advance width="2904"/>
  <unicode hex="0C08"/>
  <outline>
    <contour>
      <point x="2298" y="-48" type="curve" smooth="yes"/>
      <point x="2640" y="-48"/>
      <point x="2814" y="89"/>
      <point x="2814" y="317" type="curve" smooth="yes"/>
      <point x="2814" y="326" type="line" smooth="yes"/>
      <point x="2814" y="498"/>
      <point x="2688" y="612"/>
      <point x="2474" y="644" type="curve"/>
      <point x="2449" y="659"/>
      <point x="2419" y="696"/>
      <point x="2392" y="696" type="curve"/>
      <point x="1533" y="696" type="line"/>
      <point x="1485" y="689" type="line"/>
      <point x="402" y="689" type="line"/>
      <point x="363" y="696" type="line"/>
      <point x="55" y="696" type="line"/>
      <point x="55" y="429" type="line"/>
      <point x="374" y="429" type="line"/>
      <point x="406" y="438" type="line"/>
      <point x="1477" y="438" type="line"/>
      <point x="1529" y="429" type="line"/>
      <point x="1953" y="429" type="line"/>
      <point x="1855" y="393"/>
      <point x="1805" y="328"/>
      <point x="1805" y="223" type="curve"/>
      <point x="1805" y="221" type="line"/>
      <point x="1805" y="55"/>
      <point x="1972" y="-48"/>
    </contour>
    <contour>
      <point x="959" y="-50" type="curve" smooth="yes"/>
      <point x="1454" y="-50"/>
      <point x="1714" y="157"/>
      <point x="1714" y="538" type="curve" smooth="yes"/>
      <point x="1714" y="550" type="line" smooth="yes"/>
      <point x="1714" y="924"/>
      <point x="1454" y="1132"/>
      <point x="959" y="1132" type="curve" smooth="yes"/>
      <point x="465" y="1132"/>
      <point x="205" y="924"/>
      <point x="205" y="550" type="curve" smooth="yes"/>
      <point x="205" y="538" type="line" smooth="yes"/>
      <point x="205" y="157"/>
      <point x="465" y="-50"/>
    </contour>
    <contour>
      <point x="959" y="278" type="curve" smooth="yes"/>
      <point x="700" y="278"/>
      <point x="566" y="374"/>
      <point x="566" y="557" type="curve" smooth="yes"/>
      <point x="566" y="566" type="line" smooth="yes"/>
      <point x="566" y="746"/>
      <point x="700" y="846"/>
      <point x="959" y="846" type="curve" smooth="yes"/>
      <point x="1219" y="846"/>
      <point x="1353" y="746"/>
      <point x="1353" y="566" type="curve" smooth="yes"/>
      <point x="1353" y="557" type="line" smooth="yes"/>
      <point x="1353" y="374"/>
      <point x="1219" y="278"/>
    </contour>
    <contour>
      <point x="2303" y="279" type="curve" smooth="yes"/>
      <point x="2200" y="279"/>
      <point x="2148" y="306"/>
      <point x="2148" y="358" type="curve"/>
      <point x="2148" y="360" type="line"/>
      <point x="2148" y="395"/>
      <point x="2179" y="420"/>
      <point x="2245" y="429" type="curve"/>
      <point x="2362" y="429" type="line"/>
      <point x="2428" y="420"/>
      <point x="2458" y="395"/>
      <point x="2458" y="360" type="curve"/>
      <point x="2458" y="358" type="line"/>
      <point x="2458" y="306"/>
      <point x="2407" y="279"/>
    </contour>
    <contour>
      <point x="854" y="1015" type="curve"/>
      <point x="1113" y="1015" type="line"/>
      <point x="1292" y="1015"/>
      <point x="1375" y="1105"/>
      <point x="1431" y="1166" type="curve" smooth="yes"/>
      <point x="1511" y="1253" type="line" smooth="yes"/>
      <point x="1552" y="1298"/>
      <point x="1614" y="1323"/>
      <point x="1693" y="1323" type="curve" smooth="yes"/>
      <point x="1808" y="1323" type="line"/>
      <point x="1775" y="1663" type="line"/>
      <point x="1645" y="1663" type="line" smooth="yes"/>
      <point x="1481" y="1663"/>
      <point x="1363" y="1608"/>
      <point x="1271" y="1495" type="curve" smooth="yes"/>
      <point x="1049" y="1224" type="line" smooth="yes"/>
      <point x="1006" y="1171"/>
      <point x="972" y="1150"/>
      <point x="929" y="1150" type="curve" smooth="yes"/>
      <point x="922" y="1150" type="line" smooth="yes"/>
      <point x="874" y="1150"/>
      <point x="848" y="1177"/>
      <point x="826" y="1234" type="curve" smooth="yes"/>
      <point x="764" y="1396" type="line"/>
      <point x="363" y="1396" type="line"/>
      <point x="427" y="1207" type="line" smooth="yes"/>
      <point x="472" y="1073"/>
      <point x="594" y="1015"/>
    </contour>
    <contour>
      <point x="2464" y="589" type="line"/>
      <point x="2672" y="616"/>
      <point x="2807" y="708"/>
      <point x="2807" y="870" type="curve" smooth="yes"/>
      <point x="2807" y="878" type="line" smooth="yes"/>
      <point x="2807" y="1070"/>
      <point x="2638" y="1173"/>
      <point x="2341" y="1173" type="curve" smooth="yes"/>
      <point x="2205" y="1173"/>
      <point x="2106" y="1162"/>
      <point x="1951" y="1121" type="curve"/>
      <point x="1915" y="810" type="line"/>
      <point x="2010" y="842"/>
      <point x="2116" y="858"/>
      <point x="2234" y="858" type="curve" smooth="yes"/>
      <point x="2375" y="858"/>
      <point x="2428" y="828"/>
      <point x="2428" y="769" type="curve" smooth="yes"/>
      <point x="2428" y="767" type="line" smooth="yes"/>
      <point x="2428" y="726"/>
      <point x="2399" y="701"/>
      <point x="2351" y="692" type="curve"/>
    </contour>
  </outline>
</glyph>
<glyph name="vowelU.te" format="2">
  <advance width="2163"/>
  <unicode hex="0C09"/>
  <outline>
    <contour>
      <point x="698" y="-48" type="curve" smooth="yes"/>
      <point x="934" y="-48"/>
      <point x="1073" y="48"/>
      <point x="1097" y="224" type="curve"/>
      <point x="1107" y="224" type="line"/>
      <point x="1134" y="48"/>
      <point x="1278" y="-48"/>
      <point x="1522" y="-48" type="curve" smooth="yes"/>
      <point x="1821" y="-48"/>
      <point x="1985" y="96"/>
      <point x="1985" y="358" type="curve" smooth="yes"/>
      <point x="1985" y="365" type="line" smooth="yes"/>
      <point x="1985" y="440"/>
      <point x="1960" y="504"/>
      <point x="1930" y="550" type="curve"/>
      <point x="1593" y="550" type="line"/>
      <point x="1614" y="513"/>
      <point x="1627" y="465"/>
      <point x="1627" y="424" type="curve"/>
      <point x="1627" y="420" type="line"/>
      <point x="1627" y="333"/>
      <point x="1572" y="290"/>
      <point x="1460" y="290" type="curve" smooth="yes"/>
      <point x="1348" y="290"/>
      <point x="1284" y="336"/>
      <point x="1271" y="427" type="curve" smooth="yes"/>
      <point x="1264" y="475" type="line"/>
      <point x="940" y="475" type="line"/>
      <point x="933" y="427" type="line" smooth="yes"/>
      <point x="920" y="336"/>
      <point x="859" y="290"/>
      <point x="753" y="290" type="curve" smooth="yes"/>
      <point x="627" y="290"/>
      <point x="562" y="356"/>
      <point x="562" y="493" type="curve" smooth="yes"/>
      <point x="562" y="511" type="line" smooth="yes"/>
      <point x="562" y="719"/>
      <point x="748" y="831"/>
      <point x="1111" y="831" type="curve" smooth="yes"/>
      <point x="1469" y="831"/>
      <point x="1634" y="790"/>
      <point x="1792" y="740" type="curve"/>
      <point x="1734" y="1066" type="line"/>
      <point x="1574" y="1121"/>
      <point x="1365" y="1155"/>
      <point x="1111" y="1155" type="curve" smooth="yes"/>
      <point x="516" y="1155"/>
      <point x="205" y="922"/>
      <point x="205" y="482" type="curve" smooth="yes"/>
      <point x="205" y="465" type="line" smooth="yes"/>
      <point x="205" y="134"/>
      <point x="379" y="-48"/>
    </contour>
    <contour>
      <point x="55" y="429" type="line"/>
      <point x="2109" y="429" type="line"/>
      <point x="2109" y="696" type="line"/>
      <point x="55" y="696" type="line"/>
    </contour>
    <contour>
      <point x="1013" y="1047" type="curve"/>
      <point x="1180" y="1047" type="line"/>
      <point x="1242" y="1169"/>
      <point x="1287" y="1285"/>
      <point x="1287" y="1353" type="curve" smooth="yes"/>
      <point x="1287" y="1442"/>
      <point x="1258" y="1486"/>
      <point x="1242" y="1511" type="curve"/>
      <point x="951" y="1511" type="line"/>
      <point x="935" y="1486"/>
      <point x="906" y="1442"/>
      <point x="906" y="1353" type="curve" smooth="yes"/>
      <point x="906" y="1285"/>
      <point x="947" y="1169"/>
    </contour>
  </outline>
</glyph>
<glyph name="vowelUu.te" format="2">
  <advance width="3207"/>
  <unicode hex="0C0A"/>
  <outline>
    <contour>
      <point x="2601" y="-48" type="curve" smooth="yes"/>
      <point x="2942" y="-48"/>
      <point x="3117" y="89"/>
      <point x="3117" y="317" type="curve" smooth="yes"/>
      <point x="3117" y="326" type="line" smooth="yes"/>
      <point x="3117" y="498"/>
      <point x="2990" y="612"/>
      <point x="2777" y="644" type="curve"/>
      <point x="2752" y="659"/>
      <point x="2722" y="696"/>
      <point x="2695" y="696" type="curve"/>
      <point x="55" y="696" type="line"/>
      <point x="55" y="429" type="line"/>
      <point x="2255" y="429" type="line"/>
      <point x="2157" y="393"/>
      <point x="2108" y="328"/>
      <point x="2108" y="223" type="curve"/>
      <point x="2108" y="221" type="line"/>
      <point x="2108" y="55"/>
      <point x="2275" y="-48"/>
    </contour>
    <contour>
      <point x="698" y="-48" type="curve" smooth="yes"/>
      <point x="934" y="-48"/>
      <point x="1073" y="48"/>
      <point x="1097" y="224" type="curve"/>
      <point x="1107" y="224" type="line"/>
      <point x="1134" y="48"/>
      <point x="1278" y="-48"/>
      <point x="1522" y="-48" type="curve" smooth="yes"/>
      <point x="1821" y="-48"/>
      <point x="1985" y="96"/>
      <point x="1985" y="358" type="curve" smooth="yes"/>
      <point x="1985" y="365" type="line" smooth="yes"/>
      <point x="1985" y="440"/>
      <point x="1960" y="504"/>
      <point x="1930" y="550" type="curve"/>
      <point x="1593" y="550" type="line"/>
      <point x="1614" y="513"/>
      <point x="1627" y="465"/>
      <point x="1627" y="424" type="curve"/>
      <point x="1627" y="420" type="line"/>
      <point x="1627" y="333"/>
      <point x="1572" y="290"/>
      <point x="1460" y="290" type="curve" smooth="yes"/>
      <point x="1348" y="290"/>
      <point x="1284" y="336"/>
      <point x="1271" y="427" type="curve" smooth="yes"/>
      <point x="1264" y="475" type="line"/>
      <point x="940" y="475" type="line"/>
      <point x="933" y="427" type="line" smooth="yes"/>
      <point x="920" y="336"/>
      <point x="859" y="290"/>
      <point x="753" y="290" type="curve" smooth="yes"/>
      <point x="627" y="290"/>
      <point x="562" y="356"/>
      <point x="562" y="493" type="curve" smooth="yes"/>
      <point x="562" y="511" type="line" smooth="yes"/>
      <point x="562" y="719"/>
      <point x="748" y="831"/>
      <point x="1111" y="831" type="curve" smooth="yes"/>
      <point x="1469" y="831"/>
      <point x="1634" y="790"/>
      <point x="1792" y="740" type="curve"/>
      <point x="1734" y="1066" type="line"/>
      <point x="1574" y="1121"/>
      <point x="1365" y="1155"/>
      <point x="1111" y="1155" type="curve" smooth="yes"/>
      <point x="516" y="1155"/>
      <point x="205" y="922"/>
      <point x="205" y="482" type="curve" smooth="yes"/>
      <point x="205" y="465" type="line" smooth="yes"/>
      <point x="205" y="134"/>
      <point x="379" y="-48"/>
    </contour>
    <contour>
      <point x="774" y="1047" type="curve"/>
      <point x="942" y="1047" type="line"/>
      <point x="1004" y="1169"/>
      <point x="1048" y="1285"/>
      <point x="1048" y="1353" type="curve" smooth="yes"/>
      <point x="1048" y="1442"/>
      <point x="1020" y="1486"/>
      <point x="1004" y="1511" type="curve"/>
      <point x="712" y="1511" type="line"/>
      <point x="696" y="1486"/>
      <point x="668" y="1442"/>
      <point x="668" y="1353" type="curve" smooth="yes"/>
      <point x="668" y="1285"/>
      <point x="708" y="1169"/>
    </contour>
    <contour>
      <point x="1253" y="1047" type="curve"/>
      <point x="1420" y="1047" type="line"/>
      <point x="1483" y="1169"/>
      <point x="1527" y="1285"/>
      <point x="1527" y="1353" type="curve" smooth="yes"/>
      <point x="1527" y="1442"/>
      <point x="1499" y="1486"/>
      <point x="1483" y="1511" type="curve"/>
      <point x="1191" y="1511" type="line"/>
      <point x="1175" y="1486"/>
      <point x="1146" y="1442"/>
      <point x="1146" y="1353" type="curve" smooth="yes"/>
      <point x="1146" y="1285"/>
      <point x="1187" y="1169"/>
    </contour>
    <contour>
      <point x="2606" y="279" type="curve" smooth="yes"/>
      <point x="2503" y="279"/>
      <point x="2451" y="306"/>
      <point x="2451" y="358" type="curve"/>
      <point x="2451" y="360" type="line"/>
      <point x="2451" y="395"/>
      <point x="2481" y="420"/>
      <point x="2547" y="429" type="curve"/>
      <point x="2665" y="429" type="line"/>
      <point x="2731" y="420"/>
      <point x="2761" y="395"/>
      <point x="2761" y="360" type="curve"/>
      <point x="2761" y="358" type="line"/>
      <point x="2761" y="306"/>
      <point x="2709" y="279"/>
    </contour>
    <contour>
      <point x="2766" y="589" type="line"/>
      <point x="2974" y="616"/>
      <point x="3110" y="708"/>
      <point x="3110" y="870" type="curve" smooth="yes"/>
      <point x="3110" y="878" type="line" smooth="yes"/>
      <point x="3110" y="1070"/>
      <point x="2941" y="1173"/>
      <point x="2643" y="1173" type="curve" smooth="yes"/>
      <point x="2508" y="1173"/>
      <point x="2408" y="1162"/>
      <point x="2253" y="1121" type="curve"/>
      <point x="2218" y="810" type="line"/>
      <point x="2312" y="842"/>
      <point x="2419" y="858"/>
      <point x="2537" y="858" type="curve" smooth="yes"/>
      <point x="2677" y="858"/>
      <point x="2731" y="828"/>
      <point x="2731" y="769" type="curve"/>
      <point x="2731" y="767" type="line"/>
      <point x="2731" y="726"/>
      <point x="2702" y="701"/>
      <point x="2654" y="692" type="curve"/>
    </contour>
  </outline>
</glyph>
<glyph name="vowelVocalicL.te" format="2">
  <advance width="2499"/>
  <unicode hex="0C0C"/>
  <outline>
    <contour>
      <point x="1533" y="-50" type="curve" smooth="yes"/>
      <point x="2110" y="-50"/>
      <point x="2409" y="174"/>
      <point x="2409" y="589" type="curve" smooth="yes"/>
      <point x="2409" y="595" type="line" smooth="yes"/>
      <point x="2409" y="942"/>
      <point x="2203" y="1150"/>
      <point x="1854" y="1150" type="curve" smooth="yes"/>
      <point x="1827" y="1150" type="line"/>
      <point x="1765" y="815" type="line"/>
      <point x="1779" y="815" type="line" smooth="yes"/>
      <point x="1936" y="815"/>
      <point x="2019" y="735"/>
      <point x="2019" y="596" type="curve" smooth="yes"/>
      <point x="2019" y="591" type="line" smooth="yes"/>
      <point x="2019" y="392"/>
      <point x="1856" y="281"/>
      <point x="1532" y="281" type="curve" smooth="yes"/>
      <point x="1311" y="281"/>
      <point x="1201" y="308"/>
      <point x="1201" y="360" type="curve"/>
      <point x="1201" y="361" type="line"/>
      <point x="1201" y="396"/>
      <point x="1236" y="415"/>
      <point x="1412" y="441" type="curve" smooth="yes"/>
      <point x="1708" y="486"/>
      <point x="1806" y="594"/>
      <point x="1806" y="797" type="curve"/>
      <point x="1806" y="801" type="line"/>
      <point x="1806" y="1047"/>
      <point x="1638" y="1173"/>
      <point x="1334" y="1173" type="curve" smooth="yes"/>
      <point x="1087" y="1173"/>
      <point x="973" y="1080"/>
      <point x="938" y="935" type="curve"/>
      <point x="933" y="935" type="line"/>
      <point x="900" y="1080"/>
      <point x="776" y="1173"/>
      <point x="547" y="1173" type="curve" smooth="yes"/>
      <point x="234" y="1173"/>
      <point x="70" y="1020"/>
      <point x="70" y="755" type="curve"/>
      <point x="70" y="751" type="line"/>
      <point x="70" y="735"/>
      <point x="72" y="701"/>
      <point x="79" y="664" type="curve"/>
      <point x="456" y="664" type="line"/>
      <point x="453" y="682"/>
      <point x="451" y="692"/>
      <point x="451" y="708" type="curve"/>
      <point x="451" y="710" type="line"/>
      <point x="451" y="792"/>
      <point x="492" y="840"/>
      <point x="601" y="840" type="curve" smooth="yes"/>
      <point x="709" y="840"/>
      <point x="741" y="799"/>
      <point x="754" y="740" type="curve" smooth="yes"/>
      <point x="761" y="708" type="line"/>
      <point x="1110" y="708" type="line"/>
      <point x="1117" y="740" type="line" smooth="yes"/>
      <point x="1130" y="799"/>
      <point x="1170" y="845"/>
      <point x="1284" y="845" type="curve" smooth="yes"/>
      <point x="1389" y="845"/>
      <point x="1434" y="817"/>
      <point x="1434" y="772" type="curve" smooth="yes"/>
      <point x="1434" y="768" type="line" smooth="yes"/>
      <point x="1434" y="722"/>
      <point x="1396" y="698"/>
      <point x="1240" y="673" type="curve" smooth="yes"/>
      <point x="948" y="627"/>
      <point x="804" y="545"/>
      <point x="804" y="336" type="curve"/>
      <point x="804" y="333" type="line"/>
      <point x="804" y="84"/>
      <point x="1072" y="-50"/>
    </contour>
  </outline>
</glyph>
<glyph name="vowelE.te" format="2">
  <advance width="1921"/>
  <unicode hex="0C0E"/>
  <outline>
    <contour>
      <point x="505" y="-48" type="curve" smooth="yes"/>
      <point x="732" y="-48"/>
      <point x="866" y="45"/>
      <point x="891" y="206" type="curve"/>
      <point x="901" y="206" type="line"/>
      <point x="946" y="43"/>
      <point x="1076" y="-48"/>
      <point x="1304" y="-48" type="curve" smooth="yes"/>
      <point x="1649" y="-48"/>
      <point x="1831" y="178"/>
      <point x="1831" y="580" type="curve" smooth="yes"/>
      <point x="1831" y="596" type="line" smooth="yes"/>
      <point x="1831" y="1093"/>
      <point x="1537" y="1381"/>
      <point x="990" y="1381" type="curve" smooth="yes"/>
      <point x="866" y="1381" type="line"/>
      <point x="804" y="1047" type="line"/>
      <point x="916" y="1047" type="line" smooth="yes"/>
      <point x="1259" y="1047"/>
      <point x="1441" y="888"/>
      <point x="1441" y="603" type="curve" smooth="yes"/>
      <point x="1441" y="591" type="line" smooth="yes"/>
      <point x="1441" y="404"/>
      <point x="1366" y="301"/>
      <point x="1222" y="301" type="curve" smooth="yes"/>
      <point x="1106" y="301"/>
      <point x="1037" y="353"/>
      <point x="1006" y="456" type="curve" smooth="yes"/>
      <point x="1003" y="466" type="line" smooth="yes"/>
      <point x="944" y="664"/>
      <point x="783" y="758"/>
      <point x="544" y="758" type="curve" smooth="yes"/>
      <point x="243" y="758"/>
      <point x="70" y="609"/>
      <point x="70" y="349" type="curve" smooth="yes"/>
      <point x="70" y="340" type="line" smooth="yes"/>
      <point x="70" y="91"/>
      <point x="225" y="-48"/>
    </contour>
    <contour>
      <point x="547" y="290" type="curve" smooth="yes"/>
      <point x="467" y="290"/>
      <point x="423" y="315"/>
      <point x="423" y="361" type="curve" smooth="yes"/>
      <point x="423" y="365" type="line" smooth="yes"/>
      <point x="423" y="411"/>
      <point x="467" y="436"/>
      <point x="547" y="436" type="curve" smooth="yes"/>
      <point x="627" y="436"/>
      <point x="672" y="411"/>
      <point x="672" y="365" type="curve" smooth="yes"/>
      <point x="672" y="361" type="line" smooth="yes"/>
      <point x="672" y="315"/>
      <point x="627" y="290"/>
    </contour>
  </outline>
</glyph>
<glyph name="vowelEe.te" format="2">
  <advance width="1921"/>
  <unicode hex="0C0F"/>
  <outline>
    <contour>
      <point x="1061" y="1857" type="line"/>
      <point x="1089" y="1509" type="line"/>
      <point x="962" y="1509" type="line" smooth="yes"/>
      <point x="729" y="1509"/>
      <point x="621" y="1401"/>
      <point x="621" y="1158" type="curve" smooth="yes"/>
      <point x="621" y="1032" type="line"/>
      <point x="235" y="1032" type="line"/>
      <point x="235" y="1169" type="line" smooth="yes"/>
      <point x="235" y="1617"/>
      <point x="474" y="1857"/>
      <point x="910" y="1857" type="curve" smooth="yes"/>
    </contour>
    <component base="vowelE.te"/>
  </outline>
</glyph>
<glyph name="vowelAi.te" format="2">
  <advance width="1915"/>
  <unicode hex="0C10"/>
  <outline>
    <contour>
      <point x="501" y="-48" type="curve" smooth="yes"/>
      <point x="727" y="-48"/>
      <point x="859" y="39"/>
      <point x="884" y="201" type="curve"/>
      <point x="894" y="201" type="line"/>
      <point x="939" y="37"/>
      <point x="1069" y="-48"/>
      <point x="1298" y="-48" type="curve" smooth="yes"/>
      <point x="1642" y="-48"/>
      <point x="1825" y="173"/>
      <point x="1825" y="571" type="curve" smooth="yes"/>
      <point x="1825" y="582" type="line" smooth="yes"/>
      <point x="1825" y="974"/>
      <point x="1646" y="1173"/>
      <point x="1322" y="1173" type="curve" smooth="yes"/>
      <point x="1082" y="1173"/>
      <point x="971" y="1080"/>
      <point x="937" y="935" type="curve"/>
      <point x="932" y="935" type="line"/>
      <point x="899" y="1080"/>
      <point x="776" y="1173"/>
      <point x="547" y="1173" type="curve" smooth="yes"/>
      <point x="234" y="1173"/>
      <point x="70" y="1020"/>
      <point x="70" y="755" type="curve"/>
      <point x="70" y="751" type="line"/>
      <point x="70" y="737"/>
      <point x="72" y="707"/>
      <point x="77" y="675" type="curve"/>
      <point x="455" y="675" type="line"/>
      <point x="453" y="689"/>
      <point x="451" y="696"/>
      <point x="451" y="708" type="curve"/>
      <point x="451" y="710" type="line"/>
      <point x="451" y="792"/>
      <point x="492" y="840"/>
      <point x="601" y="840" type="curve" smooth="yes"/>
      <point x="704" y="840"/>
      <point x="739" y="801"/>
      <point x="754" y="740" type="curve"/>
      <point x="757" y="723" type="line"/>
      <point x="1113" y="723" type="line"/>
      <point x="1117" y="740" type="line"/>
      <point x="1131" y="801"/>
      <point x="1165" y="840"/>
      <point x="1266" y="840" type="curve" smooth="yes"/>
      <point x="1382" y="840"/>
      <point x="1435" y="764"/>
      <point x="1435" y="586" type="curve" smooth="yes"/>
      <point x="1435" y="575" type="line" smooth="yes"/>
      <point x="1435" y="397"/>
      <point x="1361" y="301"/>
      <point x="1220" y="301" type="curve" smooth="yes"/>
      <point x="1103" y="301"/>
      <point x="1044" y="347"/>
      <point x="1003" y="440" type="curve" smooth="yes"/>
      <point x="999" y="449" type="line" smooth="yes"/>
      <point x="931" y="602"/>
      <point x="805" y="712"/>
      <point x="542" y="712" type="curve" smooth="yes"/>
      <point x="243" y="712"/>
      <point x="70" y="571"/>
      <point x="70" y="329" type="curve" smooth="yes"/>
      <point x="70" y="320" type="line" smooth="yes"/>
      <point x="70" y="82"/>
      <point x="225" y="-48"/>
    </contour>
    <contour>
      <point x="542" y="274" type="curve" smooth="yes"/>
      <point x="464" y="274"/>
      <point x="419" y="299"/>
      <point x="419" y="345" type="curve" smooth="yes"/>
      <point x="419" y="349" type="line" smooth="yes"/>
      <point x="419" y="395"/>
      <point x="464" y="420"/>
      <point x="542" y="420" type="curve" smooth="yes"/>
      <point x="620" y="420"/>
      <point x="665" y="395"/>
      <point x="665" y="349" type="curve" smooth="yes"/>
      <point x="665" y="345" type="line" smooth="yes"/>
      <point x="665" y="299"/>
      <point x="620" y="274"/>
    </contour>
  </outline>
</glyph>
<glyph name="vowelO.te" format="2">
  <advance width="1999"/>
  <unicode hex="0C12"/>
  <outline>
    <contour>
      <point x="584" y="-48" type="curve" smooth="yes"/>
      <point x="837" y="-48"/>
      <point x="984" y="48"/>
      <point x="1013" y="221" type="curve"/>
      <point x="1024" y="221" type="line"/>
      <point x="1052" y="48"/>
      <point x="1196" y="-48"/>
      <point x="1449" y="-48" type="curve" smooth="yes"/>
      <point x="1755" y="-48"/>
      <point x="1919" y="98"/>
      <point x="1919" y="365" type="curve" smooth="yes"/>
      <point x="1919" y="370" type="line" smooth="yes"/>
      <point x="1919" y="445"/>
      <point x="1901" y="506"/>
      <point x="1873" y="564" type="curve"/>
      <point x="1508" y="564" type="line"/>
      <point x="1522" y="536"/>
      <point x="1533" y="497"/>
      <point x="1533" y="457" type="curve" smooth="yes"/>
      <point x="1533" y="454" type="line" smooth="yes"/>
      <point x="1533" y="356"/>
      <point x="1476" y="308"/>
      <point x="1363" y="308" type="curve" smooth="yes"/>
      <point x="1266" y="308"/>
      <point x="1213" y="354"/>
      <point x="1202" y="441" type="curve" smooth="yes"/>
      <point x="1197" y="482" type="line"/>
      <point x="840" y="482" type="line"/>
      <point x="835" y="440" type="line" smooth="yes"/>
      <point x="824" y="345"/>
      <point x="750" y="294"/>
      <point x="628" y="294" type="curve" smooth="yes"/>
      <point x="529" y="294"/>
      <point x="475" y="317"/>
      <point x="475" y="358" type="curve" smooth="yes"/>
      <point x="475" y="360" type="line" smooth="yes"/>
      <point x="475" y="400"/>
      <point x="509" y="422"/>
      <point x="691" y="468" type="curve" smooth="yes"/>
      <point x="992" y="544"/>
      <point x="1068" y="659"/>
      <point x="1068" y="817" type="curve" smooth="yes"/>
      <point x="1068" y="821" type="line" smooth="yes"/>
      <point x="1068" y="1052"/>
      <point x="895" y="1173"/>
      <point x="582" y="1173" type="curve" smooth="yes"/>
      <point x="272" y="1173"/>
      <point x="107" y="1057"/>
      <point x="107" y="833" type="curve" smooth="yes"/>
      <point x="107" y="831" type="line" smooth="yes"/>
      <point x="107" y="789"/>
      <point x="117" y="730"/>
      <point x="141" y="680" type="curve"/>
      <point x="477" y="680" type="line"/>
      <point x="459" y="719"/>
      <point x="454" y="749"/>
      <point x="454" y="778" type="curve" smooth="yes"/>
      <point x="454" y="780" type="line" smooth="yes"/>
      <point x="454" y="844"/>
      <point x="497" y="874"/>
      <point x="586" y="874" type="curve" smooth="yes"/>
      <point x="671" y="874"/>
      <point x="712" y="851"/>
      <point x="712" y="806" type="curve" smooth="yes"/>
      <point x="712" y="805" type="line" smooth="yes"/>
      <point x="712" y="762"/>
      <point x="668" y="739"/>
      <point x="498" y="696" type="curve" smooth="yes"/>
      <point x="149" y="608"/>
      <point x="80" y="493"/>
      <point x="80" y="320" type="curve" smooth="yes"/>
      <point x="80" y="313" type="line" smooth="yes"/>
      <point x="80" y="84"/>
      <point x="258" y="-48"/>
    </contour>
  </outline>
</glyph>
<glyph name="vowelOo.te" format="2">
  <advance width="1999"/>
  <unicode hex="0C13"/>
  <outline>
    <contour>
      <point x="1020" y="1232" type="curve"/>
      <point x="992" y="1546" type="line"/>
      <point x="898" y="1596"/>
      <point x="769" y="1627"/>
      <point x="619" y="1627" type="curve" smooth="yes"/>
      <point x="342" y="1627"/>
      <point x="192" y="1527"/>
      <point x="192" y="1355" type="curve" smooth="yes"/>
      <point x="192" y="1221"/>
      <point x="285" y="1134"/>
      <point x="541" y="1102" type="curve"/>
      <point x="623" y="1169" type="line"/>
      <point x="552" y="1180"/>
      <point x="529" y="1205"/>
      <point x="529" y="1246" type="curve" smooth="yes"/>
      <point x="529" y="1305"/>
      <point x="580" y="1333"/>
      <point x="684" y="1333" type="curve" smooth="yes"/>
      <point x="817" y="1333"/>
      <point x="933" y="1291"/>
    </contour>
    <component base="vowelO.te"/>
  </outline>
</glyph>
<glyph name="vowelAu.te" format="2">
  <advance width="2063"/>
  <unicode hex="0C14"/>
  <outline>
    <contour>
      <point x="584" y="-48" type="curve" smooth="yes"/>
      <point x="837" y="-48"/>
      <point x="984" y="48"/>
      <point x="1013" y="221" type="curve"/>
      <point x="1024" y="221" type="line"/>
      <point x="1052" y="48"/>
      <point x="1196" y="-48"/>
      <point x="1449" y="-48" type="curve" smooth="yes"/>
      <point x="1755" y="-48"/>
      <point x="1919" y="98"/>
      <point x="1919" y="365" type="curve" smooth="yes"/>
      <point x="1919" y="370" type="line" smooth="yes"/>
      <point x="1919" y="440"/>
      <point x="1903" y="497"/>
      <point x="1878" y="550" type="curve"/>
      <point x="1513" y="550" type="line"/>
      <point x="1524" y="525"/>
      <point x="1533" y="491"/>
      <point x="1533" y="457" type="curve"/>
      <point x="1533" y="454" type="line"/>
      <point x="1533" y="356"/>
      <point x="1476" y="308"/>
      <point x="1363" y="308" type="curve" smooth="yes"/>
      <point x="1266" y="308"/>
      <point x="1213" y="354"/>
      <point x="1202" y="441" type="curve" smooth="yes"/>
      <point x="1197" y="482" type="line"/>
      <point x="840" y="482" type="line"/>
      <point x="835" y="440" type="line" smooth="yes"/>
      <point x="824" y="345"/>
      <point x="750" y="294"/>
      <point x="628" y="294" type="curve" smooth="yes"/>
      <point x="529" y="294"/>
      <point x="475" y="317"/>
      <point x="475" y="358" type="curve"/>
      <point x="475" y="360" type="line"/>
      <point x="475" y="400"/>
      <point x="509" y="422"/>
      <point x="691" y="468" type="curve" smooth="yes"/>
      <point x="958" y="536"/>
      <point x="1068" y="634"/>
      <point x="1068" y="817" type="curve"/>
      <point x="1068" y="821" type="line"/>
      <point x="1068" y="1052"/>
      <point x="895" y="1173"/>
      <point x="582" y="1173" type="curve" smooth="yes"/>
      <point x="272" y="1173"/>
      <point x="107" y="1057"/>
      <point x="107" y="833" type="curve"/>
      <point x="107" y="831" type="line"/>
      <point x="107" y="789"/>
      <point x="117" y="730"/>
      <point x="141" y="680" type="curve"/>
      <point x="477" y="680" type="line"/>
      <point x="459" y="719"/>
      <point x="454" y="749"/>
      <point x="454" y="778" type="curve"/>
      <point x="454" y="780" type="line"/>
      <point x="454" y="844"/>
      <point x="497" y="874"/>
      <point x="586" y="874" type="curve" smooth="yes"/>
      <point x="671" y="874"/>
      <point x="712" y="851"/>
      <point x="712" y="806" type="curve"/>
      <point x="712" y="805" type="line"/>
      <point x="712" y="762"/>
      <point x="668" y="739"/>
      <point x="498" y="696" type="curve" smooth="yes"/>
      <point x="149" y="608"/>
      <point x="80" y="493"/>
      <point x="80" y="320" type="curve" smooth="yes"/>
      <point x="80" y="313" type="line" smooth="yes"/>
      <point x="80" y="84"/>
      <point x="258" y="-48"/>
    </contour>
    <contour>
      <point x="676" y="1038" type="line"/>
      <point x="958" y="1038"/>
      <point x="1036" y="1111"/>
      <point x="1036" y="1209" type="curve" smooth="yes"/>
      <point x="1036" y="1312"/>
      <point x="910" y="1383"/>
      <point x="685" y="1383" type="curve" smooth="yes"/>
      <point x="422" y="1383" type="line"/>
      <point x="422" y="1296" type="line"/>
      <point x="582" y="1296" type="line" smooth="yes"/>
      <point x="655" y="1296"/>
      <point x="684" y="1274"/>
      <point x="684" y="1235" type="curve" smooth="yes"/>
      <point x="684" y="1196"/>
      <point x="655" y="1173"/>
      <point x="582" y="1173" type="curve"/>
    </contour>
    <contour>
      <point x="1598" y="612" type="curve" smooth="yes"/>
      <point x="1896" y="612"/>
      <point x="2063" y="767"/>
      <point x="2063" y="1047" type="curve" smooth="yes"/>
      <point x="2063" y="1057" type="line" smooth="yes"/>
      <point x="2063" y="1380"/>
      <point x="1848" y="1581"/>
      <point x="1436" y="1581" type="curve" smooth="yes"/>
      <point x="206" y="1581" type="line"/>
      <point x="144" y="1296" type="line"/>
      <point x="867" y="1296" type="line"/>
      <point x="876" y="1301" type="line"/>
      <point x="1127" y="1296" type="line"/>
      <point x="1436" y="1296" type="line" smooth="yes"/>
      <point x="1629" y="1296"/>
      <point x="1727" y="1209"/>
      <point x="1727" y="1091" type="curve" smooth="yes"/>
      <point x="1727" y="1088" type="line"/>
      <point x="1716" y="1088" type="line"/>
      <point x="1719" y="999" type="line"/>
      <point x="1719" y="997" type="line"/>
      <point x="1719" y="922"/>
      <point x="1677" y="885"/>
      <point x="1600" y="885" type="curve" smooth="yes"/>
      <point x="1538" y="885"/>
      <point x="1504" y="906"/>
      <point x="1504" y="945" type="curve"/>
      <point x="1504" y="947" type="line"/>
      <point x="1504" y="986"/>
      <point x="1541" y="1009"/>
      <point x="1600" y="1009" type="curve" smooth="yes"/>
      <point x="1650" y="1009"/>
      <point x="1695" y="999"/>
      <point x="1725" y="972" type="curve"/>
      <point x="1721" y="1079" type="line"/>
      <point x="1695" y="1168"/>
      <point x="1622" y="1234"/>
      <point x="1479" y="1234" type="curve" smooth="yes"/>
      <point x="1283" y="1234"/>
      <point x="1166" y="1127"/>
      <point x="1166" y="942" type="curve"/>
      <point x="1166" y="938" type="line"/>
      <point x="1166" y="730"/>
      <point x="1323" y="612"/>
    </contour>
  </outline>
</glyph>
<glyph name="Ka.te" format="2">
  <advance width="1526"/>
  <unicode hex="0C15"/>
  <anchor x="754" y="-67" name="bottom"/>
  <outline>
    <contour>
      <point x="754" y="-50" type="curve" smooth="yes"/>
      <point x="1203" y="-50"/>
      <point x="1436" y="82"/>
      <point x="1436" y="333" type="curve" smooth="yes"/>
      <point x="1436" y="338" type="line" smooth="yes"/>
      <point x="1436" y="554"/>
      <point x="1297" y="673"/>
      <point x="1008" y="692" type="curve" smooth="yes"/>
      <point x="576" y="721" type="line" smooth="yes"/>
      <point x="499" y="726"/>
      <point x="469" y="741"/>
      <point x="469" y="773" type="curve" smooth="yes"/>
      <point x="469" y="774" type="line" smooth="yes"/>
      <point x="469" y="822"/>
      <point x="551" y="842"/>
      <point x="752" y="842" type="curve" smooth="yes"/>
      <point x="955" y="842"/>
      <point x="1039" y="822"/>
      <point x="1039" y="762" type="curve"/>
      <point x="1039" y="760" type="line"/>
      <point x="1039" y="755"/>
      <point x="1039" y="748"/>
      <point x="1037" y="737" type="curve"/>
      <point x="1402" y="737" type="line"/>
      <point x="1409" y="764"/>
      <point x="1411" y="790"/>
      <point x="1411" y="817" type="curve"/>
      <point x="1411" y="819" type="line"/>
      <point x="1411" y="999"/>
      <point x="1261" y="1130"/>
      <point x="750" y="1130" type="curve" smooth="yes"/>
      <point x="300" y="1130"/>
      <point x="92" y="993"/>
      <point x="92" y="765" type="curve" smooth="yes"/>
      <point x="92" y="760" type="line" smooth="yes"/>
      <point x="92" y="562"/>
      <point x="222" y="456"/>
      <point x="494" y="438" type="curve" smooth="yes"/>
      <point x="927" y="410" type="line" smooth="yes"/>
      <point x="1020" y="404"/>
      <point x="1056" y="390"/>
      <point x="1056" y="345" type="curve" smooth="yes"/>
      <point x="1056" y="344" type="line" smooth="yes"/>
      <point x="1056" y="285"/>
      <point x="969" y="262"/>
      <point x="756" y="262" type="curve" smooth="yes"/>
      <point x="549" y="262"/>
      <point x="462" y="288"/>
      <point x="462" y="365" type="curve" smooth="yes"/>
      <point x="462" y="367" type="line" smooth="yes"/>
      <point x="462" y="377"/>
      <point x="464" y="388"/>
      <point x="466" y="399" type="curve"/>
      <point x="99" y="399" type="line"/>
      <point x="92" y="374"/>
      <point x="90" y="347"/>
      <point x="90" y="322" type="curve"/>
      <point x="90" y="320" type="line"/>
      <point x="90" y="71"/>
      <point x="311" y="-50"/>
    </contour>
    <contour>
      <point x="663" y="1015" type="curve"/>
      <point x="921" y="1015" type="line"/>
      <point x="1101" y="1015"/>
      <point x="1184" y="1105"/>
      <point x="1240" y="1166" type="curve" smooth="yes"/>
      <point x="1320" y="1253" type="line" smooth="yes"/>
      <point x="1361" y="1298"/>
      <point x="1422" y="1323"/>
      <point x="1502" y="1323" type="curve" smooth="yes"/>
      <point x="1621" y="1323" type="line"/>
      <point x="1588" y="1663" type="line"/>
      <point x="1453" y="1663" type="line" smooth="yes"/>
      <point x="1280" y="1663"/>
      <point x="1166" y="1602"/>
      <point x="1079" y="1496" type="curve" smooth="yes"/>
      <point x="857" y="1225" type="line" smooth="yes"/>
      <point x="809" y="1166"/>
      <point x="776" y="1150"/>
      <point x="738" y="1150" type="curve" smooth="yes"/>
      <point x="731" y="1150" type="line" smooth="yes"/>
      <point x="679" y="1150"/>
      <point x="655" y="1183"/>
      <point x="635" y="1234" type="curve" smooth="yes"/>
      <point x="572" y="1396" type="line"/>
      <point x="172" y="1396" type="line"/>
      <point x="236" y="1207" type="line" smooth="yes"/>
      <point x="281" y="1073"/>
      <point x="403" y="1015"/>
    </contour>
  </outline>
</glyph>
<glyph name="Ga.te" format="2">
  <advance width="1600"/>
  <unicode hex="0C17"/>
  <anchor x="800" y="-67" name="bottom"/>
  <outline>
    <contour>
      <point x="184" y="0" type="curve"/>
      <point x="612" y="0" type="line"/>
      <point x="535" y="180"/>
      <point x="489" y="326"/>
      <point x="489" y="491" type="curve" smooth="yes"/>
      <point x="489" y="504" type="line" smooth="yes"/>
      <point x="489" y="717"/>
      <point x="590" y="828"/>
      <point x="800" y="828" type="curve" smooth="yes"/>
      <point x="1010" y="828"/>
      <point x="1111" y="717"/>
      <point x="1111" y="504" type="curve" smooth="yes"/>
      <point x="1111" y="491" type="line" smooth="yes"/>
      <point x="1111" y="326"/>
      <point x="1065" y="180"/>
      <point x="988" y="0" type="curve"/>
      <point x="1416" y="0" type="line"/>
      <point x="1483" y="160"/>
      <point x="1510" y="310"/>
      <point x="1510" y="481" type="curve" smooth="yes"/>
      <point x="1510" y="500" type="line" smooth="yes"/>
      <point x="1510" y="918"/>
      <point x="1288" y="1121"/>
      <point x="800" y="1121" type="curve" smooth="yes"/>
      <point x="313" y="1121"/>
      <point x="90" y="918"/>
      <point x="90" y="500" type="curve" smooth="yes"/>
      <point x="90" y="481" type="line" smooth="yes"/>
      <point x="90" y="310"/>
      <point x="117" y="160"/>
    </contour>
    <contour>
      <point x="690" y="1015" type="curve"/>
      <point x="948" y="1015" type="line"/>
      <point x="1122" y="1015"/>
      <point x="1204" y="1098"/>
      <point x="1267" y="1166" type="curve" smooth="yes"/>
      <point x="1347" y="1253" type="line" smooth="yes"/>
      <point x="1388" y="1298"/>
      <point x="1449" y="1323"/>
      <point x="1528" y="1323" type="curve" smooth="yes"/>
      <point x="1644" y="1323" type="line"/>
      <point x="1610" y="1663" type="line"/>
      <point x="1480" y="1663" type="line" smooth="yes"/>
      <point x="1330" y="1663"/>
      <point x="1206" y="1617"/>
      <point x="1106" y="1495" type="curve" smooth="yes"/>
      <point x="884" y="1225" type="line" smooth="yes"/>
      <point x="840" y="1172"/>
      <point x="807" y="1150"/>
      <point x="765" y="1150" type="curve" smooth="yes"/>
      <point x="758" y="1150" type="line" smooth="yes"/>
      <point x="709" y="1150"/>
      <point x="683" y="1177"/>
      <point x="661" y="1234" type="curve" smooth="yes"/>
      <point x="599" y="1396" type="line"/>
      <point x="199" y="1396" type="line"/>
      <point x="263" y="1207" type="line" smooth="yes"/>
      <point x="308" y="1073"/>
      <point x="430" y="1015"/>
    </contour>
  </outline>
</glyph>
<glyph name="Nga.te" format="2">
  <advance width="1999"/>
  <unicode hex="0C19"/>
  <anchor x="1015" y="-67" name="bottom"/>
  <outline>
    <contour>
      <point x="584" y="-48" type="curve" smooth="yes"/>
      <point x="837" y="-48"/>
      <point x="984" y="48"/>
      <point x="1013" y="221" type="curve"/>
      <point x="1024" y="221" type="line"/>
      <point x="1052" y="48"/>
      <point x="1196" y="-48"/>
      <point x="1449" y="-48" type="curve" smooth="yes"/>
      <point x="1755" y="-48"/>
      <point x="1919" y="98"/>
      <point x="1919" y="365" type="curve" smooth="yes"/>
      <point x="1919" y="370" type="line" smooth="yes"/>
      <point x="1919" y="440"/>
      <point x="1903" y="497"/>
      <point x="1878" y="550" type="curve"/>
      <point x="1513" y="550" type="line"/>
      <point x="1524" y="525"/>
      <point x="1533" y="491"/>
      <point x="1533" y="457" type="curve"/>
      <point x="1533" y="454" type="line"/>
      <point x="1533" y="356"/>
      <point x="1476" y="308"/>
      <point x="1363" y="308" type="curve" smooth="yes"/>
      <point x="1266" y="308"/>
      <point x="1213" y="354"/>
      <point x="1202" y="441" type="curve" smooth="yes"/>
      <point x="1197" y="482" type="line"/>
      <point x="840" y="482" type="line"/>
      <point x="835" y="440" type="line" smooth="yes"/>
      <point x="824" y="345"/>
      <point x="750" y="294"/>
      <point x="628" y="294" type="curve" smooth="yes"/>
      <point x="529" y="294"/>
      <point x="475" y="317"/>
      <point x="475" y="358" type="curve"/>
      <point x="475" y="360" type="line"/>
      <point x="475" y="400"/>
      <point x="509" y="422"/>
      <point x="691" y="468" type="curve" smooth="yes"/>
      <point x="958" y="536"/>
      <point x="1068" y="634"/>
      <point x="1068" y="817" type="curve"/>
      <point x="1068" y="821" type="line"/>
      <point x="1068" y="1052"/>
      <point x="895" y="1173"/>
      <point x="582" y="1173" type="curve" smooth="yes"/>
      <point x="272" y="1173"/>
      <point x="107" y="1057"/>
      <point x="107" y="833" type="curve"/>
      <point x="107" y="831" type="line"/>
      <point x="107" y="789"/>
      <point x="117" y="730"/>
      <point x="141" y="680" type="curve"/>
      <point x="477" y="680" type="line"/>
      <point x="459" y="719"/>
      <point x="454" y="749"/>
      <point x="454" y="778" type="curve"/>
      <point x="454" y="780" type="line"/>
      <point x="454" y="844"/>
      <point x="497" y="874"/>
      <point x="586" y="874" type="curve" smooth="yes"/>
      <point x="671" y="874"/>
      <point x="712" y="851"/>
      <point x="712" y="806" type="curve"/>
      <point x="712" y="805" type="line"/>
      <point x="712" y="762"/>
      <point x="668" y="739"/>
      <point x="498" y="696" type="curve" smooth="yes"/>
      <point x="149" y="608"/>
      <point x="80" y="493"/>
      <point x="80" y="320" type="curve" smooth="yes"/>
      <point x="80" y="313" type="line" smooth="yes"/>
      <point x="80" y="84"/>
      <point x="258" y="-48"/>
    </contour>
    <contour>
      <point x="977" y="635" type="line"/>
      <point x="1869" y="635" type="line"/>
      <point x="1869" y="902" type="line"/>
      <point x="977" y="902" type="line"/>
    </contour>
    <contour>
      <point x="1337" y="806" type="curve"/>
      <point x="1504" y="806" type="line"/>
      <point x="1566" y="913"/>
      <point x="1611" y="1006"/>
      <point x="1611" y="1072" type="curve" smooth="yes"/>
      <point x="1611" y="1139"/>
      <point x="1582" y="1177"/>
      <point x="1566" y="1194" type="curve"/>
      <point x="1274" y="1194" type="line"/>
      <point x="1258" y="1177"/>
      <point x="1230" y="1139"/>
      <point x="1230" y="1072" type="curve" smooth="yes"/>
      <point x="1230" y="1006"/>
      <point x="1271" y="913"/>
    </contour>
  </outline>
</glyph>
<glyph name="Ca.te" format="2">
  <advance width="2024"/>
  <unicode hex="0C1A"/>
  <anchor x="1027" y="-67" name="bottom"/>
  <outline>
    <contour>
      <point x="586" y="-48" type="curve" smooth="yes"/>
      <point x="843" y="-48"/>
      <point x="996" y="55"/>
      <point x="1023" y="242" type="curve"/>
      <point x="1033" y="242" type="line"/>
      <point x="1058" y="55"/>
      <point x="1199" y="-48"/>
      <point x="1435" y="-48" type="curve" smooth="yes"/>
      <point x="1758" y="-48"/>
      <point x="1934" y="134"/>
      <point x="1934" y="465" type="curve" smooth="yes"/>
      <point x="1934" y="482" type="line" smooth="yes"/>
      <point x="1934" y="915"/>
      <point x="1669" y="1141"/>
      <point x="1161" y="1141" type="curve"/>
      <point x="978" y="1007" type="line"/>
      <point x="999" y="840" type="line"/>
      <point x="1076" y="840" type="line" smooth="yes"/>
      <point x="1386" y="840"/>
      <point x="1544" y="726"/>
      <point x="1544" y="511" type="curve" smooth="yes"/>
      <point x="1544" y="493" type="line" smooth="yes"/>
      <point x="1544" y="368"/>
      <point x="1487" y="308"/>
      <point x="1373" y="308" type="curve" smooth="yes"/>
      <point x="1276" y="308"/>
      <point x="1219" y="358"/>
      <point x="1209" y="454" type="curve" smooth="yes"/>
      <point x="1202" y="520" type="line"/>
      <point x="853" y="520" type="line"/>
      <point x="846" y="454" type="line" smooth="yes"/>
      <point x="836" y="358"/>
      <point x="772" y="308"/>
      <point x="665" y="308" type="curve" smooth="yes"/>
      <point x="565" y="308"/>
      <point x="515" y="340"/>
      <point x="515" y="406" type="curve" smooth="yes"/>
      <point x="515" y="408" type="line" smooth="yes"/>
      <point x="515" y="454"/>
      <point x="540" y="484"/>
      <point x="610" y="498" type="curve"/>
      <point x="729" y="507" type="line"/>
      <point x="729" y="796" type="line"/>
      <point x="70" y="831" type="line"/>
      <point x="70" y="498" type="line"/>
      <point x="298" y="502" type="line"/>
      <point x="300" y="493" type="line"/>
      <point x="200" y="454"/>
      <point x="150" y="376"/>
      <point x="150" y="276" type="curve" smooth="yes"/>
      <point x="150" y="269" type="line" smooth="yes"/>
      <point x="150" y="68"/>
      <point x="303" y="-48"/>
    </contour>
    <contour>
      <point x="999" y="840" type="curve"/>
      <point x="1201" y="1015" type="line"/>
      <point x="1380" y="1015"/>
      <point x="1463" y="1105"/>
      <point x="1519" y="1166" type="curve" smooth="yes"/>
      <point x="1599" y="1253" type="line" smooth="yes"/>
      <point x="1640" y="1298"/>
      <point x="1702" y="1323"/>
      <point x="1781" y="1323" type="curve" smooth="yes"/>
      <point x="1916" y="1323" type="line"/>
      <point x="1882" y="1663" type="line"/>
      <point x="1733" y="1663" type="line" smooth="yes"/>
      <point x="1563" y="1663"/>
      <point x="1447" y="1603"/>
      <point x="1359" y="1495" type="curve" smooth="yes"/>
      <point x="1137" y="1224" type="line" smooth="yes"/>
      <point x="1094" y="1171"/>
      <point x="1060" y="1150"/>
      <point x="1017" y="1150" type="curve" smooth="yes"/>
      <point x="1010" y="1150" type="line" smooth="yes"/>
      <point x="962" y="1150"/>
      <point x="936" y="1177"/>
      <point x="914" y="1234" type="curve" smooth="yes"/>
      <point x="852" y="1396" type="line"/>
      <point x="451" y="1396" type="line"/>
      <point x="515" y="1207" type="line" smooth="yes"/>
      <point x="597" y="964"/>
      <point x="704" y="840"/>
    </contour>
  </outline>
</glyph>
<glyph name="Ja.te" format="2">
  <advance width="2004"/>
  <unicode hex="0C1C"/>
  <anchor x="1018" y="-67" name="bottom"/>
  <outline>
    <contour>
      <point x="584" y="-48" type="curve" smooth="yes"/>
      <point x="837" y="-48"/>
      <point x="984" y="48"/>
      <point x="1013" y="221" type="curve"/>
      <point x="1024" y="221" type="line"/>
      <point x="1052" y="48"/>
      <point x="1196" y="-48"/>
      <point x="1449" y="-48" type="curve" smooth="yes"/>
      <point x="1755" y="-48"/>
      <point x="1919" y="98"/>
      <point x="1919" y="365" type="curve" smooth="yes"/>
      <point x="1919" y="370" type="line" smooth="yes"/>
      <point x="1919" y="440"/>
      <point x="1903" y="497"/>
      <point x="1878" y="550" type="curve"/>
      <point x="1513" y="550" type="line"/>
      <point x="1524" y="525"/>
      <point x="1533" y="491"/>
      <point x="1533" y="457" type="curve"/>
      <point x="1533" y="454" type="line"/>
      <point x="1533" y="356"/>
      <point x="1476" y="308"/>
      <point x="1363" y="308" type="curve" smooth="yes"/>
      <point x="1266" y="308"/>
      <point x="1213" y="354"/>
      <point x="1202" y="441" type="curve" smooth="yes"/>
      <point x="1197" y="482" type="line"/>
      <point x="840" y="482" type="line"/>
      <point x="835" y="440" type="line" smooth="yes"/>
      <point x="824" y="345"/>
      <point x="750" y="294"/>
      <point x="628" y="294" type="curve" smooth="yes"/>
      <point x="529" y="294"/>
      <point x="475" y="317"/>
      <point x="475" y="358" type="curve"/>
      <point x="475" y="360" type="line"/>
      <point x="475" y="400"/>
      <point x="509" y="422"/>
      <point x="691" y="468" type="curve" smooth="yes"/>
      <point x="958" y="536"/>
      <point x="1068" y="634"/>
      <point x="1068" y="817" type="curve"/>
      <point x="1068" y="821" type="line"/>
      <point x="1068" y="1052"/>
      <point x="895" y="1173"/>
      <point x="582" y="1173" type="curve" smooth="yes"/>
      <point x="272" y="1173"/>
      <point x="107" y="1057"/>
      <point x="107" y="833" type="curve"/>
      <point x="107" y="831" type="line"/>
      <point x="107" y="789"/>
      <point x="117" y="730"/>
      <point x="141" y="680" type="curve"/>
      <point x="477" y="680" type="line"/>
      <point x="459" y="719"/>
      <point x="454" y="749"/>
      <point x="454" y="778" type="curve"/>
      <point x="454" y="780" type="line"/>
      <point x="454" y="844"/>
      <point x="497" y="874"/>
      <point x="586" y="874" type="curve" smooth="yes"/>
      <point x="671" y="874"/>
      <point x="712" y="851"/>
      <point x="712" y="806" type="curve"/>
      <point x="712" y="805" type="line"/>
      <point x="712" y="762"/>
      <point x="668" y="739"/>
      <point x="498" y="696" type="curve" smooth="yes"/>
      <point x="149" y="608"/>
      <point x="80" y="493"/>
      <point x="80" y="320" type="curve" smooth="yes"/>
      <point x="80" y="313" type="line" smooth="yes"/>
      <point x="80" y="84"/>
      <point x="258" y="-48"/>
    </contour>
    <contour>
      <point x="1420" y="611" type="curve" smooth="yes"/>
      <point x="1739" y="611"/>
      <point x="1912" y="724"/>
      <point x="1912" y="945" type="curve" smooth="yes"/>
      <point x="1912" y="954" type="line" smooth="yes"/>
      <point x="1912" y="1031"/>
      <point x="1883" y="1100"/>
      <point x="1835" y="1150" type="curve"/>
      <point x="1486" y="1150" type="line"/>
      <point x="1517" y="1118"/>
      <point x="1531" y="1082"/>
      <point x="1531" y="1034" type="curve" smooth="yes"/>
      <point x="1531" y="1031" type="line" smooth="yes"/>
      <point x="1531" y="947"/>
      <point x="1477" y="894"/>
      <point x="1315" y="894" type="curve" smooth="yes"/>
      <point x="1200" y="894"/>
      <point x="1088" y="929"/>
      <point x="1016" y="1006" type="curve"/>
      <point x="920" y="771" type="line"/>
      <point x="1032" y="673"/>
      <point x="1180" y="611"/>
    </contour>
  </outline>
</glyph>
<glyph name="Nya.te" format="2">
  <advance width="2524"/>
  <unicode hex="0C1E"/>
  <anchor x="1007" y="-67" name="bottom"/>
  <outline>
    <contour>
      <point x="2047" y="703" type="curve"/>
      <point x="2214" y="703" type="line"/>
      <point x="2277" y="826"/>
      <point x="2321" y="942"/>
      <point x="2321" y="1009" type="curve" smooth="yes"/>
      <point x="2321" y="1088"/>
      <point x="2292" y="1129"/>
      <point x="2276" y="1150" type="curve"/>
      <point x="1985" y="1150" type="line"/>
      <point x="1969" y="1129"/>
      <point x="1940" y="1088"/>
      <point x="1940" y="1009" type="curve" smooth="yes"/>
      <point x="1940" y="942"/>
      <point x="1981" y="826"/>
    </contour>
    <contour>
      <point x="1675" y="539" type="line"/>
      <point x="2494" y="539" type="line"/>
      <point x="2494" y="806" type="line"/>
      <point x="1675" y="806" type="line"/>
    </contour>
    <component base="vowelI.te"/>
  </outline>
</glyph>
<glyph name="Ttha.te" format="2">
  <advance width="1709"/>
  <unicode hex="0C20"/>
  <guideline x="1506" y="757" angle="90"/>
  <anchor x="855" y="-67" name="bottom"/>
  <outline>
    <contour>
      <point x="855" y="-50" type="curve" smooth="yes"/>
      <point x="1357" y="-50"/>
      <point x="1619" y="157"/>
      <point x="1619" y="538" type="curve" smooth="yes"/>
      <point x="1619" y="550" type="line" smooth="yes"/>
      <point x="1619" y="918"/>
      <point x="1357" y="1123"/>
      <point x="855" y="1123" type="curve" smooth="yes"/>
      <point x="353" y="1123"/>
      <point x="90" y="918"/>
      <point x="90" y="550" type="curve" smooth="yes"/>
      <point x="90" y="538" type="line" smooth="yes"/>
      <point x="90" y="157"/>
      <point x="353" y="-50"/>
    </contour>
    <contour>
      <point x="855" y="292" type="curve" smooth="yes"/>
      <point x="606" y="292"/>
      <point x="480" y="384"/>
      <point x="480" y="557" type="curve" smooth="yes"/>
      <point x="480" y="566" type="line" smooth="yes"/>
      <point x="480" y="737"/>
      <point x="606" y="831"/>
      <point x="855" y="831" type="curve" smooth="yes"/>
      <point x="1105" y="831"/>
      <point x="1229" y="737"/>
      <point x="1229" y="566" type="curve" smooth="yes"/>
      <point x="1229" y="557" type="line" smooth="yes"/>
      <point x="1229" y="384"/>
      <point x="1105" y="292"/>
    </contour>
    <contour>
      <point x="747" y="1015" type="curve"/>
      <point x="1005" y="1015" type="line"/>
      <point x="1179" y="1015"/>
      <point x="1261" y="1098"/>
      <point x="1324" y="1166" type="curve" smooth="yes"/>
      <point x="1404" y="1253" type="line" smooth="yes"/>
      <point x="1445" y="1298"/>
      <point x="1506" y="1323"/>
      <point x="1585" y="1323" type="curve" smooth="yes"/>
      <point x="1699" y="1323" type="line"/>
      <point x="1665" y="1663" type="line"/>
      <point x="1537" y="1663" type="line" smooth="yes"/>
      <point x="1387" y="1663"/>
      <point x="1263" y="1617"/>
      <point x="1163" y="1495" type="curve" smooth="yes"/>
      <point x="941" y="1225" type="line" smooth="yes"/>
      <point x="892" y="1165"/>
      <point x="859" y="1150"/>
      <point x="822" y="1150" type="curve" smooth="yes"/>
      <point x="814" y="1150" type="line" smooth="yes"/>
      <point x="765" y="1150"/>
      <point x="740" y="1177"/>
      <point x="718" y="1234" type="curve" smooth="yes"/>
      <point x="656" y="1396" type="line"/>
      <point x="256" y="1396" type="line"/>
      <point x="320" y="1207" type="line" smooth="yes"/>
      <point x="365" y="1073"/>
      <point x="487" y="1015"/>
    </contour>
    <component base="chukka" xScale="1.05" yScale="1.1" xOffset="857" yOffset="-189"/>
  </outline>
</glyph>
<glyph name="Ta.te" format="2">
  <advance width="2061"/>
  <unicode hex="0C24"/>
  <anchor x="1031" y="-67" name="bottom"/>
  <outline>
    <contour>
      <point x="1031" y="-50" type="curve" smooth="yes"/>
      <point x="1677" y="-50"/>
      <point x="1981" y="166"/>
      <point x="1981" y="518" type="curve" smooth="yes"/>
      <point x="1981" y="520" type="line" smooth="yes"/>
      <point x="1981" y="631"/>
      <point x="1940" y="737"/>
      <point x="1832" y="797" type="curve"/>
      <point x="1604" y="842" type="line"/>
      <point x="1549" y="872"/>
      <point x="1493" y="885"/>
      <point x="1415" y="885" type="curve" smooth="yes"/>
      <point x="1182" y="885"/>
      <point x="1059" y="792"/>
      <point x="1059" y="620" type="curve" smooth="yes"/>
      <point x="1059" y="612" type="line" smooth="yes"/>
      <point x="1059" y="443"/>
      <point x="1193" y="365"/>
      <point x="1358" y="365" type="curve" smooth="yes"/>
      <point x="1492" y="365"/>
      <point x="1577" y="406"/>
      <point x="1623" y="479" type="curve"/>
      <point x="1627" y="614" type="line"/>
      <point x="1598" y="573"/>
      <point x="1558" y="557"/>
      <point x="1499" y="557" type="curve" smooth="yes"/>
      <point x="1431" y="557"/>
      <point x="1399" y="579"/>
      <point x="1399" y="621" type="curve" smooth="yes"/>
      <point x="1399" y="625" type="line" smooth="yes"/>
      <point x="1399" y="664"/>
      <point x="1431" y="685"/>
      <point x="1499" y="685" type="curve" smooth="yes"/>
      <point x="1572" y="685"/>
      <point x="1620" y="648"/>
      <point x="1620" y="577" type="curve"/>
      <point x="1620" y="573" type="line"/>
      <point x="1618" y="479" type="line"/>
      <point x="1629" y="479" type="line"/>
      <point x="1627" y="472" type="line" smooth="yes"/>
      <point x="1591" y="345"/>
      <point x="1393" y="267"/>
      <point x="1031" y="267" type="curve" smooth="yes"/>
      <point x="667" y="267"/>
      <point x="471" y="346"/>
      <point x="435" y="472" type="curve" smooth="yes"/>
      <point x="433" y="479" type="line"/>
      <point x="443" y="479" type="line"/>
      <point x="441" y="579" type="line"/>
      <point x="441" y="582" type="line"/>
      <point x="441" y="653"/>
      <point x="490" y="691"/>
      <point x="562" y="691" type="curve" smooth="yes"/>
      <point x="630" y="691"/>
      <point x="662" y="669"/>
      <point x="662" y="630" type="curve" smooth="yes"/>
      <point x="662" y="627" type="line" smooth="yes"/>
      <point x="662" y="584"/>
      <point x="630" y="562"/>
      <point x="562" y="562" type="curve" smooth="yes"/>
      <point x="504" y="562"/>
      <point x="463" y="579"/>
      <point x="434" y="619" type="curve"/>
      <point x="438" y="479" type="line"/>
      <point x="484" y="406"/>
      <point x="570" y="365"/>
      <point x="703" y="365" type="curve" smooth="yes"/>
      <point x="869" y="365"/>
      <point x="1002" y="447"/>
      <point x="1002" y="625" type="curve" smooth="yes"/>
      <point x="1002" y="633" type="line" smooth="yes"/>
      <point x="1002" y="830"/>
      <point x="851" y="936"/>
      <point x="562" y="936" type="curve" smooth="yes"/>
      <point x="247" y="936"/>
      <point x="80" y="784"/>
      <point x="80" y="525" type="curve" smooth="yes"/>
      <point x="80" y="523" type="line" smooth="yes"/>
      <point x="80" y="168"/>
      <point x="384" y="-50"/>
    </contour>
    <contour>
      <point x="1584" y="714" type="line"/>
      <point x="1889" y="714" type="line"/>
      <point x="1889" y="749" type="line" smooth="yes"/>
      <point x="1889" y="995"/>
      <point x="1750" y="1123"/>
      <point x="1485" y="1123" type="curve" smooth="yes"/>
      <point x="1342" y="1123" type="line"/>
      <point x="1111" y="1072" type="line"/>
      <point x="1047" y="922" type="line"/>
      <point x="1374" y="922" type="line" smooth="yes"/>
      <point x="1503" y="922"/>
      <point x="1575" y="891"/>
      <point x="1579" y="812" type="curve" smooth="yes"/>
    </contour>
    <contour>
      <point x="520" y="1396" type="line"/>
      <point x="581" y="1226" type="line" smooth="yes"/>
      <point x="650" y="1034"/>
      <point x="747" y="922"/>
      <point x="1047" y="922" type="curve"/>
      <point x="1269" y="1015" type="line"/>
      <point x="1444" y="1015"/>
      <point x="1525" y="1098"/>
      <point x="1588" y="1166" type="curve" smooth="yes"/>
      <point x="1668" y="1253" type="line" smooth="yes"/>
      <point x="1710" y="1298"/>
      <point x="1770" y="1323"/>
      <point x="1849" y="1323" type="curve" smooth="yes"/>
      <point x="1967" y="1323" type="line"/>
      <point x="1933" y="1663" type="line"/>
      <point x="1801" y="1663" type="line" smooth="yes"/>
      <point x="1630" y="1663"/>
      <point x="1515" y="1603"/>
      <point x="1427" y="1496" type="curve" smooth="yes"/>
      <point x="1205" y="1225" type="line" smooth="yes"/>
      <point x="1157" y="1166"/>
      <point x="1124" y="1150"/>
      <point x="1086" y="1150" type="curve" smooth="yes"/>
      <point x="1079" y="1150" type="line" smooth="yes"/>
      <point x="1027" y="1150"/>
      <point x="1003" y="1183"/>
      <point x="983" y="1234" type="curve" smooth="yes"/>
      <point x="920" y="1396" type="line"/>
    </contour>
  </outline>
</glyph>
<glyph name="Tha.te" format="2">
  <advance width="1992"/>
  <unicode hex="0C25"/>
  <guideline x="1772" y="757" angle="90"/>
  <anchor x="993" y="-244" name="bottom"/>
  <outline>
    <contour>
      <point x="588" y="-48" type="curve" smooth="yes"/>
      <point x="825" y="-48"/>
      <point x="962" y="57"/>
      <point x="991" y="233" type="curve"/>
      <point x="1001" y="233" type="line"/>
      <point x="1030" y="57"/>
      <point x="1167" y="-48"/>
      <point x="1404" y="-48" type="curve" smooth="yes"/>
      <point x="1726" y="-48"/>
      <point x="1902" y="134"/>
      <point x="1902" y="465" type="curve" smooth="yes"/>
      <point x="1902" y="482" type="line" smooth="yes"/>
      <point x="1902" y="913"/>
      <point x="1591" y="1132"/>
      <point x="996" y="1132" type="curve" smooth="yes"/>
      <point x="402" y="1132"/>
      <point x="90" y="913"/>
      <point x="90" y="482" type="curve" smooth="yes"/>
      <point x="90" y="465" type="line" smooth="yes"/>
      <point x="90" y="134"/>
      <point x="266" y="-48"/>
    </contour>
    <contour>
      <point x="651" y="308" type="curve" smooth="yes"/>
      <point x="537" y="308"/>
      <point x="480" y="368"/>
      <point x="480" y="493" type="curve" smooth="yes"/>
      <point x="480" y="510" type="line" smooth="yes"/>
      <point x="480" y="719"/>
      <point x="654" y="828"/>
      <point x="996" y="828" type="curve" smooth="yes"/>
      <point x="1338" y="828"/>
      <point x="1512" y="719"/>
      <point x="1512" y="510" type="curve" smooth="yes"/>
      <point x="1512" y="493" type="line" smooth="yes"/>
      <point x="1512" y="368"/>
      <point x="1455" y="308"/>
      <point x="1341" y="308" type="curve" smooth="yes"/>
      <point x="1246" y="308"/>
      <point x="1193" y="354"/>
      <point x="1179" y="441" type="curve" smooth="yes"/>
      <point x="1172" y="484" type="line"/>
      <point x="820" y="484" type="line"/>
      <point x="813" y="441" type="line" smooth="yes"/>
      <point x="799" y="354"/>
      <point x="746" y="308"/>
    </contour>
    <contour>
      <point x="998" y="525" type="curve" smooth="yes"/>
      <point x="1133" y="525"/>
      <point x="1204" y="568"/>
      <point x="1204" y="659" type="curve" smooth="yes"/>
      <point x="1204" y="749"/>
      <point x="1133" y="789"/>
      <point x="998" y="789" type="curve" smooth="yes"/>
      <point x="863" y="789"/>
      <point x="788" y="749"/>
      <point x="788" y="659" type="curve" smooth="yes"/>
      <point x="788" y="568"/>
      <point x="863" y="525"/>
    </contour>
    <contour>
      <point x="886" y="1015" type="curve" smooth="yes"/>
      <point x="1144" y="1015" type="line" smooth="yes"/>
      <point x="1323" y="1015"/>
      <point x="1406" y="1105"/>
      <point x="1462" y="1166" type="curve" smooth="yes"/>
      <point x="1542" y="1253" type="line" smooth="yes"/>
      <point x="1583" y="1298"/>
      <point x="1645" y="1323"/>
      <point x="1724" y="1323" type="curve" smooth="yes"/>
      <point x="1859" y="1323" type="line"/>
      <point x="1826" y="1663" type="line"/>
      <point x="1676" y="1663" type="line" smooth="yes"/>
      <point x="1525" y="1663"/>
      <point x="1402" y="1617"/>
      <point x="1302" y="1495" type="curve" smooth="yes"/>
      <point x="1080" y="1225" type="line" smooth="yes"/>
      <point x="1036" y="1172"/>
      <point x="1003" y="1150"/>
      <point x="960" y="1150" type="curve" smooth="yes"/>
      <point x="953" y="1150" type="line" smooth="yes"/>
      <point x="905" y="1150"/>
      <point x="879" y="1177"/>
      <point x="857" y="1234" type="curve" smooth="yes"/>
      <point x="795" y="1396" type="line"/>
      <point x="394" y="1396" type="line"/>
      <point x="458" y="1207" type="line" smooth="yes"/>
      <point x="504" y="1070"/>
      <point x="631" y="1015"/>
    </contour>
    <component base="kombu_1" xOffset="996" yOffset="18"/>
  </outline>
</glyph>
<glyph name="Na.te" format="2">
  <advance width="1889"/>
  <unicode hex="0C28"/>
  <anchor x="918" y="-67" name="bottom"/>
  <outline>
    <contour>
      <point x="1241" y="-41" type="curve" smooth="yes"/>
      <point x="1597" y="-41"/>
      <point x="1799" y="164"/>
      <point x="1799" y="514" type="curve" smooth="yes"/>
      <point x="1799" y="523" type="line" smooth="yes"/>
      <point x="1799" y="927"/>
      <point x="1532" y="1141"/>
      <point x="999" y="1141" type="curve" smooth="yes"/>
      <point x="798" y="1141" type="line"/>
      <point x="699" y="1034" type="line"/>
      <point x="690" y="840" type="line"/>
      <point x="976" y="840" type="line" smooth="yes"/>
      <point x="1263" y="840"/>
      <point x="1409" y="730"/>
      <point x="1409" y="525" type="curve" smooth="yes"/>
      <point x="1409" y="518" type="line" smooth="yes"/>
      <point x="1409" y="368"/>
      <point x="1346" y="303"/>
      <point x="1233" y="303" type="curve" smooth="yes"/>
      <point x="1140" y="303"/>
      <point x="1091" y="350"/>
      <point x="1056" y="422" type="curve" smooth="yes"/>
      <point x="1037" y="461" type="line" smooth="yes"/>
      <point x="960" y="620"/>
      <point x="855" y="758"/>
      <point x="553" y="758" type="curve" smooth="yes"/>
      <point x="245" y="758"/>
      <point x="70" y="591"/>
      <point x="70" y="285" type="curve" smooth="yes"/>
      <point x="70" y="269" type="line" smooth="yes"/>
      <point x="70" y="183"/>
      <point x="88" y="84"/>
      <point x="124" y="-5" type="curve"/>
      <point x="522" y="-5" type="line"/>
      <point x="476" y="98"/>
      <point x="460" y="196"/>
      <point x="460" y="258" type="curve" smooth="yes"/>
      <point x="460" y="269" type="line" smooth="yes"/>
      <point x="460" y="368"/>
      <point x="499" y="417"/>
      <point x="576" y="417" type="curve" smooth="yes"/>
      <point x="650" y="417"/>
      <point x="675" y="377"/>
      <point x="714" y="294" type="curve" smooth="yes"/>
      <point x="736" y="247" type="line" smooth="yes"/>
      <point x="808" y="92"/>
      <point x="922" y="-41"/>
    </contour>
    <contour>
      <point x="1606" y="1323" type="line"/>
      <point x="1573" y="1663" type="line"/>
      <point x="1423" y="1663" type="line" smooth="yes"/>
      <point x="1272" y="1663"/>
      <point x="1149" y="1617"/>
      <point x="1049" y="1495" type="curve" smooth="yes"/>
      <point x="827" y="1225" type="line" smooth="yes"/>
      <point x="783" y="1172"/>
      <point x="750" y="1150"/>
      <point x="707" y="1150" type="curve" smooth="yes"/>
      <point x="700" y="1150" type="line" smooth="yes"/>
      <point x="652" y="1150"/>
      <point x="626" y="1177"/>
      <point x="604" y="1234" type="curve"/>
      <point x="542" y="1396" type="line"/>
      <point x="141" y="1396" type="line"/>
      <point x="205" y="1207" type="line"/>
      <point x="289" y="961"/>
      <point x="398" y="840"/>
      <point x="690" y="840" type="curve"/>
      <point x="891" y="1015" type="line"/>
      <point x="1070" y="1015"/>
      <point x="1152" y="1105"/>
      <point x="1209" y="1166" type="curve" smooth="yes"/>
      <point x="1290" y="1253" type="line" smooth="yes"/>
      <point x="1331" y="1297"/>
      <point x="1391" y="1323"/>
      <point x="1471" y="1323" type="curve" smooth="yes"/>
    </contour>
  </outline>
</glyph>
<glyph name="Pa.te" format="2">
  <advance width="1921"/>
  <unicode hex="0C2A"/>
  <anchor x="908" y="-67" name="bottom"/>
  <outline>
    <contour>
      <point x="505" y="-48" type="curve" smooth="yes"/>
      <point x="732" y="-48"/>
      <point x="866" y="45"/>
      <point x="891" y="206" type="curve"/>
      <point x="901" y="206" type="line"/>
      <point x="946" y="43"/>
      <point x="1079" y="-48"/>
      <point x="1313" y="-48" type="curve" smooth="yes"/>
      <point x="1651" y="-48"/>
      <point x="1831" y="158"/>
      <point x="1831" y="525" type="curve" smooth="yes"/>
      <point x="1831" y="538" type="line"/>
      <point x="1441" y="546" type="line"/>
      <point x="1441" y="538" type="line" smooth="yes"/>
      <point x="1441" y="384"/>
      <point x="1368" y="301"/>
      <point x="1231" y="301" type="curve" smooth="yes"/>
      <point x="1110" y="301"/>
      <point x="1037" y="353"/>
      <point x="1006" y="456" type="curve" smooth="yes"/>
      <point x="1003" y="466" type="line" smooth="yes"/>
      <point x="944" y="664"/>
      <point x="783" y="758"/>
      <point x="544" y="758" type="curve" smooth="yes"/>
      <point x="243" y="758"/>
      <point x="70" y="609"/>
      <point x="70" y="349" type="curve" smooth="yes"/>
      <point x="70" y="340" type="line" smooth="yes"/>
      <point x="70" y="91"/>
      <point x="225" y="-48"/>
    </contour>
    <contour>
      <point x="547" y="290" type="curve" smooth="yes"/>
      <point x="467" y="290"/>
      <point x="423" y="315"/>
      <point x="423" y="361" type="curve" smooth="yes"/>
      <point x="423" y="365" type="line" smooth="yes"/>
      <point x="423" y="411"/>
      <point x="467" y="436"/>
      <point x="547" y="436" type="curve" smooth="yes"/>
      <point x="627" y="436"/>
      <point x="672" y="411"/>
      <point x="672" y="365" type="curve" smooth="yes"/>
      <point x="672" y="361" type="line" smooth="yes"/>
      <point x="672" y="315"/>
      <point x="627" y="290"/>
    </contour>
    <contour>
      <point x="551" y="831" type="curve" smooth="yes"/>
      <point x="579" y="831" type="line" smooth="yes"/>
      <point x="735" y="831"/>
      <point x="869" y="900"/>
      <point x="1001" y="1052" type="curve" smooth="yes"/>
      <point x="1172" y="1248" type="line" smooth="yes"/>
      <point x="1222" y="1305"/>
      <point x="1293" y="1317"/>
      <point x="1354" y="1317" type="curve" smooth="yes"/>
      <point x="1542" y="1317" type="line"/>
      <point x="1508" y="1657" type="line"/>
      <point x="1306" y="1657" type="line" smooth="yes"/>
      <point x="1136" y="1657"/>
      <point x="1024" y="1598"/>
      <point x="932" y="1492" type="curve" smooth="yes"/>
      <point x="699" y="1225" type="line" smooth="yes"/>
      <point x="654" y="1173"/>
      <point x="622" y="1150"/>
      <point x="579" y="1150" type="curve" smooth="yes"/>
      <point x="572" y="1150" type="line" smooth="yes"/>
      <point x="524" y="1150"/>
      <point x="498" y="1177"/>
      <point x="476" y="1234" type="curve" smooth="yes"/>
      <point x="414" y="1396" type="line"/>
      <point x="20" y="1396" type="line"/>
      <point x="113" y="1159" type="line" smooth="yes"/>
      <point x="210" y="913"/>
      <point x="338" y="831"/>
    </contour>
    <contour>
      <point x="1441" y="543" type="line"/>
      <point x="1831" y="534" type="line"/>
      <point x="1831" y="545" type="line" smooth="yes"/>
      <point x="1831" y="927"/>
      <point x="1610" y="1150"/>
      <point x="1201" y="1150" type="curve" smooth="yes"/>
      <point x="1174" y="1150" type="line"/>
      <point x="1112" y="815" type="line"/>
      <point x="1126" y="815" type="line"/>
      <point x="1332" y="815"/>
      <point x="1441" y="721"/>
      <point x="1441" y="550" type="curve" smooth="yes"/>
    </contour>
  </outline>
</glyph>
<glyph name="Ba.te" format="2">
  <advance width="2048"/>
  <unicode hex="0C2C"/>
  <anchor x="1017" y="-67" name="bottom"/>
  <outline>
    <contour>
      <point x="584" y="-48" type="curve" smooth="yes"/>
      <point x="837" y="-48"/>
      <point x="984" y="48"/>
      <point x="1013" y="221" type="curve"/>
      <point x="1024" y="221" type="line"/>
      <point x="1056" y="48"/>
      <point x="1196" y="-48"/>
      <point x="1444" y="-48" type="curve" smooth="yes"/>
      <point x="1776" y="-48"/>
      <point x="1958" y="158"/>
      <point x="1958" y="530" type="curve" smooth="yes"/>
      <point x="1958" y="541" type="line"/>
      <point x="1568" y="541" type="line"/>
      <point x="1568" y="534" type="line" smooth="yes"/>
      <point x="1568" y="381"/>
      <point x="1504" y="308"/>
      <point x="1381" y="308" type="curve" smooth="yes"/>
      <point x="1274" y="308"/>
      <point x="1213" y="354"/>
      <point x="1202" y="441" type="curve" smooth="yes"/>
      <point x="1197" y="482" type="line"/>
      <point x="840" y="482" type="line"/>
      <point x="835" y="440" type="line" smooth="yes"/>
      <point x="824" y="345"/>
      <point x="750" y="294"/>
      <point x="628" y="294" type="curve" smooth="yes"/>
      <point x="529" y="294"/>
      <point x="475" y="317"/>
      <point x="475" y="358" type="curve" smooth="yes"/>
      <point x="475" y="360" type="line" smooth="yes"/>
      <point x="475" y="400"/>
      <point x="509" y="422"/>
      <point x="691" y="468" type="curve" smooth="yes"/>
      <point x="992" y="544"/>
      <point x="1068" y="659"/>
      <point x="1068" y="817" type="curve" smooth="yes"/>
      <point x="1068" y="821" type="line" smooth="yes"/>
      <point x="1068" y="1052"/>
      <point x="895" y="1173"/>
      <point x="582" y="1173" type="curve" smooth="yes"/>
      <point x="272" y="1173"/>
      <point x="107" y="1057"/>
      <point x="107" y="833" type="curve" smooth="yes"/>
      <point x="107" y="831" type="line" smooth="yes"/>
      <point x="107" y="789"/>
      <point x="117" y="730"/>
      <point x="141" y="680" type="curve"/>
      <point x="477" y="680" type="line"/>
      <point x="459" y="719"/>
      <point x="454" y="749"/>
      <point x="454" y="778" type="curve" smooth="yes"/>
      <point x="454" y="780" type="line" smooth="yes"/>
      <point x="454" y="844"/>
      <point x="497" y="874"/>
      <point x="586" y="874" type="curve" smooth="yes"/>
      <point x="671" y="874"/>
      <point x="712" y="851"/>
      <point x="712" y="806" type="curve" smooth="yes"/>
      <point x="712" y="805" type="line" smooth="yes"/>
      <point x="712" y="762"/>
      <point x="668" y="739"/>
      <point x="498" y="696" type="curve" smooth="yes"/>
      <point x="149" y="608"/>
      <point x="80" y="493"/>
      <point x="80" y="320" type="curve" smooth="yes"/>
      <point x="80" y="313" type="line" smooth="yes"/>
      <point x="80" y="84"/>
      <point x="258" y="-48"/>
    </contour>
    <component base="Terminals.te" xOffset="1189"/>
  </outline>
</glyph>
<glyph name="Ma.te" format="2">
  <advance width="2811"/>
  <unicode hex="0C2E"/>
  <anchor x="1395" y="-67" name="bottom"/>
  <outline>
    <contour>
      <point x="505" y="-48" type="curve" smooth="yes"/>
      <point x="732" y="-48"/>
      <point x="866" y="45"/>
      <point x="891" y="206" type="curve"/>
      <point x="901" y="206" type="line"/>
      <point x="946" y="43"/>
      <point x="1076" y="-48"/>
      <point x="1306" y="-48" type="curve" smooth="yes"/>
      <point x="1546" y="-48"/>
      <point x="1717" y="82"/>
      <point x="1758" y="304" type="curve" smooth="yes"/>
      <point x="1772" y="380"/>
      <point x="1815" y="445"/>
      <point x="1815" y="527" type="curve" smooth="yes"/>
      <point x="1815" y="536" type="line" smooth="yes"/>
      <point x="1815" y="931"/>
      <point x="1551" y="1141"/>
      <point x="1030" y="1141" type="curve" smooth="yes"/>
      <point x="887" y="1141" type="line"/>
      <point x="699" y="1007" type="line"/>
      <point x="720" y="840" type="line"/>
      <point x="1006" y="840" type="line" smooth="yes"/>
      <point x="1282" y="840"/>
      <point x="1425" y="733"/>
      <point x="1425" y="538" type="curve" smooth="yes"/>
      <point x="1425" y="530" type="line" smooth="yes"/>
      <point x="1425" y="383"/>
      <point x="1354" y="301"/>
      <point x="1224" y="301" type="curve" smooth="yes"/>
      <point x="1106" y="301"/>
      <point x="1037" y="353"/>
      <point x="1006" y="456" type="curve" smooth="yes"/>
      <point x="1003" y="466" type="line" smooth="yes"/>
      <point x="944" y="664"/>
      <point x="783" y="758"/>
      <point x="544" y="758" type="curve" smooth="yes"/>
      <point x="243" y="758"/>
      <point x="70" y="609"/>
      <point x="70" y="349" type="curve" smooth="yes"/>
      <point x="70" y="340" type="line" smooth="yes"/>
      <point x="70" y="91"/>
      <point x="225" y="-48"/>
    </contour>
    <contour>
      <point x="547" y="290" type="curve" smooth="yes"/>
      <point x="467" y="290"/>
      <point x="423" y="315"/>
      <point x="423" y="361" type="curve" smooth="yes"/>
      <point x="423" y="365" type="line" smooth="yes"/>
      <point x="423" y="411"/>
      <point x="467" y="436"/>
      <point x="547" y="436" type="curve" smooth="yes"/>
      <point x="627" y="436"/>
      <point x="672" y="411"/>
      <point x="672" y="365" type="curve" smooth="yes"/>
      <point x="672" y="361" type="line" smooth="yes"/>
      <point x="672" y="315"/>
      <point x="627" y="290"/>
    </contour>
    <contour>
      <point x="720" y="840" type="curve"/>
      <point x="921" y="1015" type="line"/>
      <point x="1096" y="1015"/>
      <point x="1177" y="1098"/>
      <point x="1240" y="1166" type="curve" smooth="yes"/>
      <point x="1320" y="1253" type="line" smooth="yes"/>
      <point x="1361" y="1298"/>
      <point x="1422" y="1323"/>
      <point x="1501" y="1323" type="curve" smooth="yes"/>
      <point x="1637" y="1323" type="line"/>
      <point x="1603" y="1663" type="line"/>
      <point x="1453" y="1663" type="line" smooth="yes"/>
      <point x="1303" y="1663"/>
      <point x="1179" y="1617"/>
      <point x="1079" y="1495" type="curve" smooth="yes"/>
      <point x="857" y="1225" type="line" smooth="yes"/>
      <point x="813" y="1172"/>
      <point x="780" y="1150"/>
      <point x="738" y="1150" type="curve" smooth="yes"/>
      <point x="731" y="1150" type="line" smooth="yes"/>
      <point x="683" y="1150"/>
      <point x="656" y="1177"/>
      <point x="634" y="1234" type="curve" smooth="yes"/>
      <point x="572" y="1396" type="line"/>
      <point x="172" y="1396" type="line"/>
      <point x="236" y="1207" type="line" smooth="yes"/>
      <point x="315" y="975"/>
      <point x="417" y="840"/>
    </contour>
    <component base="matraU.te" xOffset="1893"/>
  </outline>
</glyph>
<glyph name="Ra.te" format="2">
  <advance width="1690"/>
  <unicode hex="0C30"/>
  <anchor x="845" y="-67" name="bottom"/>
  <outline>
    <contour>
      <point x="845" y="-50" type="curve" smooth="yes"/>
      <point x="1341" y="-50"/>
      <point x="1600" y="157"/>
      <point x="1600" y="538" type="curve" smooth="yes"/>
      <point x="1600" y="550" type="line" smooth="yes"/>
      <point x="1600" y="924"/>
      <point x="1341" y="1132"/>
      <point x="845" y="1132" type="curve" smooth="yes"/>
      <point x="350" y="1132"/>
      <point x="90" y="924"/>
      <point x="90" y="550" type="curve" smooth="yes"/>
      <point x="90" y="538" type="line" smooth="yes"/>
      <point x="90" y="157"/>
      <point x="350" y="-50"/>
    </contour>
    <contour>
      <point x="845" y="295" type="curve" smooth="yes"/>
      <point x="603" y="295"/>
      <point x="480" y="386"/>
      <point x="480" y="557" type="curve" smooth="yes"/>
      <point x="480" y="566" type="line" smooth="yes"/>
      <point x="480" y="735"/>
      <point x="603" y="828"/>
      <point x="845" y="828" type="curve" smooth="yes"/>
      <point x="1087" y="828"/>
      <point x="1210" y="735"/>
      <point x="1210" y="566" type="curve" smooth="yes"/>
      <point x="1210" y="557" type="line" smooth="yes"/>
      <point x="1210" y="386"/>
      <point x="1087" y="295"/>
    </contour>
    <contour>
      <point x="740" y="1015" type="curve"/>
      <point x="998" y="1015" type="line"/>
      <point x="1177" y="1015"/>
      <point x="1259" y="1105"/>
      <point x="1316" y="1166" type="curve" smooth="yes"/>
      <point x="1397" y="1253" type="line" smooth="yes"/>
      <point x="1438" y="1297"/>
      <point x="1498" y="1323"/>
      <point x="1578" y="1323" type="curve" smooth="yes"/>
      <point x="1693" y="1323" type="line"/>
      <point x="1659" y="1663" type="line"/>
      <point x="1530" y="1663" type="line" smooth="yes"/>
      <point x="1380" y="1663"/>
      <point x="1256" y="1617"/>
      <point x="1156" y="1495" type="curve" smooth="yes"/>
      <point x="934" y="1225" type="line" smooth="yes"/>
      <point x="890" y="1172"/>
      <point x="857" y="1150"/>
      <point x="814" y="1150" type="curve" smooth="yes"/>
      <point x="807" y="1150" type="line" smooth="yes"/>
      <point x="759" y="1150"/>
      <point x="733" y="1177"/>
      <point x="711" y="1234" type="curve" smooth="yes"/>
      <point x="649" y="1396" type="line"/>
      <point x="248" y="1396" type="line"/>
      <point x="313" y="1207" type="line" smooth="yes"/>
      <point x="354" y="1089"/>
      <point x="451" y="1015"/>
    </contour>
  </outline>
</glyph>
<glyph name="La.te" format="2">
  <advance width="1909"/>
  <unicode hex="0C32"/>
  <anchor x="953" y="-67" name="bottom"/>
  <outline>
    <contour>
      <point x="953" y="-50" type="curve" smooth="yes"/>
      <point x="1524" y="-50"/>
      <point x="1819" y="174"/>
      <point x="1819" y="589" type="curve" smooth="yes"/>
      <point x="1819" y="595" type="line" smooth="yes"/>
      <point x="1819" y="942"/>
      <point x="1613" y="1150"/>
      <point x="1263" y="1150" type="curve" smooth="yes"/>
      <point x="1236" y="1150" type="line"/>
      <point x="1174" y="815" type="line"/>
      <point x="1188" y="815" type="line" smooth="yes"/>
      <point x="1345" y="815"/>
      <point x="1429" y="735"/>
      <point x="1429" y="596" type="curve" smooth="yes"/>
      <point x="1429" y="591" type="line" smooth="yes"/>
      <point x="1429" y="397"/>
      <point x="1268" y="290"/>
      <point x="953" y="290" type="curve" smooth="yes"/>
      <point x="633" y="290"/>
      <point x="478" y="409"/>
      <point x="478" y="619" type="curve"/>
      <point x="478" y="623" type="line"/>
      <point x="478" y="625"/>
      <point x="478" y="625"/>
      <point x="478" y="627" type="curve"/>
      <point x="494" y="627" type="line"/>
      <point x="491" y="653" type="line"/>
      <point x="491" y="657" type="line"/>
      <point x="491" y="826"/>
      <point x="547" y="881"/>
      <point x="649" y="881" type="curve" smooth="yes"/>
      <point x="717" y="881"/>
      <point x="756" y="851"/>
      <point x="756" y="801" type="curve" smooth="yes"/>
      <point x="756" y="799" type="line" smooth="yes"/>
      <point x="756" y="749"/>
      <point x="718" y="719"/>
      <point x="644" y="719" type="curve" smooth="yes"/>
      <point x="567" y="719"/>
      <point x="507" y="749"/>
      <point x="474" y="813" type="curve"/>
      <point x="467" y="710" type="line"/>
      <point x="489" y="529"/>
      <point x="594" y="475"/>
      <point x="763" y="475" type="curve" smooth="yes"/>
      <point x="984" y="475"/>
      <point x="1112" y="596"/>
      <point x="1112" y="799" type="curve" smooth="yes"/>
      <point x="1112" y="805" type="line" smooth="yes"/>
      <point x="1112" y="1038"/>
      <point x="955" y="1173"/>
      <point x="651" y="1173" type="curve" smooth="yes"/>
      <point x="289" y="1173"/>
      <point x="90" y="974"/>
      <point x="90" y="623" type="curve" smooth="yes"/>
      <point x="90" y="618" type="line" smooth="yes"/>
      <point x="90" y="190"/>
      <point x="387" y="-50"/>
    </contour>
  </outline>
</glyph>
<glyph name="Lla.te" format="2">
  <advance width="1852"/>
  <unicode hex="0C33"/>
  <anchor x="935" y="-67" name="bottom"/>
  <outline>
    <contour>
      <point x="1353" y="860" type="curve"/>
      <point x="1453" y="906" type="line"/>
      <point x="1601" y="906"/>
      <point x="1706" y="972"/>
      <point x="1763" y="1047" type="curve" smooth="yes"/>
      <point x="1919" y="1253" type="line" smooth="yes"/>
      <point x="1951" y="1296"/>
      <point x="2018" y="1323"/>
      <point x="2101" y="1323" type="curve" smooth="yes"/>
      <point x="2179" y="1323" type="line"/>
      <point x="2145" y="1663" type="line"/>
      <point x="2053" y="1663" type="line" smooth="yes"/>
      <point x="1885" y="1663"/>
      <point x="1764" y="1612"/>
      <point x="1679" y="1495" type="curve" smooth="yes"/>
      <point x="1483" y="1225" type="line" smooth="yes"/>
      <point x="1439" y="1164"/>
      <point x="1418" y="1150"/>
      <point x="1384" y="1150" type="curve" smooth="yes"/>
      <point x="1377" y="1150" type="line" smooth="yes"/>
      <point x="1329" y="1150"/>
      <point x="1314" y="1186"/>
      <point x="1295" y="1234" type="curve" smooth="yes"/>
      <point x="1232" y="1396" type="line"/>
      <point x="839" y="1396" type="line"/>
      <point x="917" y="1207" type="line" smooth="yes"/>
      <point x="1009" y="983"/>
      <point x="1090" y="860"/>
    </contour>
    <contour>
      <point x="935" y="397" type="line"/>
      <point x="1149" y="356" type="line"/>
      <point x="1579" y="365"/>
      <point x="1782" y="520"/>
      <point x="1782" y="760" type="curve"/>
      <point x="1782" y="762" type="line"/>
      <point x="1782" y="922"/>
      <point x="1661" y="1041"/>
      <point x="1346" y="1050" type="curve"/>
      <point x="1298" y="863" type="line"/>
      <point x="1371" y="856"/>
      <point x="1405" y="821"/>
      <point x="1405" y="758" type="curve"/>
      <point x="1405" y="755" type="line"/>
      <point x="1405" y="650"/>
      <point x="1280" y="571"/>
      <point x="935" y="571" type="curve" smooth="yes"/>
      <point x="613" y="571"/>
      <point x="447" y="620"/>
      <point x="414" y="735" type="curve" smooth="yes"/>
      <point x="412" y="742" type="line"/>
      <point x="426" y="742" type="line"/>
      <point x="424" y="844" type="line"/>
      <point x="424" y="847" type="line"/>
      <point x="424" y="917"/>
      <point x="472" y="949"/>
      <point x="542" y="949" type="curve" smooth="yes"/>
      <point x="608" y="949"/>
      <point x="640" y="927"/>
      <point x="640" y="890" type="curve" smooth="yes"/>
      <point x="640" y="886" type="line" smooth="yes"/>
      <point x="640" y="847"/>
      <point x="608" y="828"/>
      <point x="542" y="828" type="curve" smooth="yes"/>
      <point x="483" y="828"/>
      <point x="444" y="842"/>
      <point x="417" y="879" type="curve"/>
      <point x="421" y="742" type="line"/>
      <point x="465" y="678"/>
      <point x="551" y="641"/>
      <point x="679" y="641" type="curve" smooth="yes"/>
      <point x="841" y="641"/>
      <point x="972" y="719"/>
      <point x="972" y="890" type="curve" smooth="yes"/>
      <point x="972" y="894" type="line" smooth="yes"/>
      <point x="972" y="1084"/>
      <point x="825" y="1185"/>
      <point x="542" y="1185" type="curve" smooth="yes"/>
      <point x="234" y="1185"/>
      <point x="70" y="1050"/>
      <point x="70" y="822" type="curve" smooth="yes"/>
      <point x="70" y="813" type="line" smooth="yes"/>
      <point x="70" y="541"/>
      <point x="276" y="365"/>
      <point x="713" y="356" type="curve"/>
    </contour>
    <contour>
      <point x="935" y="523" type="curve" smooth="yes"/>
      <point x="613" y="523"/>
      <point x="414" y="450"/>
      <point x="414" y="249" type="curve" smooth="yes"/>
      <point x="414" y="242" type="line" smooth="yes"/>
      <point x="414" y="59"/>
      <point x="576" y="-53"/>
      <point x="935" y="-53" type="curve" smooth="yes"/>
      <point x="1294" y="-53"/>
      <point x="1456" y="59"/>
      <point x="1456" y="242" type="curve" smooth="yes"/>
      <point x="1456" y="249" type="line" smooth="yes"/>
      <point x="1456" y="450"/>
      <point x="1257" y="523"/>
    </contour>
    <contour>
      <point x="935" y="208" type="curve" smooth="yes"/>
      <point x="823" y="208"/>
      <point x="770" y="230"/>
      <point x="770" y="279" type="curve"/>
      <point x="770" y="283" type="line"/>
      <point x="770" y="333"/>
      <point x="823" y="354"/>
      <point x="935" y="354" type="curve" smooth="yes"/>
      <point x="1046" y="354"/>
      <point x="1100" y="333"/>
      <point x="1100" y="283" type="curve"/>
      <point x="1100" y="279" type="line"/>
      <point x="1100" y="230"/>
      <point x="1046" y="208"/>
    </contour>
  </outline>
</glyph>
<glyph name="Llla.te" format="2">
  <advance width="2245"/>
  <unicode hex="0C34"/>
  <anchor x="1120" y="-67" name="bottom"/>
  <outline>
    <contour>
      <point x="663" y="-48" type="curve" smooth="yes"/>
      <point x="930" y="-48"/>
      <point x="1083" y="48"/>
      <point x="1117" y="221" type="curve"/>
      <point x="1128" y="221" type="line"/>
      <point x="1162" y="48"/>
      <point x="1315" y="-48"/>
      <point x="1582" y="-48" type="curve" smooth="yes"/>
      <point x="1954" y="-48"/>
      <point x="2155" y="171"/>
      <point x="2155" y="571" type="curve" smooth="yes"/>
      <point x="2155" y="582" type="line" smooth="yes"/>
      <point x="2155" y="961"/>
      <point x="1955" y="1173"/>
      <point x="1601" y="1173" type="curve" smooth="yes"/>
      <point x="1300" y="1173"/>
      <point x="1147" y="1038"/>
      <point x="1147" y="805" type="curve" smooth="yes"/>
      <point x="1147" y="799" type="line" smooth="yes"/>
      <point x="1147" y="596"/>
      <point x="1272" y="475"/>
      <point x="1489" y="475" type="curve" smooth="yes"/>
      <point x="1655" y="475"/>
      <point x="1756" y="529"/>
      <point x="1777" y="710" type="curve"/>
      <point x="1770" y="813" type="line"/>
      <point x="1740" y="749"/>
      <point x="1681" y="719"/>
      <point x="1608" y="719" type="curve" smooth="yes"/>
      <point x="1537" y="719"/>
      <point x="1503" y="749"/>
      <point x="1503" y="799" type="curve"/>
      <point x="1503" y="801" type="line"/>
      <point x="1503" y="851"/>
      <point x="1539" y="881"/>
      <point x="1603" y="881" type="curve" smooth="yes"/>
      <point x="1699" y="881"/>
      <point x="1754" y="826"/>
      <point x="1754" y="657" type="curve"/>
      <point x="1754" y="653" type="line"/>
      <point x="1749" y="627" type="line"/>
      <point x="1765" y="627" type="line"/>
      <point x="1767" y="614"/>
      <point x="1767" y="602"/>
      <point x="1767" y="589" type="curve" smooth="yes"/>
      <point x="1767" y="584" type="line" smooth="yes"/>
      <point x="1767" y="399"/>
      <point x="1685" y="308"/>
      <point x="1519" y="308" type="curve" smooth="yes"/>
      <point x="1385" y="308"/>
      <point x="1318" y="356"/>
      <point x="1306" y="445" type="curve" smooth="yes"/>
      <point x="1301" y="482" type="line"/>
      <point x="944" y="482" type="line"/>
      <point x="939" y="445" type="line" smooth="yes"/>
      <point x="927" y="356"/>
      <point x="860" y="308"/>
      <point x="725" y="308" type="curve" smooth="yes"/>
      <point x="560" y="308"/>
      <point x="478" y="399"/>
      <point x="478" y="584" type="curve" smooth="yes"/>
      <point x="478" y="589" type="line" smooth="yes"/>
      <point x="478" y="602"/>
      <point x="478" y="614"/>
      <point x="480" y="627" type="curve"/>
      <point x="496" y="627" type="line"/>
      <point x="491" y="653" type="line"/>
      <point x="491" y="657" type="line"/>
      <point x="491" y="826"/>
      <point x="546" y="881"/>
      <point x="642" y="881" type="curve" smooth="yes"/>
      <point x="706" y="881"/>
      <point x="741" y="851"/>
      <point x="741" y="801" type="curve"/>
      <point x="741" y="799" type="line"/>
      <point x="741" y="749"/>
      <point x="708" y="719"/>
      <point x="636" y="719" type="curve" smooth="yes"/>
      <point x="563" y="719"/>
      <point x="505" y="749"/>
      <point x="474" y="813" type="curve"/>
      <point x="467" y="710" type="line"/>
      <point x="489" y="529"/>
      <point x="590" y="475"/>
      <point x="756" y="475" type="curve" smooth="yes"/>
      <point x="973" y="475"/>
      <point x="1097" y="596"/>
      <point x="1097" y="799" type="curve" smooth="yes"/>
      <point x="1097" y="805" type="line" smooth="yes"/>
      <point x="1097" y="1038"/>
      <point x="944" y="1173"/>
      <point x="644" y="1173" type="curve" smooth="yes"/>
      <point x="289" y="1173"/>
      <point x="90" y="961"/>
      <point x="90" y="582" type="curve" smooth="yes"/>
      <point x="90" y="571" type="line" smooth="yes"/>
      <point x="90" y="173"/>
      <point x="289" y="-48"/>
    </contour>
  </outline>
</glyph>
<glyph name="Sha.te" format="2">
  <advance width="1718"/>
  <unicode hex="0C36"/>
  <anchor x="857" y="-67" name="bottom"/>
  <outline>
    <contour>
      <point x="1093" y="-50" type="curve" smooth="yes"/>
      <point x="1443" y="-50"/>
      <point x="1628" y="94"/>
      <point x="1628" y="345" type="curve" smooth="yes"/>
      <point x="1628" y="354" type="line" smooth="yes"/>
      <point x="1628" y="521"/>
      <point x="1529" y="637"/>
      <point x="1354" y="716" type="curve" smooth="yes"/>
      <point x="1237" y="769" type="line"/>
      <point x="1109" y="812"/>
      <point x="988" y="831"/>
      <point x="815" y="831" type="curve" smooth="yes"/>
      <point x="801" y="831" type="line" smooth="yes"/>
      <point x="327" y="831"/>
      <point x="60" y="657"/>
      <point x="60" y="301" type="curve" smooth="yes"/>
      <point x="60" y="292" type="line" smooth="yes"/>
      <point x="60" y="233"/>
      <point x="69" y="171"/>
      <point x="83" y="119" type="curve"/>
      <point x="454" y="119" type="line"/>
      <point x="443" y="166"/>
      <point x="438" y="217"/>
      <point x="438" y="262" type="curve" smooth="yes"/>
      <point x="438" y="271" type="line" smooth="yes"/>
      <point x="438" y="472"/>
      <point x="571" y="579"/>
      <point x="803" y="579" type="curve" smooth="yes"/>
      <point x="817" y="579" type="line" smooth="yes"/>
      <point x="861" y="579"/>
      <point x="904" y="577"/>
      <point x="945" y="571" type="curve"/>
      <point x="1061" y="529" type="line"/>
      <point x="1185" y="511"/>
      <point x="1256" y="459"/>
      <point x="1256" y="383" type="curve" smooth="yes"/>
      <point x="1256" y="379" type="line" smooth="yes"/>
      <point x="1256" y="312"/>
      <point x="1205" y="274"/>
      <point x="1094" y="274" type="curve" smooth="yes"/>
      <point x="991" y="274"/>
      <point x="941" y="308"/>
      <point x="941" y="361" type="curve" smooth="yes"/>
      <point x="941" y="365" type="line" smooth="yes"/>
      <point x="941" y="424"/>
      <point x="989" y="468"/>
      <point x="1173" y="539" type="curve"/>
      <point x="1283" y="614" type="line"/>
      <point x="1497" y="694"/>
      <point x="1588" y="765"/>
      <point x="1588" y="906" type="curve" smooth="yes"/>
      <point x="1588" y="1072"/>
      <point x="1431" y="1150"/>
      <point x="1232" y="1150" type="curve" smooth="yes"/>
      <point x="1018" y="1150" type="line"/>
      <point x="884" y="922" type="line"/>
      <point x="1128" y="922" type="line" smooth="yes"/>
      <point x="1182" y="922"/>
      <point x="1212" y="906"/>
      <point x="1212" y="870" type="curve" smooth="yes"/>
      <point x="1212" y="833"/>
      <point x="1180" y="806"/>
      <point x="1061" y="758" type="curve"/>
      <point x="801" y="584" type="line"/>
      <point x="639" y="523"/>
      <point x="569" y="433"/>
      <point x="569" y="294" type="curve" smooth="yes"/>
      <point x="569" y="288" type="line" smooth="yes"/>
      <point x="569" y="75"/>
      <point x="751" y="-50"/>
    </contour>
    <contour>
      <point x="884" y="922" type="curve"/>
      <point x="1107" y="1015" type="line"/>
      <point x="1281" y="1015"/>
      <point x="1363" y="1098"/>
      <point x="1426" y="1166" type="curve" smooth="yes"/>
      <point x="1506" y="1253" type="line" smooth="yes"/>
      <point x="1547" y="1298"/>
      <point x="1608" y="1323"/>
      <point x="1687" y="1323" type="curve" smooth="yes"/>
      <point x="1789" y="1323" type="line"/>
      <point x="1755" y="1663" type="line"/>
      <point x="1639" y="1663" type="line" smooth="yes"/>
      <point x="1489" y="1663"/>
      <point x="1365" y="1617"/>
      <point x="1265" y="1495" type="curve" smooth="yes"/>
      <point x="1043" y="1225" type="line" smooth="yes"/>
      <point x="994" y="1165"/>
      <point x="961" y="1150"/>
      <point x="924" y="1150" type="curve" smooth="yes"/>
      <point x="916" y="1150" type="line" smooth="yes"/>
      <point x="868" y="1150"/>
      <point x="841" y="1177"/>
      <point x="820" y="1234" type="curve" smooth="yes"/>
      <point x="760" y="1396" type="line"/>
      <point x="359" y="1396" type="line"/>
      <point x="418" y="1226" type="line" smooth="yes"/>
      <point x="485" y="1033"/>
      <point x="586" y="922"/>
    </contour>
  </outline>
</glyph>
<glyph name="Sa.te" format="2">
  <advance width="1903"/>
  <unicode hex="0C38"/>
  <anchor x="927" y="-67" name="bottom"/>
  <outline>
    <contour>
      <point x="1247" y="-41" type="curve" smooth="yes"/>
      <point x="1610" y="-41"/>
      <point x="1813" y="169"/>
      <point x="1813" y="525" type="curve" smooth="yes"/>
      <point x="1813" y="536" type="line"/>
      <point x="1423" y="539" type="line"/>
      <point x="1423" y="529" type="line" smooth="yes"/>
      <point x="1423" y="377"/>
      <point x="1359" y="303"/>
      <point x="1238" y="303" type="curve" smooth="yes"/>
      <point x="1145" y="303"/>
      <point x="1093" y="346"/>
      <point x="1056" y="422" type="curve" smooth="yes"/>
      <point x="1037" y="461" type="line" smooth="yes"/>
      <point x="960" y="620"/>
      <point x="855" y="758"/>
      <point x="553" y="758" type="curve" smooth="yes"/>
      <point x="245" y="758"/>
      <point x="70" y="591"/>
      <point x="70" y="285" type="curve" smooth="yes"/>
      <point x="70" y="269" type="line" smooth="yes"/>
      <point x="70" y="183"/>
      <point x="88" y="84"/>
      <point x="124" y="-5" type="curve"/>
      <point x="522" y="-5" type="line"/>
      <point x="476" y="98"/>
      <point x="460" y="196"/>
      <point x="460" y="258" type="curve" smooth="yes"/>
      <point x="460" y="269" type="line" smooth="yes"/>
      <point x="460" y="368"/>
      <point x="499" y="417"/>
      <point x="576" y="417" type="curve" smooth="yes"/>
      <point x="650" y="417"/>
      <point x="675" y="377"/>
      <point x="714" y="294" type="curve" smooth="yes"/>
      <point x="736" y="247" type="line" smooth="yes"/>
      <point x="812" y="85"/>
      <point x="932" y="-41"/>
    </contour>
    <contour>
      <point x="551" y="831" type="curve" smooth="yes"/>
      <point x="579" y="831" type="line" smooth="yes"/>
      <point x="735" y="831"/>
      <point x="869" y="900"/>
      <point x="1001" y="1052" type="curve" smooth="yes"/>
      <point x="1172" y="1248" type="line" smooth="yes"/>
      <point x="1222" y="1305"/>
      <point x="1293" y="1317"/>
      <point x="1354" y="1317" type="curve" smooth="yes"/>
      <point x="1542" y="1317" type="line"/>
      <point x="1508" y="1657" type="line"/>
      <point x="1306" y="1657" type="line" smooth="yes"/>
      <point x="1136" y="1657"/>
      <point x="1024" y="1598"/>
      <point x="932" y="1492" type="curve" smooth="yes"/>
      <point x="699" y="1225" type="line" smooth="yes"/>
      <point x="654" y="1173"/>
      <point x="622" y="1150"/>
      <point x="579" y="1150" type="curve" smooth="yes"/>
      <point x="572" y="1150" type="line" smooth="yes"/>
      <point x="524" y="1150"/>
      <point x="498" y="1177"/>
      <point x="476" y="1234" type="curve" smooth="yes"/>
      <point x="414" y="1396" type="line"/>
      <point x="20" y="1396" type="line"/>
      <point x="112" y="1159" type="line" smooth="yes"/>
      <point x="202" y="927"/>
      <point x="325" y="831"/>
    </contour>
    <contour>
      <point x="1423" y="534" type="line"/>
      <point x="1813" y="530" type="line"/>
      <point x="1813" y="541" type="line" smooth="yes"/>
      <point x="1813" y="927"/>
      <point x="1599" y="1150"/>
      <point x="1201" y="1150" type="curve" smooth="yes"/>
      <point x="1174" y="1150" type="line"/>
      <point x="1112" y="815" type="line"/>
      <point x="1126" y="815" type="line"/>
      <point x="1322" y="815"/>
      <point x="1423" y="721"/>
      <point x="1423" y="546" type="curve" smooth="yes"/>
    </contour>
  </outline>
</glyph>
<glyph name="Avagraha.te" format="2">
  <advance width="1784"/>
  <unicode hex="0C3D"/>
  <outline>
    <contour>
      <point x="562" y="0" type="curve" smooth="yes"/>
      <point x="1714" y="0" type="line"/>
      <point x="1714" y="327" type="line"/>
      <point x="556" y="327" type="line" smooth="yes"/>
      <point x="490" y="327"/>
      <point x="461" y="333"/>
      <point x="461" y="358" type="curve" smooth="yes"/>
      <point x="461" y="359" type="line" smooth="yes"/>
      <point x="461" y="392"/>
      <point x="513" y="400"/>
      <point x="826" y="420" type="curve" smooth="yes"/>
      <point x="1353" y="454"/>
      <point x="1465" y="557"/>
      <point x="1465" y="780" type="curve" smooth="yes"/>
      <point x="1465" y="785" type="line" smooth="yes"/>
      <point x="1465" y="1041"/>
      <point x="1215" y="1155"/>
      <point x="800" y="1155" type="curve" smooth="yes"/>
      <point x="298" y="1155"/>
      <point x="125" y="1022"/>
      <point x="125" y="810" type="curve" smooth="yes"/>
      <point x="125" y="808" type="line" smooth="yes"/>
      <point x="125" y="781"/>
      <point x="128" y="758"/>
      <point x="135" y="726" type="curve"/>
      <point x="509" y="726" type="line"/>
      <point x="506" y="737"/>
      <point x="504" y="745"/>
      <point x="504" y="755" type="curve" smooth="yes"/>
      <point x="504" y="756" type="line" smooth="yes"/>
      <point x="504" y="798"/>
      <point x="566" y="831"/>
      <point x="799" y="831" type="curve" smooth="yes"/>
      <point x="1021" y="831"/>
      <point x="1084" y="813"/>
      <point x="1084" y="776" type="curve" smooth="yes"/>
      <point x="1084" y="775" type="line" smooth="yes"/>
      <point x="1084" y="741"/>
      <point x="1065" y="732"/>
      <point x="714" y="707" type="curve" smooth="yes"/>
      <point x="241" y="673"/>
      <point x="80" y="585"/>
      <point x="80" y="331" type="curve" smooth="yes"/>
      <point x="80" y="328" type="line" smooth="yes"/>
      <point x="80" y="134"/>
      <point x="206" y="0"/>
    </contour>
  </outline>
</glyph>
<glyph name="matraAa.te" format="2">
  <advance width="1341"/>
  <unicode hex="0C3E"/>
  <outline>
    <contour>
      <point x="754" y="85" type="curve" smooth="yes"/>
      <point x="1073" y="85"/>
      <point x="1251" y="256"/>
      <point x="1251" y="561" type="curve"/>
      <point x="1251" y="571" type="line"/>
      <point x="1251" y="929"/>
      <point x="1018" y="1150"/>
      <point x="573" y="1150" type="curve" smooth="yes"/>
      <point x="-502" y="1150" type="line"/>
      <point x="-504" y="835" type="line"/>
      <point x="573" y="835" type="line" smooth="yes"/>
      <point x="787" y="835"/>
      <point x="895" y="740"/>
      <point x="895" y="611" type="curve" smooth="yes"/>
      <point x="895" y="605" type="line"/>
      <point x="883" y="605" type="line"/>
      <point x="886" y="506" type="line"/>
      <point x="886" y="504" type="line"/>
      <point x="886" y="422"/>
      <point x="842" y="383"/>
      <point x="758" y="383" type="curve" smooth="yes"/>
      <point x="689" y="383"/>
      <point x="653" y="404"/>
      <point x="653" y="447" type="curve" smooth="yes"/>
      <point x="653" y="449" type="line" smooth="yes"/>
      <point x="653" y="491"/>
      <point x="694" y="514"/>
      <point x="756" y="514" type="curve" smooth="yes"/>
      <point x="811" y="514"/>
      <point x="860" y="504"/>
      <point x="893" y="477" type="curve"/>
      <point x="888" y="596" type="line"/>
      <point x="860" y="691"/>
      <point x="779" y="758"/>
      <point x="621" y="758" type="curve" smooth="yes"/>
      <point x="416" y="758"/>
      <point x="295" y="643"/>
      <point x="295" y="443" type="curve" smooth="yes"/>
      <point x="295" y="438" type="line" smooth="yes"/>
      <point x="295" y="214"/>
      <point x="461" y="85"/>
    </contour>
  </outline>
</glyph>
<glyph name="matraI.te" format="2">
  <unicode hex="0C3F"/>
  <outline>
    <contour>
      <point x="-769" y="881" type="curve" smooth="yes"/>
      <point x="-391" y="881"/>
      <point x="-199" y="1039"/>
      <point x="-199" y="1348" type="curve" smooth="yes"/>
      <point x="-199" y="1376" type="line" smooth="yes"/>
      <point x="-199" y="1634"/>
      <point x="-366" y="1794"/>
      <point x="-707" y="1794" type="curve" smooth="yes"/>
      <point x="-1029" y="1794"/>
      <point x="-1185" y="1688"/>
      <point x="-1185" y="1478" type="curve" smooth="yes"/>
      <point x="-1185" y="1472" type="line" smooth="yes"/>
      <point x="-1185" y="1304"/>
      <point x="-1061" y="1210"/>
      <point x="-841" y="1210" type="curve" smooth="yes"/>
      <point x="-655" y="1210"/>
      <point x="-579" y="1271"/>
      <point x="-550" y="1367" type="curve"/>
      <point x="-554" y="1498" type="line"/>
      <point x="-581" y="1452"/>
      <point x="-640" y="1433"/>
      <point x="-714" y="1433" type="curve" smooth="yes"/>
      <point x="-793" y="1433"/>
      <point x="-835" y="1447"/>
      <point x="-835" y="1480" type="curve"/>
      <point x="-835" y="1482" type="line"/>
      <point x="-835" y="1516"/>
      <point x="-793" y="1533"/>
      <point x="-714" y="1533" type="curve" smooth="yes"/>
      <point x="-608" y="1533"/>
      <point x="-559" y="1499"/>
      <point x="-559" y="1408" type="curve" smooth="yes"/>
      <point x="-559" y="1403" type="line"/>
      <point x="-559" y="1365" type="line"/>
      <point x="-542" y="1365" type="line"/>
      <point x="-542" y="1361" type="line" smooth="yes"/>
      <point x="-542" y="1215"/>
      <point x="-636" y="1140"/>
      <point x="-815" y="1140" type="curve" smooth="yes"/>
      <point x="-905" y="1140"/>
      <point x="-1040" y="1154"/>
      <point x="-1154" y="1194" type="curve"/>
      <point x="-1114" y="930" type="line"/>
      <point x="-1010" y="898"/>
      <point x="-886" y="881"/>
    </contour>
  </outline>
</glyph>
<glyph name="matraU.te" format="2">
  <advance width="918"/>
  <unicode hex="0C41"/>
  <outline>
    <contour>
      <point x="274" y="-48" type="curve" smooth="yes"/>
      <point x="632" y="-48"/>
      <point x="828" y="160"/>
      <point x="828" y="529" type="curve" smooth="yes"/>
      <point x="828" y="541" type="line"/>
      <point x="438" y="543" type="line"/>
      <point x="438" y="534" type="line" smooth="yes"/>
      <point x="438" y="383"/>
      <point x="347" y="299"/>
      <point x="182" y="299" type="curve" smooth="yes"/>
      <point x="16" y="299"/>
      <point x="-78" y="381"/>
      <point x="-78" y="522" type="curve" smooth="yes"/>
      <point x="-78" y="534" type="line"/>
      <point x="-194" y="534" type="line"/>
      <point x="-194" y="335" type="line" smooth="yes"/>
      <point x="-194" y="93"/>
      <point x="-21" y="-48"/>
    </contour>
    <component base="Terminals.te" xOffset="59"/>
  </outline>
</glyph>
<glyph name="matraUu.te" format="2">
  <advance width="2052"/>
  <unicode hex="0C42"/>
  <outline>
    <contour>
      <point x="312" y="-48" type="curve" smooth="yes"/>
      <point x="670" y="-48"/>
      <point x="866" y="148"/>
      <point x="866" y="495" type="curve" smooth="yes"/>
      <point x="866" y="507" type="line"/>
      <point x="476" y="543" type="line"/>
      <point x="476" y="534" type="line" smooth="yes"/>
      <point x="476" y="383"/>
      <point x="385" y="299"/>
      <point x="220" y="299" type="curve" smooth="yes"/>
      <point x="54" y="299"/>
      <point x="-40" y="381"/>
      <point x="-40" y="522" type="curve" smooth="yes"/>
      <point x="-40" y="534" type="line"/>
      <point x="-156" y="534" type="line"/>
      <point x="-156" y="335" type="line" smooth="yes"/>
      <point x="-156" y="93"/>
      <point x="17" y="-48"/>
    </contour>
    <contour>
      <point x="476" y="539" type="line"/>
      <point x="866" y="504" type="line"/>
      <point x="866" y="513" type="line" smooth="yes"/>
      <point x="866" y="814"/>
      <point x="654" y="1004"/>
      <point x="257" y="1004" type="curve"/>
      <point x="195" y="1150" type="line"/>
      <point x="133" y="815" type="line"/>
      <point x="147" y="815" type="line"/>
      <point x="364" y="815"/>
      <point x="476" y="719"/>
      <point x="476" y="545" type="curve" smooth="yes"/>
    </contour>
    <contour>
      <point x="1465" y="85" type="curve" smooth="yes"/>
      <point x="1784" y="85"/>
      <point x="1962" y="256"/>
      <point x="1962" y="561" type="curve"/>
      <point x="1962" y="571" type="line"/>
      <point x="1962" y="929"/>
      <point x="1729" y="1150"/>
      <point x="1284" y="1150" type="curve" smooth="yes"/>
      <point x="195" y="1150" type="line"/>
      <point x="193" y="890" type="line"/>
      <point x="849" y="835" type="line"/>
      <point x="1284" y="835" type="line" smooth="yes"/>
      <point x="1498" y="835"/>
      <point x="1606" y="740"/>
      <point x="1606" y="611" type="curve" smooth="yes"/>
      <point x="1606" y="605" type="line"/>
      <point x="1594" y="605" type="line"/>
      <point x="1597" y="506" type="line"/>
      <point x="1597" y="504" type="line"/>
      <point x="1597" y="422"/>
      <point x="1553" y="383"/>
      <point x="1469" y="383" type="curve" smooth="yes"/>
      <point x="1400" y="383"/>
      <point x="1364" y="404"/>
      <point x="1364" y="447" type="curve" smooth="yes"/>
      <point x="1364" y="449" type="line" smooth="yes"/>
      <point x="1364" y="491"/>
      <point x="1405" y="514"/>
      <point x="1467" y="514" type="curve" smooth="yes"/>
      <point x="1522" y="514"/>
      <point x="1571" y="504"/>
      <point x="1604" y="477" type="curve"/>
      <point x="1599" y="596" type="line"/>
      <point x="1571" y="691"/>
      <point x="1490" y="758"/>
      <point x="1332" y="758" type="curve" smooth="yes"/>
      <point x="1127" y="758"/>
      <point x="1006" y="643"/>
      <point x="1006" y="443" type="curve" smooth="yes"/>
      <point x="1006" y="438" type="line" smooth="yes"/>
      <point x="1006" y="214"/>
      <point x="1172" y="85"/>
    </contour>
  </outline>
</glyph>
<glyph name="matraVocalicR.te" format="2">
  <advance width="504"/>
  <unicode hex="0C43"/>
  <outline>
    <contour>
      <point x="59" y="-752" type="curve" smooth="yes"/>
      <point x="415" y="-752"/>
      <point x="580" y="-559"/>
      <point x="580" y="-199" type="curve" smooth="yes"/>
      <point x="580" y="-188" type="line" smooth="yes"/>
      <point x="580" y="278"/>
      <point x="391" y="522"/>
      <point x="71" y="534" type="curve"/>
      <point x="30" y="303" type="line"/>
      <point x="221" y="293"/>
      <point x="314" y="132"/>
      <point x="314" y="-188" type="curve" smooth="yes"/>
      <point x="314" y="-199" type="line" smooth="yes"/>
      <point x="314" y="-430"/>
      <point x="240" y="-547"/>
      <point x="44" y="-547" type="curve" smooth="yes"/>
      <point x="-93" y="-547"/>
      <point x="-173" y="-502"/>
      <point x="-184" y="-434" type="curve"/>
      <point x="-184" y="-434" type="line"/>
      <point x="-173" y="-434" type="line"/>
      <point x="-179" y="-388" type="line"/>
      <point x="-177" y="-383" type="line"/>
      <point x="-172" y="-320"/>
      <point x="-141" y="-283"/>
      <point x="-87" y="-283" type="curve" smooth="yes"/>
      <point x="-49" y="-283"/>
      <point x="-30" y="-297"/>
      <point x="-30" y="-323" type="curve"/>
      <point x="-30" y="-324" type="line"/>
      <point x="-30" y="-350"/>
      <point x="-49" y="-364"/>
      <point x="-89" y="-364" type="curve" smooth="yes"/>
      <point x="-123" y="-364"/>
      <point x="-159" y="-356"/>
      <point x="-193" y="-321" type="curve"/>
      <point x="-184" y="-429" type="line"/>
      <point x="-161" y="-475"/>
      <point x="-101" y="-500"/>
      <point x="-15" y="-500" type="curve" smooth="yes"/>
      <point x="122" y="-500"/>
      <point x="192" y="-440"/>
      <point x="192" y="-322" type="curve" smooth="yes"/>
      <point x="192" y="-316" type="line" smooth="yes"/>
      <point x="192" y="-188"/>
      <point x="98" y="-117"/>
      <point x="-84" y="-117" type="curve" smooth="yes"/>
      <point x="-299" y="-117"/>
      <point x="-409" y="-222"/>
      <point x="-409" y="-409" type="curve"/>
      <point x="-409" y="-410" type="line"/>
      <point x="-409" y="-626"/>
      <point x="-240" y="-752"/>
    </contour>
  </outline>
</glyph>
<glyph name="matraVocalicRr.te" format="2">
  <advance width="1238"/>
  <unicode hex="0C44"/>
  <outline>
    <contour>
      <point x="59" y="-752" type="curve" smooth="yes"/>
      <point x="415" y="-752"/>
      <point x="580" y="-559"/>
      <point x="580" y="-199" type="curve" smooth="yes"/>
      <point x="580" y="-188" type="line" smooth="yes"/>
      <point x="580" y="185"/>
      <point x="454" y="383"/>
      <point x="120" y="450" type="curve"/>
      <point x="71" y="534" type="line"/>
      <point x="30" y="303" type="line"/>
      <point x="221" y="293"/>
      <point x="314" y="132"/>
      <point x="314" y="-188" type="curve" smooth="yes"/>
      <point x="314" y="-199" type="line" smooth="yes"/>
      <point x="314" y="-430"/>
      <point x="240" y="-547"/>
      <point x="44" y="-547" type="curve" smooth="yes"/>
      <point x="-94" y="-547"/>
      <point x="-173" y="-502"/>
      <point x="-184" y="-434" type="curve"/>
      <point x="-184" y="-433" type="line"/>
      <point x="-173" y="-433" type="line"/>
      <point x="-179" y="-388" type="line"/>
      <point x="-177" y="-383" type="line"/>
      <point x="-173" y="-323"/>
      <point x="-143" y="-283"/>
      <point x="-87" y="-283" type="curve" smooth="yes"/>
      <point x="-49" y="-283"/>
      <point x="-30" y="-297"/>
      <point x="-30" y="-323" type="curve"/>
      <point x="-30" y="-324" type="line"/>
      <point x="-30" y="-350"/>
      <point x="-49" y="-364"/>
      <point x="-89" y="-364" type="curve" smooth="yes"/>
      <point x="-124" y="-364"/>
      <point x="-159" y="-356"/>
      <point x="-193" y="-321" type="curve"/>
      <point x="-184" y="-429" type="line"/>
      <point x="-161" y="-475"/>
      <point x="-103" y="-500"/>
      <point x="-15" y="-500" type="curve" smooth="yes"/>
      <point x="122" y="-500"/>
      <point x="192" y="-440"/>
      <point x="192" y="-322" type="curve" smooth="yes"/>
      <point x="192" y="-316" type="line" smooth="yes"/>
      <point x="192" y="-188"/>
      <point x="98" y="-117"/>
      <point x="-84" y="-117" type="curve" smooth="yes"/>
      <point x="-299" y="-117"/>
      <point x="-409" y="-222"/>
      <point x="-409" y="-409" type="curve"/>
      <point x="-409" y="-410" type="line"/>
      <point x="-409" y="-626"/>
      <point x="-240" y="-752"/>
    </contour>
    <contour>
      <point x="920" y="-152" type="curve" smooth="yes"/>
      <point x="1122" y="-152"/>
      <point x="1238" y="-44"/>
      <point x="1238" y="148" type="curve" smooth="yes"/>
      <point x="1238" y="153" type="line" smooth="yes"/>
      <point x="1238" y="403"/>
      <point x="1080" y="534"/>
      <point x="791" y="534" type="curve" smooth="yes"/>
      <point x="71" y="534" type="line"/>
      <point x="71" y="353" type="line"/>
      <point x="550" y="329" type="line"/>
      <point x="793" y="329" type="line" smooth="yes"/>
      <point x="950" y="329"/>
      <point x="1013" y="278"/>
      <point x="1013" y="170" type="curve"/>
      <point x="1013" y="167" type="line"/>
      <point x="1008" y="167" type="line"/>
      <point x="1005" y="109" type="line"/>
      <point x="1005" y="102" type="line"/>
      <point x="1005" y="58"/>
      <point x="981" y="26"/>
      <point x="927" y="26" type="curve" smooth="yes"/>
      <point x="891" y="26"/>
      <point x="869" y="43"/>
      <point x="869" y="68" type="curve"/>
      <point x="869" y="69" type="line"/>
      <point x="869" y="95"/>
      <point x="889" y="111"/>
      <point x="925" y="111" type="curve" smooth="yes"/>
      <point x="958" y="111"/>
      <point x="983" y="103"/>
      <point x="1012" y="88" type="curve"/>
      <point x="1010" y="167" type="line"/>
      <point x="996" y="224"/>
      <point x="944" y="270"/>
      <point x="849" y="270" type="curve" smooth="yes"/>
      <point x="718" y="270"/>
      <point x="642" y="198"/>
      <point x="642" y="67" type="curve"/>
      <point x="642" y="63" type="line"/>
      <point x="642" y="-74"/>
      <point x="745" y="-152"/>
    </contour>
  </outline>
</glyph>
<glyph name="matraE.te" format="2">
  <unicode hex="0C46"/>
  <outline>
    <contour>
      <point x="-448" y="1595" type="curve" smooth="yes"/>
      <point x="-1040" y="1595" type="line"/>
      <point x="-1085" y="1293" type="line"/>
      <point x="-468" y="1293" type="line" smooth="yes"/>
      <point x="-394" y="1293"/>
      <point x="-356" y="1270"/>
      <point x="-356" y="1221" type="curve" smooth="yes"/>
      <point x="-356" y="1172"/>
      <point x="-394" y="1150"/>
      <point x="-468" y="1150" type="curve" smooth="yes"/>
      <point x="-756" y="1150" type="line"/>
      <point x="-756" y="860" type="line"/>
      <point x="-446" y="860" type="line" smooth="yes"/>
      <point x="-149" y="860"/>
      <point x="0" y="983"/>
      <point x="0" y="1226" type="curve" smooth="yes"/>
      <point x="0" y="1469"/>
      <point x="-149" y="1595"/>
    </contour>
  </outline>
</glyph>
<glyph name="matraO.te" format="2">
  <advance width="1217"/>
  <unicode hex="0C4A"/>
  <outline>
    <contour>
      <point x="682" y="436" type="curve" smooth="yes"/>
      <point x="1000" y="436"/>
      <point x="1177" y="606"/>
      <point x="1177" y="949" type="curve" smooth="yes"/>
      <point x="1177" y="956" type="line" smooth="yes"/>
      <point x="1177" y="1274"/>
      <point x="981" y="1541"/>
      <point x="536" y="1541" type="curve" smooth="yes"/>
      <point x="302" y="1541"/>
      <point x="137" y="1473"/>
      <point x="75" y="1331" type="curve"/>
      <point x="68" y="1331" type="line"/>
      <point x="8" y="1514"/>
      <point x="-218" y="1617"/>
      <point x="-540" y="1617" type="curve" smooth="yes"/>
      <point x="-652" y="1617" type="line" smooth="yes"/>
      <point x="-1046" y="1617"/>
      <point x="-1236" y="1502"/>
      <point x="-1236" y="1277" type="curve" smooth="yes"/>
      <point x="-1236" y="1095"/>
      <point x="-1077" y="996"/>
      <point x="-787" y="996" type="curve" smooth="yes"/>
      <point x="-606" y="996" type="line"/>
      <point x="-578" y="1150" type="line"/>
      <point x="-735" y="1150" type="line" smooth="yes"/>
      <point x="-820" y="1150"/>
      <point x="-866" y="1172"/>
      <point x="-866" y="1218" type="curve" smooth="yes"/>
      <point x="-866" y="1278"/>
      <point x="-807" y="1306"/>
      <point x="-643" y="1306" type="curve" smooth="yes"/>
      <point x="-529" y="1306" type="line" smooth="yes"/>
      <point x="-279" y="1306"/>
      <point x="-126" y="1223"/>
      <point x="-117" y="1086" type="curve" smooth="yes"/>
      <point x="-115" y="1057" type="line"/>
      <point x="232" y="1057" type="line"/>
      <point x="233" y="1072" type="line" smooth="yes"/>
      <point x="239" y="1156"/>
      <point x="323" y="1225"/>
      <point x="508" y="1225" type="curve" smooth="yes"/>
      <point x="706" y="1225"/>
      <point x="821" y="1132"/>
      <point x="821" y="973" type="curve"/>
      <point x="821" y="954" type="line"/>
      <point x="809" y="954" type="line"/>
      <point x="812" y="855" type="line"/>
      <point x="812" y="853" type="line"/>
      <point x="812" y="772"/>
      <point x="769" y="734"/>
      <point x="686" y="734" type="curve" smooth="yes"/>
      <point x="618" y="734"/>
      <point x="583" y="754"/>
      <point x="583" y="796" type="curve"/>
      <point x="583" y="798" type="line"/>
      <point x="583" y="839"/>
      <point x="623" y="861"/>
      <point x="684" y="861" type="curve" smooth="yes"/>
      <point x="738" y="861"/>
      <point x="786" y="852"/>
      <point x="819" y="826" type="curve"/>
      <point x="814" y="945" type="line"/>
      <point x="786" y="1039"/>
      <point x="706" y="1105"/>
      <point x="549" y="1105" type="curve" smooth="yes"/>
      <point x="345" y="1105"/>
      <point x="225" y="991"/>
      <point x="225" y="792" type="curve" smooth="yes"/>
      <point x="225" y="787" type="line" smooth="yes"/>
      <point x="225" y="564"/>
      <point x="390" y="436"/>
    </contour>
  </outline>
</glyph>
<glyph name="matraAu.te" format="2">
  <advance width="1240"/>
  <unicode hex="0C4C"/>
  <outline>
    <contour>
      <point x="725" y="550" type="curve" smooth="yes"/>
      <point x="1043" y="550"/>
      <point x="1220" y="719"/>
      <point x="1220" y="1020" type="curve" smooth="yes"/>
      <point x="1220" y="1030" type="line" smooth="yes"/>
      <point x="1220" y="1381"/>
      <point x="987" y="1598"/>
      <point x="542" y="1598" type="curve" smooth="yes"/>
      <point x="-1086" y="1598" type="line"/>
      <point x="-1131" y="1296" type="line"/>
      <point x="-171" y="1296" type="line"/>
      <point x="-110" y="1309" type="line"/>
      <point x="204" y="1296" type="line"/>
      <point x="542" y="1296" type="line" smooth="yes"/>
      <point x="756" y="1296"/>
      <point x="864" y="1202"/>
      <point x="864" y="1074" type="curve" smooth="yes"/>
      <point x="864" y="1068" type="line"/>
      <point x="852" y="1068" type="line"/>
      <point x="855" y="969" type="line"/>
      <point x="855" y="967" type="line"/>
      <point x="855" y="886"/>
      <point x="812" y="848"/>
      <point x="729" y="848" type="curve" smooth="yes"/>
      <point x="661" y="848"/>
      <point x="626" y="868"/>
      <point x="626" y="910" type="curve"/>
      <point x="626" y="912" type="line"/>
      <point x="626" y="953"/>
      <point x="666" y="975"/>
      <point x="727" y="975" type="curve" smooth="yes"/>
      <point x="781" y="975"/>
      <point x="829" y="966"/>
      <point x="862" y="940" type="curve"/>
      <point x="857" y="1059" type="line"/>
      <point x="829" y="1153"/>
      <point x="749" y="1219"/>
      <point x="592" y="1219" type="curve" smooth="yes"/>
      <point x="388" y="1219"/>
      <point x="268" y="1105"/>
      <point x="268" y="906" type="curve" smooth="yes"/>
      <point x="268" y="901" type="line" smooth="yes"/>
      <point x="268" y="678"/>
      <point x="433" y="550"/>
    </contour>
    <contour>
      <point x="-525" y="978" type="line"/>
      <point x="-353" y="978" type="line" smooth="yes"/>
      <point x="-76" y="978"/>
      <point x="84" y="1050"/>
      <point x="84" y="1216" type="curve" smooth="yes"/>
      <point x="84" y="1397"/>
      <point x="-68" y="1480"/>
      <point x="-335" y="1480" type="curve" smooth="yes"/>
      <point x="-467" y="1480" type="line"/>
      <point x="-529" y="1296" type="line"/>
      <point x="-377" y="1296" type="line" smooth="yes"/>
      <point x="-301" y="1296"/>
      <point x="-262" y="1273"/>
      <point x="-262" y="1223" type="curve" smooth="yes"/>
      <point x="-262" y="1173"/>
      <point x="-301" y="1150"/>
      <point x="-377" y="1150" type="curve" smooth="yes"/>
      <point x="-525" y="1150" type="line"/>
    </contour>
  </outline>
</glyph>
<glyph name="Halant.te" format="2">
  <unicode hex="0C4D"/>
  <outline>
    <contour>
      <point x="-740" y="864" type="curve" smooth="yes"/>
      <point x="-448" y="864" type="line"/>
      <point x="-448" y="1150" type="line"/>
      <point x="-732" y="1150" type="line" smooth="yes"/>
      <point x="-801" y="1150"/>
      <point x="-824" y="1168"/>
      <point x="-824" y="1205" type="curve" smooth="yes"/>
      <point x="-824" y="1241"/>
      <point x="-801" y="1259"/>
      <point x="-732" y="1259" type="curve" smooth="yes"/>
      <point x="-213" y="1259" type="line"/>
      <point x="-213" y="1545" type="line"/>
      <point x="-765" y="1545" type="line" smooth="yes"/>
      <point x="-834" y="1545"/>
      <point x="-858" y="1563"/>
      <point x="-858" y="1600" type="curve" smooth="yes"/>
      <point x="-858" y="1637"/>
      <point x="-834" y="1656"/>
      <point x="-765" y="1656" type="curve" smooth="yes"/>
      <point x="85" y="1656" type="line"/>
      <point x="40" y="1953" type="line"/>
      <point x="-782" y="1953" type="line" smooth="yes"/>
      <point x="-1082" y="1953"/>
      <point x="-1221" y="1857"/>
      <point x="-1221" y="1659" type="curve" smooth="yes"/>
      <point x="-1221" y="1513"/>
      <point x="-1129" y="1426"/>
      <point x="-956" y="1405" type="curve"/>
      <point x="-956" y="1398" type="line"/>
      <point x="-1107" y="1363"/>
      <point x="-1186" y="1282"/>
      <point x="-1186" y="1153" type="curve" smooth="yes"/>
      <point x="-1186" y="959"/>
      <point x="-1040" y="864"/>
    </contour>
  </outline>
</glyph>
<glyph name="Lengthmark.te" format="2">
  <unicode hex="0C55"/>
  <outline>
    <contour>
      <point x="977" y="1911" type="curve"/>
      <point x="936" y="2202" type="line"/>
      <point x="864" y="2236"/>
      <point x="763" y="2258"/>
      <point x="653" y="2258" type="curve" smooth="yes"/>
      <point x="422" y="2258"/>
      <point x="293" y="2167"/>
      <point x="293" y="2011" type="curve" smooth="yes"/>
      <point x="293" y="1886"/>
      <point x="388" y="1808"/>
      <point x="591" y="1775" type="curve"/>
      <point x="726" y="1840" type="line"/>
      <point x="649" y="1854"/>
      <point x="626" y="1874"/>
      <point x="626" y="1906" type="curve" smooth="yes"/>
      <point x="626" y="1940"/>
      <point x="659" y="1964"/>
      <point x="751" y="1964" type="curve" smooth="yes"/>
      <point x="841" y="1964"/>
      <point x="915" y="1942"/>
    </contour>
  </outline>
</glyph>
<glyph name="matraAiLengthmark.te" format="2">
  <unicode hex="0C56"/>
  <anchor x="-146" y="-46" name="_bottom"/>
  <outline>
    <contour>
      <point x="-607" y="-775" type="curve" smooth="yes"/>
      <point x="533" y="-775" type="line"/>
      <point x="584" y="-515" type="line"/>
      <point x="-338" y="-515" type="line"/>
      <point x="-338" y="-509" type="line"/>
      <point x="-281" y="-481"/>
      <point x="-250" y="-434"/>
      <point x="-250" y="-364" type="curve" smooth="yes"/>
      <point x="-250" y="-357" type="line" smooth="yes"/>
      <point x="-250" y="-209"/>
      <point x="-379" y="-120"/>
      <point x="-599" y="-120" type="curve" smooth="yes"/>
      <point x="-838" y="-120"/>
      <point x="-970" y="-235"/>
      <point x="-970" y="-445" type="curve" smooth="yes"/>
      <point x="-970" y="-450" type="line" smooth="yes"/>
      <point x="-970" y="-656"/>
      <point x="-837" y="-775"/>
    </contour>
    <contour>
      <point x="-609" y="-515" type="curve" smooth="yes"/>
      <point x="-656" y="-515"/>
      <point x="-684" y="-487"/>
      <point x="-684" y="-441" type="curve" smooth="yes"/>
      <point x="-684" y="-437" type="line" smooth="yes"/>
      <point x="-684" y="-389"/>
      <point x="-656" y="-363"/>
      <point x="-609" y="-363" type="curve" smooth="yes"/>
      <point x="-561" y="-363"/>
      <point x="-533" y="-390"/>
      <point x="-533" y="-437" type="curve" smooth="yes"/>
      <point x="-533" y="-441" type="line" smooth="yes"/>
      <point x="-533" y="-488"/>
      <point x="-562" y="-515"/>
    </contour>
  </outline>
</glyph>
<glyph name="Tsa.te" format="2">
  <advance width="2041"/>
  <unicode hex="0C58"/>
  <anchor x="1044" y="-67" name="bottom"/>
  <outline>
    <contour>
      <point x="133" y="1476" type="line"/>
      <point x="994" y="1476" type="line" smooth="yes"/>
      <point x="1277" y="1476"/>
      <point x="1416" y="1639"/>
      <point x="1416" y="1842" type="curve" smooth="yes"/>
      <point x="1416" y="1851" type="line" smooth="yes"/>
      <point x="1416" y="2045"/>
      <point x="1290" y="2225"/>
      <point x="969" y="2225" type="curve" smooth="yes"/>
      <point x="697" y="2225"/>
      <point x="558" y="2104"/>
      <point x="558" y="1954" type="curve" smooth="yes"/>
      <point x="558" y="1949" type="line" smooth="yes"/>
      <point x="558" y="1871"/>
      <point x="599" y="1800"/>
      <point x="690" y="1760" type="curve"/>
      <point x="690" y="1752" type="line"/>
      <point x="70" y="1753" type="line"/>
    </contour>
    <contour>
      <point x="994" y="1752" type="curve"/>
      <point x="928" y="1752"/>
      <point x="887" y="1791"/>
      <point x="887" y="1851" type="curve" smooth="yes"/>
      <point x="887" y="1857" type="line" smooth="yes"/>
      <point x="887" y="1921"/>
      <point x="926" y="1956"/>
      <point x="994" y="1956" type="curve" smooth="yes"/>
      <point x="1053" y="1956"/>
      <point x="1095" y="1921"/>
      <point x="1095" y="1857" type="curve" smooth="yes"/>
      <point x="1095" y="1851" type="line" smooth="yes"/>
      <point x="1095" y="1791"/>
      <point x="1056" y="1752"/>
    </contour>
    <component base="Ca.te" xOffset="17"/>
  </outline>
</glyph>
<glyph name="Dza.te" format="2">
  <advance width="2004"/>
  <unicode hex="0C59"/>
  <anchor x="1018" y="-67" name="bottom"/>
  <outline>
    <contour>
      <point x="182" y="1280" type="line"/>
      <point x="1477" y="1280" type="line" smooth="yes"/>
      <point x="1760" y="1280"/>
      <point x="1899" y="1444"/>
      <point x="1899" y="1647" type="curve" smooth="yes"/>
      <point x="1899" y="1655" type="line" smooth="yes"/>
      <point x="1899" y="1849"/>
      <point x="1773" y="2029"/>
      <point x="1452" y="2029" type="curve" smooth="yes"/>
      <point x="1180" y="2029"/>
      <point x="1041" y="1908"/>
      <point x="1041" y="1759" type="curve" smooth="yes"/>
      <point x="1041" y="1753" type="line" smooth="yes"/>
      <point x="1041" y="1675"/>
      <point x="1082" y="1604"/>
      <point x="1173" y="1565" type="curve"/>
      <point x="1173" y="1556" type="line"/>
      <point x="119" y="1558" type="line"/>
    </contour>
    <contour>
      <point x="1477" y="1559" type="curve"/>
      <point x="1413" y="1559"/>
      <point x="1374" y="1597"/>
      <point x="1374" y="1655" type="curve" smooth="yes"/>
      <point x="1374" y="1661" type="line" smooth="yes"/>
      <point x="1374" y="1723"/>
      <point x="1412" y="1757"/>
      <point x="1477" y="1757" type="curve" smooth="yes"/>
      <point x="1534" y="1757"/>
      <point x="1575" y="1723"/>
      <point x="1575" y="1661" type="curve" smooth="yes"/>
      <point x="1575" y="1655" type="line" smooth="yes"/>
      <point x="1575" y="1597"/>
      <point x="1538" y="1559"/>
    </contour>
    <component base="Ja.te"/>
  </outline>
</glyph>
<glyph name="Rrr.te" format="2">
  <advance width="1990"/>
  <unicode hex="0C5A"/>
  <outline>
    <contour>
      <point x="374" y="502" type="line"/>
      <point x="1616" y="502" type="line"/>
      <point x="1616" y="760" type="line"/>
      <point x="388" y="760" type="line"/>
    </contour>
    <contour>
      <point x="588" y="-48" type="curve" smooth="yes"/>
      <point x="825" y="-48"/>
      <point x="966" y="55"/>
      <point x="991" y="242" type="curve"/>
      <point x="1001" y="242" type="line"/>
      <point x="1026" y="55"/>
      <point x="1167" y="-48"/>
      <point x="1404" y="-48" type="curve" smooth="yes"/>
      <point x="1726" y="-48"/>
      <point x="1902" y="134"/>
      <point x="1902" y="465" type="curve" smooth="yes"/>
      <point x="1902" y="482" type="line" smooth="yes"/>
      <point x="1902" y="940"/>
      <point x="1591" y="1172"/>
      <point x="996" y="1172" type="curve" smooth="yes"/>
      <point x="402" y="1172"/>
      <point x="90" y="940"/>
      <point x="90" y="482" type="curve" smooth="yes"/>
      <point x="90" y="465" type="line" smooth="yes"/>
      <point x="90" y="134"/>
      <point x="266" y="-48"/>
    </contour>
    <contour>
      <point x="651" y="308" type="curve" smooth="yes"/>
      <point x="530" y="308"/>
      <point x="470" y="368"/>
      <point x="470" y="493" type="curve" smooth="yes"/>
      <point x="470" y="511" type="line" smooth="yes"/>
      <point x="470" y="762"/>
      <point x="647" y="868"/>
      <point x="996" y="868" type="curve" smooth="yes"/>
      <point x="1345" y="868"/>
      <point x="1522" y="762"/>
      <point x="1522" y="511" type="curve" smooth="yes"/>
      <point x="1522" y="493" type="line" smooth="yes"/>
      <point x="1522" y="368"/>
      <point x="1462" y="308"/>
      <point x="1341" y="308" type="curve" smooth="yes"/>
      <point x="1235" y="308"/>
      <point x="1192" y="358"/>
      <point x="1178" y="434" type="curve" smooth="yes"/>
      <point x="1174" y="456" type="line"/>
      <point x="818" y="456" type="line"/>
      <point x="814" y="434" type="line" smooth="yes"/>
      <point x="799" y="351"/>
      <point x="749" y="308"/>
    </contour>
  </outline>
</glyph>
<glyph name="vowelVocalicRr.te" format="2">
  <advance width="4970"/>
  <unicode hex="0C60"/>
  <anchor x="970" y="0" name="_bottom"/>
  <outline>
    <contour>
      <point x="584" y="-48" type="curve" smooth="yes"/>
      <point x="837" y="-48"/>
      <point x="984" y="48"/>
      <point x="1013" y="221" type="curve"/>
      <point x="1024" y="221" type="line"/>
      <point x="1056" y="48"/>
      <point x="1196" y="-48"/>
      <point x="1444" y="-48" type="curve" smooth="yes"/>
      <point x="1693" y="-48"/>
      <point x="1876" y="91"/>
      <point x="1906" y="331" type="curve"/>
      <point x="1942" y="397"/>
      <point x="1958" y="449"/>
      <point x="1958" y="530" type="curve" smooth="yes"/>
      <point x="1958" y="541" type="line"/>
      <point x="1568" y="541" type="line"/>
      <point x="1568" y="534" type="line" smooth="yes"/>
      <point x="1568" y="381"/>
      <point x="1504" y="308"/>
      <point x="1381" y="308" type="curve" smooth="yes"/>
      <point x="1274" y="308"/>
      <point x="1213" y="354"/>
      <point x="1202" y="441" type="curve" smooth="yes"/>
      <point x="1197" y="482" type="line"/>
      <point x="840" y="482" type="line"/>
      <point x="835" y="440" type="line" smooth="yes"/>
      <point x="824" y="345"/>
      <point x="750" y="294"/>
      <point x="628" y="294" type="curve" smooth="yes"/>
      <point x="529" y="294"/>
      <point x="475" y="317"/>
      <point x="475" y="358" type="curve" smooth="yes"/>
      <point x="475" y="360" type="line" smooth="yes"/>
      <point x="475" y="400"/>
      <point x="509" y="422"/>
      <point x="691" y="468" type="curve" smooth="yes"/>
      <point x="992" y="544"/>
      <point x="1068" y="659"/>
      <point x="1068" y="817" type="curve" smooth="yes"/>
      <point x="1068" y="821" type="line" smooth="yes"/>
      <point x="1068" y="1052"/>
      <point x="895" y="1173"/>
      <point x="582" y="1173" type="curve" smooth="yes"/>
      <point x="272" y="1173"/>
      <point x="107" y="1057"/>
      <point x="107" y="833" type="curve" smooth="yes"/>
      <point x="107" y="831" type="line" smooth="yes"/>
      <point x="107" y="789"/>
      <point x="117" y="730"/>
      <point x="141" y="680" type="curve"/>
      <point x="477" y="680" type="line"/>
      <point x="459" y="719"/>
      <point x="454" y="749"/>
      <point x="454" y="778" type="curve" smooth="yes"/>
      <point x="454" y="780" type="line" smooth="yes"/>
      <point x="454" y="844"/>
      <point x="497" y="874"/>
      <point x="586" y="874" type="curve" smooth="yes"/>
      <point x="671" y="874"/>
      <point x="712" y="851"/>
      <point x="712" y="806" type="curve" smooth="yes"/>
      <point x="712" y="805" type="line" smooth="yes"/>
      <point x="712" y="762"/>
      <point x="668" y="739"/>
      <point x="498" y="696" type="curve" smooth="yes"/>
      <point x="149" y="608"/>
      <point x="80" y="493"/>
      <point x="80" y="320" type="curve" smooth="yes"/>
      <point x="80" y="313" type="line" smooth="yes"/>
      <point x="80" y="84"/>
      <point x="258" y="-48"/>
    </contour>
    <contour>
      <point x="1958" y="522" type="curve"/>
      <point x="1958" y="534" type="line"/>
      <point x="1842" y="534" type="line"/>
      <point x="1842" y="335" type="line"/>
      <point x="1842" y="93"/>
      <point x="2015" y="-48"/>
      <point x="2310" y="-48" type="curve" smooth="yes"/>
      <point x="2586" y="-48"/>
      <point x="2776" y="97"/>
      <point x="2812" y="356" type="curve"/>
      <point x="2821" y="415"/>
      <point x="2864" y="465"/>
      <point x="2864" y="529" type="curve" smooth="yes"/>
      <point x="2864" y="548" type="line"/>
      <point x="2474" y="543" type="line"/>
      <point x="2474" y="534" type="line" smooth="yes"/>
      <point x="2474" y="383"/>
      <point x="2383" y="299"/>
      <point x="2218" y="299" type="curve" smooth="yes"/>
      <point x="2052" y="299"/>
      <point x="1958" y="381"/>
    </contour>
    <contour>
      <point x="3216" y="-48" type="curve" smooth="yes"/>
      <point x="3575" y="-48"/>
      <point x="3770" y="161"/>
      <point x="3770" y="472" type="curve" smooth="yes"/>
      <point x="3770" y="501" type="line"/>
      <point x="3380" y="541" type="line"/>
      <point x="3380" y="534" type="line" smooth="yes"/>
      <point x="3380" y="383"/>
      <point x="3289" y="299"/>
      <point x="3124" y="299" type="curve" smooth="yes"/>
      <point x="2958" y="299"/>
      <point x="2864" y="381"/>
      <point x="2864" y="522" type="curve"/>
      <point x="2864" y="534" type="line"/>
      <point x="2748" y="533" type="line"/>
      <point x="2748" y="335" type="line"/>
      <point x="2748" y="93"/>
      <point x="2921" y="-48"/>
    </contour>
    <contour>
      <point x="3380" y="539" type="line"/>
      <point x="3770" y="499" type="line"/>
      <point x="3770" y="508" type="line" smooth="yes"/>
      <point x="3770" y="799"/>
      <point x="3558" y="1004"/>
      <point x="3172" y="1004" type="curve"/>
      <point x="3108" y="1150" type="line"/>
      <point x="3047" y="815" type="line"/>
      <point x="3062" y="815" type="line"/>
      <point x="3274" y="815"/>
      <point x="3380" y="719"/>
      <point x="3380" y="545" type="curve" smooth="yes"/>
    </contour>
    <contour>
      <point x="4383" y="85" type="curve" smooth="yes"/>
      <point x="4702" y="85"/>
      <point x="4880" y="256"/>
      <point x="4880" y="561" type="curve"/>
      <point x="4880" y="571" type="line"/>
      <point x="4880" y="929"/>
      <point x="4647" y="1150"/>
      <point x="4202" y="1150" type="curve" smooth="yes"/>
      <point x="3108" y="1150" type="line"/>
      <point x="3106" y="890" type="line"/>
      <point x="3747" y="835" type="line"/>
      <point x="4202" y="835" type="line" smooth="yes"/>
      <point x="4416" y="835"/>
      <point x="4524" y="740"/>
      <point x="4524" y="611" type="curve" smooth="yes"/>
      <point x="4524" y="605" type="line"/>
      <point x="4512" y="605" type="line"/>
      <point x="4515" y="506" type="line"/>
      <point x="4515" y="504" type="line"/>
      <point x="4515" y="422"/>
      <point x="4471" y="383"/>
      <point x="4387" y="383" type="curve" smooth="yes"/>
      <point x="4318" y="383"/>
      <point x="4282" y="404"/>
      <point x="4282" y="447" type="curve" smooth="yes"/>
      <point x="4282" y="449" type="line" smooth="yes"/>
      <point x="4282" y="491"/>
      <point x="4323" y="514"/>
      <point x="4385" y="514" type="curve" smooth="yes"/>
      <point x="4440" y="514"/>
      <point x="4489" y="504"/>
      <point x="4522" y="477" type="curve"/>
      <point x="4517" y="596" type="line"/>
      <point x="4489" y="691"/>
      <point x="4408" y="758"/>
      <point x="4250" y="758" type="curve" smooth="yes"/>
      <point x="4045" y="758"/>
      <point x="3924" y="643"/>
      <point x="3924" y="443" type="curve" smooth="yes"/>
      <point x="3924" y="438" type="line" smooth="yes"/>
      <point x="3924" y="214"/>
      <point x="4090" y="85"/>
    </contour>
    <component base="Terminals.te" xOffset="2095"/>
    <component base="Terminals.te" xOffset="1189"/>
  </outline>
</glyph>
<glyph name="vowelVocalicLl.te" format="2">
  <advance width="3590"/>
  <unicode hex="0C61"/>
  <outline>
    <contour>
      <point x="1533" y="-50" type="curve" smooth="yes"/>
      <point x="2110" y="-50"/>
      <point x="2409" y="177"/>
      <point x="2409" y="569" type="curve" smooth="yes"/>
      <point x="2409" y="575" type="line" smooth="yes"/>
      <point x="2409" y="832"/>
      <point x="2216" y="986"/>
      <point x="1888" y="986" type="curve"/>
      <point x="1827" y="1150" type="line"/>
      <point x="1765" y="815" type="line"/>
      <point x="1779" y="815" type="line" smooth="yes"/>
      <point x="1936" y="815"/>
      <point x="2019" y="735"/>
      <point x="2019" y="596" type="curve" smooth="yes"/>
      <point x="2019" y="591" type="line" smooth="yes"/>
      <point x="2019" y="392"/>
      <point x="1856" y="281"/>
      <point x="1532" y="281" type="curve" smooth="yes"/>
      <point x="1311" y="281"/>
      <point x="1201" y="308"/>
      <point x="1201" y="360" type="curve"/>
      <point x="1201" y="361" type="line"/>
      <point x="1201" y="396"/>
      <point x="1236" y="415"/>
      <point x="1412" y="441" type="curve" smooth="yes"/>
      <point x="1708" y="486"/>
      <point x="1806" y="594"/>
      <point x="1806" y="797" type="curve"/>
      <point x="1806" y="801" type="line"/>
      <point x="1806" y="1047"/>
      <point x="1638" y="1173"/>
      <point x="1334" y="1173" type="curve" smooth="yes"/>
      <point x="1087" y="1173"/>
      <point x="973" y="1080"/>
      <point x="938" y="935" type="curve"/>
      <point x="933" y="935" type="line"/>
      <point x="900" y="1080"/>
      <point x="776" y="1173"/>
      <point x="547" y="1173" type="curve" smooth="yes"/>
      <point x="234" y="1173"/>
      <point x="70" y="1020"/>
      <point x="70" y="755" type="curve"/>
      <point x="70" y="751" type="line"/>
      <point x="70" y="735"/>
      <point x="72" y="701"/>
      <point x="79" y="664" type="curve"/>
      <point x="456" y="664" type="line"/>
      <point x="453" y="682"/>
      <point x="451" y="692"/>
      <point x="451" y="708" type="curve"/>
      <point x="451" y="710" type="line"/>
      <point x="451" y="792"/>
      <point x="492" y="840"/>
      <point x="601" y="840" type="curve" smooth="yes"/>
      <point x="704" y="840"/>
      <point x="741" y="801"/>
      <point x="754" y="740" type="curve" smooth="yes"/>
      <point x="761" y="708" type="line"/>
      <point x="1110" y="708" type="line"/>
      <point x="1117" y="740" type="line" smooth="yes"/>
      <point x="1130" y="801"/>
      <point x="1168" y="840"/>
      <point x="1279" y="840" type="curve" smooth="yes"/>
      <point x="1386" y="840"/>
      <point x="1434" y="819"/>
      <point x="1434" y="769" type="curve"/>
      <point x="1434" y="765" type="line"/>
      <point x="1434" y="723"/>
      <point x="1396" y="698"/>
      <point x="1240" y="673" type="curve" smooth="yes"/>
      <point x="948" y="627"/>
      <point x="804" y="545"/>
      <point x="804" y="336" type="curve"/>
      <point x="804" y="333" type="line"/>
      <point x="804" y="84"/>
      <point x="1072" y="-50"/>
    </contour>
    <contour>
      <point x="3003" y="85" type="curve" smooth="yes"/>
      <point x="3322" y="85"/>
      <point x="3500" y="256"/>
      <point x="3500" y="561" type="curve"/>
      <point x="3500" y="571" type="line"/>
      <point x="3500" y="929"/>
      <point x="3267" y="1150"/>
      <point x="2822" y="1150" type="curve" smooth="yes"/>
      <point x="1827" y="1150" type="line"/>
      <point x="1837" y="890" type="line"/>
      <point x="2386" y="835" type="line"/>
      <point x="2822" y="835" type="line" smooth="yes"/>
      <point x="3036" y="835"/>
      <point x="3144" y="740"/>
      <point x="3144" y="611" type="curve" smooth="yes"/>
      <point x="3144" y="605" type="line"/>
      <point x="3132" y="605" type="line"/>
      <point x="3135" y="506" type="line"/>
      <point x="3135" y="504" type="line"/>
      <point x="3135" y="422"/>
      <point x="3091" y="383"/>
      <point x="3007" y="383" type="curve" smooth="yes"/>
      <point x="2938" y="383"/>
      <point x="2902" y="404"/>
      <point x="2902" y="447" type="curve" smooth="yes"/>
      <point x="2902" y="449" type="line" smooth="yes"/>
      <point x="2902" y="491"/>
      <point x="2943" y="514"/>
      <point x="3005" y="514" type="curve" smooth="yes"/>
      <point x="3060" y="514"/>
      <point x="3109" y="504"/>
      <point x="3142" y="477" type="curve"/>
      <point x="3137" y="596" type="line"/>
      <point x="3109" y="691"/>
      <point x="3028" y="758"/>
      <point x="2870" y="758" type="curve" smooth="yes"/>
      <point x="2665" y="758"/>
      <point x="2544" y="643"/>
      <point x="2544" y="443" type="curve" smooth="yes"/>
      <point x="2544" y="438" type="line" smooth="yes"/>
      <point x="2544" y="214"/>
      <point x="2710" y="85"/>
    </contour>
  </outline>
</glyph>
<glyph name="VocalicLsmall1.te" format="2">
  <unicode hex="0C62"/>
  <anchor x="50" y="-45" name="_bottom"/>
  <outline>
    <contour>
      <point x="267" y="-796" type="curve" smooth="yes"/>
      <point x="608" y="-796"/>
      <point x="769" y="-677"/>
      <point x="769" y="-446" type="curve" smooth="yes"/>
      <point x="769" y="-442" type="line" smooth="yes"/>
      <point x="769" y="-240"/>
      <point x="645" y="-121"/>
      <point x="441" y="-121" type="curve" smooth="yes"/>
      <point x="432" y="-121" type="line"/>
      <point x="391" y="-325" type="line"/>
      <point x="400" y="-325" type="line" smooth="yes"/>
      <point x="485" y="-325"/>
      <point x="532" y="-370"/>
      <point x="532" y="-443" type="curve" smooth="yes"/>
      <point x="532" y="-447" type="line" smooth="yes"/>
      <point x="532" y="-549"/>
      <point x="445" y="-605"/>
      <point x="260" y="-605" type="curve" smooth="yes"/>
      <point x="138" y="-605"/>
      <point x="72" y="-593"/>
      <point x="72" y="-571" type="curve"/>
      <point x="72" y="-570" type="line"/>
      <point x="72" y="-551"/>
      <point x="94" y="-543"/>
      <point x="212" y="-526" type="curve" smooth="yes"/>
      <point x="357" y="-505"/>
      <point x="407" y="-434"/>
      <point x="407" y="-327" type="curve"/>
      <point x="407" y="-325" type="line"/>
      <point x="407" y="-190"/>
      <point x="311" y="-117"/>
      <point x="134" y="-117" type="curve" smooth="yes"/>
      <point x="-9" y="-117"/>
      <point x="-88" y="-162"/>
      <point x="-109" y="-246" type="curve"/>
      <point x="-117" y="-246" type="line"/>
      <point x="-135" y="-163"/>
      <point x="-217" y="-117"/>
      <point x="-344" y="-117" type="curve" smooth="yes"/>
      <point x="-526" y="-117"/>
      <point x="-623" y="-196"/>
      <point x="-623" y="-342" type="curve"/>
      <point x="-623" y="-344" type="line"/>
      <point x="-623" y="-361"/>
      <point x="-623" y="-379"/>
      <point x="-618" y="-399" type="curve"/>
      <point x="-386" y="-399" type="line"/>
      <point x="-388" y="-386"/>
      <point x="-388" y="-381"/>
      <point x="-388" y="-376" type="curve"/>
      <point x="-388" y="-374" type="line"/>
      <point x="-388" y="-333"/>
      <point x="-360" y="-312"/>
      <point x="-305" y="-312" type="curve" smooth="yes"/>
      <point x="-263" y="-312"/>
      <point x="-231" y="-330"/>
      <point x="-226" y="-368" type="curve" smooth="yes"/>
      <point x="-224" y="-382" type="line"/>
      <point x="-2" y="-382" type="line"/>
      <point x="0" y="-368" type="line" smooth="yes"/>
      <point x="4" y="-341"/>
      <point x="20" y="-312"/>
      <point x="92" y="-312" type="curve" smooth="yes"/>
      <point x="148" y="-312"/>
      <point x="174" y="-325"/>
      <point x="174" y="-348" type="curve"/>
      <point x="174" y="-349" type="line"/>
      <point x="174" y="-373"/>
      <point x="142" y="-383"/>
      <point x="39" y="-399" type="curve" smooth="yes"/>
      <point x="-136" y="-426"/>
      <point x="-165" y="-498"/>
      <point x="-165" y="-574" type="curve" smooth="yes"/>
      <point x="-165" y="-577" type="line" smooth="yes"/>
      <point x="-165" y="-720"/>
      <point x="-15" y="-796"/>
    </contour>
  </outline>
</glyph>
<glyph name="VocalicLlsmall1.te" format="2">
  <unicode hex="0C63"/>
  <anchor x="440" y="-45" name="_bottom"/>
  <outline>
    <contour>
      <point x="264" y="-796" type="curve" smooth="yes"/>
      <point x="605" y="-796"/>
      <point x="766" y="-687"/>
      <point x="766" y="-476" type="curve" smooth="yes"/>
      <point x="766" y="-472" type="line" smooth="yes"/>
      <point x="766" y="-317"/>
      <point x="650" y="-241"/>
      <point x="458" y="-241" type="curve"/>
      <point x="429" y="-121" type="line"/>
      <point x="388" y="-325" type="line"/>
      <point x="397" y="-325" type="line" smooth="yes"/>
      <point x="482" y="-325"/>
      <point x="529" y="-370"/>
      <point x="529" y="-443" type="curve" smooth="yes"/>
      <point x="529" y="-447" type="line" smooth="yes"/>
      <point x="529" y="-549"/>
      <point x="442" y="-605"/>
      <point x="257" y="-605" type="curve" smooth="yes"/>
      <point x="135" y="-605"/>
      <point x="69" y="-593"/>
      <point x="69" y="-571" type="curve"/>
      <point x="69" y="-570" type="line"/>
      <point x="69" y="-551"/>
      <point x="91" y="-543"/>
      <point x="209" y="-526" type="curve" smooth="yes"/>
      <point x="354" y="-505"/>
      <point x="404" y="-434"/>
      <point x="404" y="-327" type="curve"/>
      <point x="404" y="-325" type="line"/>
      <point x="404" y="-190"/>
      <point x="308" y="-117"/>
      <point x="131" y="-117" type="curve" smooth="yes"/>
      <point x="-12" y="-117"/>
      <point x="-91" y="-162"/>
      <point x="-112" y="-246" type="curve"/>
      <point x="-120" y="-246" type="line"/>
      <point x="-138" y="-163"/>
      <point x="-220" y="-117"/>
      <point x="-347" y="-117" type="curve" smooth="yes"/>
      <point x="-529" y="-117"/>
      <point x="-626" y="-196"/>
      <point x="-626" y="-342" type="curve"/>
      <point x="-626" y="-344" type="line"/>
      <point x="-626" y="-361"/>
      <point x="-626" y="-379"/>
      <point x="-621" y="-399" type="curve"/>
      <point x="-389" y="-399" type="line"/>
      <point x="-391" y="-386"/>
      <point x="-391" y="-381"/>
      <point x="-391" y="-376" type="curve"/>
      <point x="-391" y="-374" type="line"/>
      <point x="-391" y="-333"/>
      <point x="-363" y="-312"/>
      <point x="-308" y="-312" type="curve" smooth="yes"/>
      <point x="-266" y="-312"/>
      <point x="-234" y="-330"/>
      <point x="-229" y="-368" type="curve" smooth="yes"/>
      <point x="-227" y="-382" type="line"/>
      <point x="-5" y="-382" type="line"/>
      <point x="-3" y="-368" type="line" smooth="yes"/>
      <point x="1" y="-341"/>
      <point x="17" y="-312"/>
      <point x="89" y="-312" type="curve" smooth="yes"/>
      <point x="145" y="-312"/>
      <point x="171" y="-325"/>
      <point x="171" y="-348" type="curve"/>
      <point x="171" y="-349" type="line"/>
      <point x="171" y="-373"/>
      <point x="139" y="-383"/>
      <point x="36" y="-399" type="curve" smooth="yes"/>
      <point x="-139" y="-426"/>
      <point x="-168" y="-498"/>
      <point x="-168" y="-574" type="curve" smooth="yes"/>
      <point x="-168" y="-577" type="line" smooth="yes"/>
      <point x="-168" y="-720"/>
      <point x="-18" y="-796"/>
    </contour>
    <contour>
      <point x="1095" y="-745" type="curve" smooth="yes"/>
      <point x="1287" y="-745"/>
      <point x="1398" y="-644"/>
      <point x="1398" y="-463" type="curve" smooth="yes"/>
      <point x="1398" y="-458" type="line" smooth="yes"/>
      <point x="1398" y="-237"/>
      <point x="1249" y="-121"/>
      <point x="975" y="-121" type="curve" smooth="yes"/>
      <point x="429" y="-121" type="line"/>
      <point x="429" y="-283" type="line"/>
      <point x="813" y="-308" type="line"/>
      <point x="977" y="-308" type="line" smooth="yes"/>
      <point x="1125" y="-308"/>
      <point x="1185" y="-351"/>
      <point x="1185" y="-442" type="curve"/>
      <point x="1185" y="-445" type="line"/>
      <point x="1180" y="-445" type="line"/>
      <point x="1177" y="-501" type="line"/>
      <point x="1177" y="-507" type="line"/>
      <point x="1177" y="-549"/>
      <point x="1154" y="-579"/>
      <point x="1102" y="-579" type="curve" smooth="yes"/>
      <point x="1066" y="-579"/>
      <point x="1045" y="-563"/>
      <point x="1045" y="-540" type="curve"/>
      <point x="1045" y="-539" type="line"/>
      <point x="1045" y="-514"/>
      <point x="1064" y="-499"/>
      <point x="1100" y="-499" type="curve" smooth="yes"/>
      <point x="1132" y="-499"/>
      <point x="1156" y="-506"/>
      <point x="1184" y="-521" type="curve"/>
      <point x="1182" y="-445" type="line"/>
      <point x="1169" y="-393"/>
      <point x="1119" y="-350"/>
      <point x="1028" y="-350" type="curve" smooth="yes"/>
      <point x="900" y="-350"/>
      <point x="826" y="-418"/>
      <point x="826" y="-540" type="curve"/>
      <point x="826" y="-543" type="line"/>
      <point x="826" y="-672"/>
      <point x="925" y="-745"/>
    </contour>
  </outline>
</glyph>
<glyph name="zero.te" format="2">
  <advance width="1679"/>
  <unicode hex="0C66"/>
  <outline>
    <contour>
      <point x="839" y="-50" type="curve" smooth="yes"/>
      <point x="1331" y="-50"/>
      <point x="1589" y="164"/>
      <point x="1589" y="555" type="curve" smooth="yes"/>
      <point x="1589" y="568" type="line" smooth="yes"/>
      <point x="1589" y="958"/>
      <point x="1331" y="1173"/>
      <point x="839" y="1173" type="curve" smooth="yes"/>
      <point x="348" y="1173"/>
      <point x="90" y="958"/>
      <point x="90" y="568" type="curve" smooth="yes"/>
      <point x="90" y="555" type="line" smooth="yes"/>
      <point x="90" y="164"/>
      <point x="348" y="-50"/>
    </contour>
    <contour>
      <point x="839" y="295" type="curve" smooth="yes"/>
      <point x="601" y="295"/>
      <point x="480" y="384"/>
      <point x="480" y="557" type="curve" smooth="yes"/>
      <point x="480" y="566" type="line" smooth="yes"/>
      <point x="480" y="737"/>
      <point x="601" y="828"/>
      <point x="839" y="828" type="curve" smooth="yes"/>
      <point x="1078" y="828"/>
      <point x="1199" y="737"/>
      <point x="1199" y="566" type="curve" smooth="yes"/>
      <point x="1199" y="557" type="line" smooth="yes"/>
      <point x="1199" y="384"/>
      <point x="1078" y="295"/>
    </contour>
  </outline>
</glyph>
<glyph name="one.te" format="2">
  <advance width="1600"/>
  <unicode hex="0C67"/>
  <outline>
    <contour>
      <point x="971" y="0" type="curve"/>
      <point x="1398" y="0" type="line"/>
      <point x="1486" y="206"/>
      <point x="1510" y="386"/>
      <point x="1510" y="518" type="curve" smooth="yes"/>
      <point x="1510" y="532" type="line" smooth="yes"/>
      <point x="1510" y="939"/>
      <point x="1295" y="1189"/>
      <point x="800" y="1189" type="curve" smooth="yes"/>
      <point x="305" y="1189"/>
      <point x="90" y="940"/>
      <point x="90" y="534" type="curve" smooth="yes"/>
      <point x="90" y="520" type="line" smooth="yes"/>
      <point x="90" y="386"/>
      <point x="115" y="206"/>
      <point x="202" y="0" type="curve"/>
      <point x="629" y="0" type="line"/>
      <point x="531" y="199"/>
      <point x="489" y="379"/>
      <point x="489" y="518" type="curve" smooth="yes"/>
      <point x="489" y="530" type="line" smooth="yes"/>
      <point x="489" y="741"/>
      <point x="597" y="844"/>
      <point x="800" y="844" type="curve" smooth="yes"/>
      <point x="1003" y="844"/>
      <point x="1112" y="741"/>
      <point x="1112" y="530" type="curve" smooth="yes"/>
      <point x="1112" y="518" type="line" smooth="yes"/>
      <point x="1112" y="377"/>
      <point x="1069" y="199"/>
    </contour>
  </outline>
</glyph>
<glyph name="two.te" format="2">
  <advance width="1696"/>
  <unicode hex="0C68"/>
  <outline>
    <contour>
      <point x="42" y="1" type="line"/>
      <point x="874" y="1" type="line" smooth="yes"/>
      <point x="1350" y="1"/>
      <point x="1606" y="212"/>
      <point x="1606" y="586" type="curve" smooth="yes"/>
      <point x="1606" y="593" type="line" smooth="yes"/>
      <point x="1606" y="955"/>
      <point x="1349" y="1178"/>
      <point x="839" y="1178" type="curve" smooth="yes"/>
      <point x="341" y="1178"/>
      <point x="222" y="997"/>
      <point x="222" y="789" type="curve" smooth="yes"/>
      <point x="222" y="784" type="line" smooth="yes"/>
      <point x="222" y="565"/>
      <point x="390" y="445"/>
      <point x="699" y="445" type="curve" smooth="yes"/>
      <point x="1018" y="445"/>
      <point x="1127" y="555"/>
      <point x="1127" y="691" type="curve" smooth="yes"/>
      <point x="1127" y="694" type="line" smooth="yes"/>
      <point x="1127" y="746"/>
      <point x="1106" y="801"/>
      <point x="1020" y="844" type="curve"/>
      <point x="1036" y="899" type="line"/>
      <point x="712" y="899" type="line"/>
      <point x="764" y="880"/>
      <point x="801" y="842"/>
      <point x="801" y="799" type="curve" smooth="yes"/>
      <point x="801" y="796" type="line" smooth="yes"/>
      <point x="801" y="753"/>
      <point x="773" y="722"/>
      <point x="696" y="722" type="curve" smooth="yes"/>
      <point x="625" y="722"/>
      <point x="595" y="754"/>
      <point x="595" y="792" type="curve" smooth="yes"/>
      <point x="595" y="796" type="line" smooth="yes"/>
      <point x="595" y="847"/>
      <point x="644" y="874"/>
      <point x="763" y="874" type="curve" smooth="yes"/>
      <point x="1114" y="874"/>
      <point x="1228" y="786"/>
      <point x="1228" y="603" type="curve" smooth="yes"/>
      <point x="1228" y="596" type="line" smooth="yes"/>
      <point x="1228" y="424"/>
      <point x="1097" y="320"/>
      <point x="839" y="320" type="curve" smooth="yes"/>
      <point x="-15" y="320" type="line"/>
    </contour>
  </outline>
</glyph>
<glyph name="three.te" format="2">
  <advance width="1282"/>
  <unicode hex="0C69"/>
  <outline>
    <contour>
      <point x="612" y="-34" type="curve" smooth="yes"/>
      <point x="1007" y="-34"/>
      <point x="1202" y="85"/>
      <point x="1202" y="308" type="curve" smooth="yes"/>
      <point x="1202" y="311" type="line" smooth="yes"/>
      <point x="1202" y="460"/>
      <point x="1104" y="560"/>
      <point x="933" y="583" type="curve"/>
      <point x="933" y="588" type="line"/>
      <point x="1099" y="609"/>
      <point x="1193" y="704"/>
      <point x="1193" y="852" type="curve" smooth="yes"/>
      <point x="1193" y="855" type="line" smooth="yes"/>
      <point x="1193" y="1065"/>
      <point x="1008" y="1173"/>
      <point x="642" y="1173" type="curve" smooth="yes"/>
      <point x="464" y="1173"/>
      <point x="285" y="1153"/>
      <point x="141" y="1109" type="curve"/>
      <point x="105" y="776" type="line"/>
      <point x="232" y="815"/>
      <point x="385" y="842"/>
      <point x="558" y="842" type="curve" smooth="yes"/>
      <point x="753" y="842"/>
      <point x="812" y="828"/>
      <point x="812" y="793" type="curve" smooth="yes"/>
      <point x="812" y="789" type="line" smooth="yes"/>
      <point x="812" y="753"/>
      <point x="766" y="741"/>
      <point x="634" y="736" type="curve" smooth="yes"/>
      <point x="372" y="726" type="line"/>
      <point x="372" y="440" type="line"/>
      <point x="634" y="430" type="line" smooth="yes"/>
      <point x="773" y="425"/>
      <point x="821" y="410"/>
      <point x="821" y="370" type="curve" smooth="yes"/>
      <point x="821" y="366" type="line" smooth="yes"/>
      <point x="821" y="324"/>
      <point x="760" y="305"/>
      <point x="558" y="305" type="curve" smooth="yes"/>
      <point x="390" y="305"/>
      <point x="232" y="330"/>
      <point x="80" y="376" type="curve"/>
      <point x="116" y="30" type="line"/>
      <point x="260" y="-11"/>
      <point x="442" y="-34"/>
    </contour>
  </outline>
</glyph>
<glyph name="four.te" format="2">
  <advance width="1721"/>
  <unicode hex="0C6A"/>
  <outline>
    <contour>
      <point x="554" y="366" type="curve"/>
      <point x="863" y="416" type="line"/>
      <point x="1164" y="365" type="line"/>
      <point x="1503" y="405"/>
      <point x="1651" y="559"/>
      <point x="1651" y="764" type="curve" smooth="yes"/>
      <point x="1651" y="773" type="line" smooth="yes"/>
      <point x="1651" y="1012"/>
      <point x="1468" y="1150"/>
      <point x="1120" y="1150" type="curve" smooth="yes"/>
      <point x="1094" y="1150" type="line"/>
      <point x="1031" y="840" type="line"/>
      <point x="1046" y="840" type="line" smooth="yes"/>
      <point x="1199" y="840"/>
      <point x="1275" y="810"/>
      <point x="1275" y="736" type="curve"/>
      <point x="1275" y="734" type="line"/>
      <point x="1275" y="668"/>
      <point x="1202" y="619"/>
      <point x="861" y="619" type="curve" smooth="yes"/>
      <point x="522" y="619"/>
      <point x="446" y="668"/>
      <point x="446" y="734" type="curve"/>
      <point x="446" y="736" type="line"/>
      <point x="446" y="810"/>
      <point x="522" y="840"/>
      <point x="675" y="840" type="curve" smooth="yes"/>
      <point x="690" y="840" type="line"/>
      <point x="627" y="1150" type="line"/>
      <point x="601" y="1150" type="line" smooth="yes"/>
      <point x="254" y="1150"/>
      <point x="70" y="1012"/>
      <point x="70" y="773" type="curve" smooth="yes"/>
      <point x="70" y="764" type="line" smooth="yes"/>
      <point x="70" y="559"/>
      <point x="218" y="406"/>
    </contour>
    <contour>
      <point x="861" y="-53" type="curve" smooth="yes"/>
      <point x="1253" y="-53"/>
      <point x="1359" y="76"/>
      <point x="1359" y="227" type="curve" smooth="yes"/>
      <point x="1359" y="235" type="line" smooth="yes"/>
      <point x="1359" y="421"/>
      <point x="1169" y="493"/>
      <point x="861" y="493" type="curve" smooth="yes"/>
      <point x="553" y="493"/>
      <point x="363" y="421"/>
      <point x="363" y="235" type="curve" smooth="yes"/>
      <point x="363" y="227" type="line" smooth="yes"/>
      <point x="363" y="76"/>
      <point x="469" y="-53"/>
    </contour>
    <contour>
      <point x="861" y="242" type="curve" smooth="yes"/>
      <point x="789" y="242"/>
      <point x="734" y="259"/>
      <point x="734" y="300" type="curve" smooth="yes"/>
      <point x="734" y="305" type="line" smooth="yes"/>
      <point x="734" y="346"/>
      <point x="789" y="363"/>
      <point x="861" y="363" type="curve" smooth="yes"/>
      <point x="934" y="363"/>
      <point x="988" y="346"/>
      <point x="988" y="305" type="curve" smooth="yes"/>
      <point x="988" y="300" type="line" smooth="yes"/>
      <point x="988" y="259"/>
      <point x="934" y="242"/>
    </contour>
  </outline>
</glyph>
<glyph name="five.te" format="2">
  <advance width="1995"/>
  <unicode hex="0C6B"/>
  <outline>
    <contour>
      <point x="123" y="0" type="line"/>
      <point x="535" y="0" type="line"/>
      <point x="535" y="24" type="line" smooth="yes"/>
      <point x="535" y="137"/>
      <point x="647" y="213"/>
      <point x="859" y="272" type="curve" smooth="yes"/>
      <point x="1006" y="313" type="line" smooth="yes"/>
      <point x="1113" y="343"/>
      <point x="1226" y="363"/>
      <point x="1329" y="363" type="curve" smooth="yes"/>
      <point x="1336" y="363" type="line" smooth="yes"/>
      <point x="1463" y="363"/>
      <point x="1513" y="308"/>
      <point x="1513" y="167" type="curve" smooth="yes"/>
      <point x="1513" y="160" type="line" smooth="yes"/>
      <point x="1513" y="102"/>
      <point x="1517" y="34"/>
      <point x="1544" y="-23" type="curve"/>
      <point x="1919" y="-23" type="line"/>
      <point x="1886" y="70"/>
      <point x="1872" y="148"/>
      <point x="1872" y="238" type="curve" smooth="yes"/>
      <point x="1872" y="247" type="line" smooth="yes"/>
      <point x="1872" y="527"/>
      <point x="1742" y="676"/>
      <point x="1448" y="676" type="curve" smooth="yes"/>
      <point x="1384" y="676" type="line" smooth="yes"/>
      <point x="1268" y="676"/>
      <point x="1055" y="644"/>
      <point x="889" y="600" type="curve" smooth="yes"/>
      <point x="723" y="556" type="line" smooth="yes"/>
      <point x="317" y="448"/>
      <point x="123" y="287"/>
      <point x="123" y="24" type="curve" smooth="yes"/>
    </contour>
    <contour>
      <point x="446" y="392" type="curve"/>
      <point x="780" y="401" type="line"/>
      <point x="818" y="488"/>
      <point x="837" y="559"/>
      <point x="837" y="632" type="curve" smooth="yes"/>
      <point x="837" y="637" type="line" smooth="yes"/>
      <point x="837" y="1006"/>
      <point x="650" y="1182"/>
      <point x="314" y="1182" type="curve" smooth="yes"/>
      <point x="238" y="1182"/>
      <point x="168" y="1173"/>
      <point x="106" y="1153" type="curve"/>
      <point x="70" y="824" type="line"/>
      <point x="113" y="844"/>
      <point x="177" y="858"/>
      <point x="238" y="858" type="curve" smooth="yes"/>
      <point x="426" y="858"/>
      <point x="497" y="780"/>
      <point x="497" y="582" type="curve" smooth="yes"/>
      <point x="497" y="575" type="line" smooth="yes"/>
      <point x="497" y="516"/>
      <point x="481" y="447"/>
    </contour>
    <contour>
      <point x="1166" y="550" type="curve"/>
      <point x="1355" y="671" type="line"/>
      <point x="1302" y="700"/>
      <point x="1281" y="731"/>
      <point x="1281" y="771" type="curve" smooth="yes"/>
      <point x="1281" y="774" type="line" smooth="yes"/>
      <point x="1281" y="821"/>
      <point x="1314" y="867"/>
      <point x="1421" y="867" type="curve" smooth="yes"/>
      <point x="1526" y="867"/>
      <point x="1560" y="821"/>
      <point x="1560" y="774" type="curve" smooth="yes"/>
      <point x="1560" y="771" type="line" smooth="yes"/>
      <point x="1560" y="731"/>
      <point x="1539" y="700"/>
      <point x="1485" y="671" type="curve"/>
      <point x="1704" y="532" type="line"/>
      <point x="1854" y="617"/>
      <point x="1914" y="715"/>
      <point x="1914" y="837" type="curve" smooth="yes"/>
      <point x="1914" y="840" type="line" smooth="yes"/>
      <point x="1914" y="1048"/>
      <point x="1751" y="1180"/>
      <point x="1419" y="1180" type="curve" smooth="yes"/>
      <point x="1088" y="1180"/>
      <point x="926" y="1053"/>
      <point x="926" y="854" type="curve" smooth="yes"/>
      <point x="926" y="851" type="line" smooth="yes"/>
      <point x="926" y="714"/>
      <point x="986" y="612"/>
    </contour>
  </outline>
</glyph>
<glyph name="six.te" format="2">
  <advance width="1745"/>
  <unicode hex="0C6C"/>
  <outline>
    <contour>
      <point x="526" y="0" type="curve" smooth="yes"/>
      <point x="1695" y="0" type="line"/>
      <point x="1695" y="326" type="line"/>
      <point x="537" y="326" type="line" smooth="yes"/>
      <point x="470" y="326"/>
      <point x="442" y="341"/>
      <point x="442" y="375" type="curve"/>
      <point x="442" y="377" type="line"/>
      <point x="442" y="411"/>
      <point x="470" y="426"/>
      <point x="537" y="426" type="curve" smooth="yes"/>
      <point x="1135" y="426" type="line"/>
      <point x="1135" y="724" type="line"/>
      <point x="546" y="724" type="line" smooth="yes"/>
      <point x="479" y="724"/>
      <point x="451" y="739"/>
      <point x="451" y="773" type="curve"/>
      <point x="451" y="775" type="line"/>
      <point x="451" y="809"/>
      <point x="479" y="824"/>
      <point x="546" y="824" type="curve" smooth="yes"/>
      <point x="780" y="824" type="line"/>
      <point x="718" y="1150" type="line"/>
      <point x="526" y="1150" type="line" smooth="yes"/>
      <point x="228" y="1150"/>
      <point x="79" y="1047"/>
      <point x="79" y="841" type="curve" smooth="yes"/>
      <point x="79" y="838" type="line" smooth="yes"/>
      <point x="79" y="694"/>
      <point x="170" y="602"/>
      <point x="330" y="582" type="curve"/>
      <point x="330" y="577" type="line"/>
      <point x="162" y="557"/>
      <point x="70" y="466"/>
      <point x="70" y="316" type="curve" smooth="yes"/>
      <point x="70" y="312" type="line" smooth="yes"/>
      <point x="70" y="108"/>
      <point x="225" y="0"/>
    </contour>
  </outline>
</glyph>
<glyph name="seven.te" format="2">
  <advance width="1499"/>
  <unicode hex="0C6D"/>
  <outline>
    <contour>
      <point x="1356" y="62" type="curve"/>
      <point x="1409" y="423" type="line"/>
      <point x="1177" y="335"/>
      <point x="976" y="294"/>
      <point x="760" y="294" type="curve" smooth="yes"/>
      <point x="513" y="294"/>
      <point x="471" y="317"/>
      <point x="471" y="349" type="curve" smooth="yes"/>
      <point x="471" y="352" type="line" smooth="yes"/>
      <point x="471" y="388"/>
      <point x="534" y="401"/>
      <point x="803" y="432" type="curve" smooth="yes"/>
      <point x="1298" y="489"/>
      <point x="1397" y="596"/>
      <point x="1397" y="812" type="curve" smooth="yes"/>
      <point x="1397" y="815" type="line" smooth="yes"/>
      <point x="1397" y="1038"/>
      <point x="1216" y="1173"/>
      <point x="768" y="1173" type="curve" smooth="yes"/>
      <point x="564" y="1173"/>
      <point x="357" y="1136"/>
      <point x="209" y="1077" type="curve"/>
      <point x="156" y="737" type="line"/>
      <point x="334" y="810"/>
      <point x="558" y="849"/>
      <point x="747" y="849" type="curve" smooth="yes"/>
      <point x="939" y="849"/>
      <point x="1016" y="832"/>
      <point x="1016" y="799" type="curve"/>
      <point x="1016" y="797" type="line"/>
      <point x="1016" y="768"/>
      <point x="984" y="756"/>
      <point x="695" y="727" type="curve" smooth="yes"/>
      <point x="234" y="681"/>
      <point x="90" y="561"/>
      <point x="90" y="344" type="curve" smooth="yes"/>
      <point x="90" y="338" type="line" smooth="yes"/>
      <point x="90" y="102"/>
      <point x="273" y="-43"/>
      <point x="772" y="-43" type="curve" smooth="yes"/>
      <point x="1027" y="-43"/>
      <point x="1203" y="0"/>
    </contour>
  </outline>
</glyph>
<glyph name="eight.te" format="2">
  <advance width="1595"/>
  <unicode hex="0C6E"/>
  <outline>
    <contour>
      <point x="800" y="-47" type="curve" smooth="yes"/>
      <point x="1262" y="-47"/>
      <point x="1503" y="148"/>
      <point x="1503" y="528" type="curve" smooth="yes"/>
      <point x="1503" y="534" type="line" smooth="yes"/>
      <point x="1503" y="694"/>
      <point x="1440" y="813"/>
      <point x="1322" y="873" type="curve"/>
      <point x="1322" y="882" type="line"/>
      <point x="1575" y="872" type="line"/>
      <point x="1529" y="1165" type="line"/>
      <point x="943" y="1147" type="line"/>
      <point x="943" y="876" type="line"/>
      <point x="1032" y="865" type="line"/>
      <point x="1081" y="826"/>
      <point x="1112" y="724"/>
      <point x="1112" y="637" type="curve" smooth="yes"/>
      <point x="1112" y="625" type="line" smooth="yes"/>
      <point x="1112" y="402"/>
      <point x="1006" y="287"/>
      <point x="800" y="287" type="curve" smooth="yes"/>
      <point x="594" y="287"/>
      <point x="489" y="402"/>
      <point x="489" y="625" type="curve" smooth="yes"/>
      <point x="489" y="637" type="line" smooth="yes"/>
      <point x="489" y="776"/>
      <point x="531" y="956"/>
      <point x="629" y="1155" type="curve"/>
      <point x="212" y="1155" type="line"/>
      <point x="117" y="959"/>
      <point x="90" y="779"/>
      <point x="90" y="635" type="curve" smooth="yes"/>
      <point x="90" y="621" type="line" smooth="yes"/>
      <point x="90" y="186"/>
      <point x="336" y="-47"/>
    </contour>
  </outline>
</glyph>
<glyph name="nine.te" format="2">
  <advance width="1760"/>
  <unicode hex="0C6F"/>
  <outline>
    <contour>
      <point x="536" y="0" type="curve" smooth="yes"/>
      <point x="790" y="0" type="line"/>
      <point x="790" y="326" type="line"/>
      <point x="547" y="326" type="line" smooth="yes"/>
      <point x="480" y="326"/>
      <point x="452" y="341"/>
      <point x="452" y="375" type="curve"/>
      <point x="452" y="377" type="line"/>
      <point x="452" y="411"/>
      <point x="480" y="426"/>
      <point x="547" y="426" type="curve" smooth="yes"/>
      <point x="1145" y="426" type="line"/>
      <point x="1145" y="724" type="line"/>
      <point x="556" y="724" type="line" smooth="yes"/>
      <point x="489" y="724"/>
      <point x="461" y="739"/>
      <point x="461" y="773" type="curve"/>
      <point x="461" y="775" type="line"/>
      <point x="461" y="809"/>
      <point x="489" y="824"/>
      <point x="556" y="824" type="curve" smooth="yes"/>
      <point x="1705" y="824" type="line"/>
      <point x="1643" y="1150" type="line"/>
      <point x="536" y="1150" type="line" smooth="yes"/>
      <point x="238" y="1150"/>
      <point x="89" y="1047"/>
      <point x="89" y="841" type="curve" smooth="yes"/>
      <point x="89" y="838" type="line" smooth="yes"/>
      <point x="89" y="694"/>
      <point x="180" y="602"/>
      <point x="340" y="582" type="curve"/>
      <point x="340" y="577" type="line"/>
      <point x="172" y="557"/>
      <point x="80" y="466"/>
      <point x="80" y="316" type="curve" smooth="yes"/>
      <point x="80" y="312" type="line" smooth="yes"/>
      <point x="80" y="108"/>
      <point x="235" y="0"/>
    </contour>
  </outline>
</glyph>
<glyph name="trademark" format="2">
  <advance width="1735"/>
  <unicode hex="2122"/>
  <outline>
    <contour>
      <point x="232" y="639" type="line"/>
      <point x="494" y="639" type="line"/>
      <point x="494" y="1190" type="line"/>
      <point x="232" y="1190" type="line"/>
    </contour>
    <contour>
      <point x="23" y="1072" type="line"/>
      <point x="704" y="1072" type="line"/>
      <point x="704" y="1278" type="line"/>
      <point x="23" y="1278" type="line"/>
    </contour>
    <contour>
      <point x="769" y="639" type="line"/>
      <point x="1015" y="639" type="line"/>
      <point x="1018" y="833" type="line"/>
      <point x="1019" y="1015" type="line"/>
      <point x="1030" y="1015" type="line"/>
      <point x="1097" y="715" type="line"/>
      <point x="1336" y="715" type="line"/>
      <point x="1401" y="1015" type="line"/>
      <point x="1411" y="1015" type="line"/>
      <point x="1413" y="833" type="line"/>
      <point x="1417" y="639" type="line"/>
      <point x="1663" y="639" type="line"/>
      <point x="1640" y="1278" type="line"/>
      <point x="1284" y="1278" type="line"/>
      <point x="1221" y="972" type="line"/>
      <point x="1210" y="972" type="line"/>
      <point x="1148" y="1278" type="line"/>
      <point x="792" y="1278" type="line"/>
    </contour>
  </outline>
</glyph>
<glyph name="BaHalant.te" format="2">
  <advance width="2048"/>
  <anchor x="1017" y="-67" name="bottom"/>
  <outline>
    <contour>
      <point x="584" y="-48" type="curve" smooth="yes"/>
      <point x="837" y="-48"/>
      <point x="984" y="48"/>
      <point x="1013" y="221" type="curve"/>
      <point x="1024" y="221" type="line"/>
      <point x="1056" y="48"/>
      <point x="1196" y="-48"/>
      <point x="1444" y="-48" type="curve" smooth="yes"/>
      <point x="1776" y="-48"/>
      <point x="1958" y="158"/>
      <point x="1958" y="530" type="curve" smooth="yes"/>
      <point x="1958" y="541" type="line"/>
      <point x="1568" y="541" type="line"/>
      <point x="1568" y="534" type="line" smooth="yes"/>
      <point x="1568" y="381"/>
      <point x="1504" y="308"/>
      <point x="1381" y="308" type="curve" smooth="yes"/>
      <point x="1274" y="308"/>
      <point x="1213" y="354"/>
      <point x="1202" y="441" type="curve" smooth="yes"/>
      <point x="1197" y="482" type="line"/>
      <point x="840" y="482" type="line"/>
      <point x="835" y="440" type="line" smooth="yes"/>
      <point x="824" y="345"/>
      <point x="750" y="294"/>
      <point x="628" y="294" type="curve" smooth="yes"/>
      <point x="529" y="294"/>
      <point x="475" y="317"/>
      <point x="475" y="358" type="curve" smooth="yes"/>
      <point x="475" y="360" type="line" smooth="yes"/>
      <point x="475" y="400"/>
      <point x="509" y="422"/>
      <point x="691" y="468" type="curve" smooth="yes"/>
      <point x="992" y="544"/>
      <point x="1068" y="659"/>
      <point x="1068" y="817" type="curve" smooth="yes"/>
      <point x="1068" y="821" type="line" smooth="yes"/>
      <point x="1068" y="1052"/>
      <point x="895" y="1173"/>
      <point x="582" y="1173" type="curve" smooth="yes"/>
      <point x="272" y="1173"/>
      <point x="107" y="1057"/>
      <point x="107" y="833" type="curve" smooth="yes"/>
      <point x="107" y="831" type="line" smooth="yes"/>
      <point x="107" y="789"/>
      <point x="117" y="730"/>
      <point x="141" y="680" type="curve"/>
      <point x="477" y="680" type="line"/>
      <point x="459" y="719"/>
      <point x="454" y="749"/>
      <point x="454" y="778" type="curve" smooth="yes"/>
      <point x="454" y="780" type="line" smooth="yes"/>
      <point x="454" y="844"/>
      <point x="497" y="874"/>
      <point x="586" y="874" type="curve" smooth="yes"/>
      <point x="671" y="874"/>
      <point x="712" y="851"/>
      <point x="712" y="806" type="curve" smooth="yes"/>
      <point x="712" y="805" type="line" smooth="yes"/>
      <point x="712" y="762"/>
      <point x="668" y="739"/>
      <point x="498" y="696" type="curve" smooth="yes"/>
      <point x="149" y="608"/>
      <point x="80" y="493"/>
      <point x="80" y="320" type="curve" smooth="yes"/>
      <point x="80" y="313" type="line" smooth="yes"/>
      <point x="80" y="84"/>
      <point x="258" y="-48"/>
    </contour>
    <contour>
      <point x="1355" y="828" type="curve" smooth="yes"/>
      <point x="1489" y="779"/>
      <point x="1568" y="719"/>
      <point x="1568" y="545" type="curve" smooth="yes"/>
      <point x="1568" y="539" type="line"/>
      <point x="1958" y="539" type="line"/>
      <point x="1958" y="548" type="line" smooth="yes"/>
      <point x="1958" y="907"/>
      <point x="1772" y="1052"/>
      <point x="1549" y="1124" type="curve" smooth="yes"/>
      <point x="1459" y="1153"/>
      <point x="1438" y="1166"/>
      <point x="1438" y="1205" type="curve" smooth="yes"/>
      <point x="1438" y="1240"/>
      <point x="1462" y="1259"/>
      <point x="1527" y="1259" type="curve" smooth="yes"/>
      <point x="2045" y="1259" type="line"/>
      <point x="2045" y="1545" type="line"/>
      <point x="1497" y="1545" type="line" smooth="yes"/>
      <point x="1428" y="1545"/>
      <point x="1404" y="1563"/>
      <point x="1404" y="1600" type="curve" smooth="yes"/>
      <point x="1404" y="1637"/>
      <point x="1428" y="1656"/>
      <point x="1497" y="1656" type="curve" smooth="yes"/>
      <point x="2343" y="1656" type="line"/>
      <point x="2298" y="1953" type="line"/>
      <point x="1480" y="1953" type="line" smooth="yes"/>
      <point x="1180" y="1953"/>
      <point x="1041" y="1857"/>
      <point x="1041" y="1659" type="curve" smooth="yes"/>
      <point x="1041" y="1513"/>
      <point x="1133" y="1426"/>
      <point x="1306" y="1405" type="curve"/>
      <point x="1306" y="1398" type="line"/>
      <point x="1155" y="1361"/>
      <point x="1076" y="1287"/>
      <point x="1076" y="1136" type="curve" smooth="yes"/>
      <point x="1076" y="991"/>
      <point x="1166" y="897"/>
    </contour>
  </outline>
</glyph>
